<mxfile host="Electron" agent="Mozilla/5.0 (Windows NT 10.0; Win64; x64) AppleWebKit/537.36 (KHTML, like Gecko) draw.io/25.0.2 Chrome/128.0.6613.186 Electron/32.2.5 Safari/537.36" version="25.0.2">
  <diagram name="Page-1" id="AMdlLmcaTX6MbdJ4gL0N">
    <mxGraphModel dx="1036" dy="606" grid="1" gridSize="10" guides="1" tooltips="1" connect="1" arrows="1" fold="1" page="1" pageScale="1" pageWidth="850" pageHeight="1100" math="0" shadow="0">
      <root>
        <mxCell id="0" />
        <mxCell id="1" parent="0" />
        <mxCell id="1T0mvie5sYtiIZOfTLbJ-1" value="" style="rounded=1;whiteSpace=wrap;html=1;" vertex="1" parent="1">
          <mxGeometry x="290" y="40" width="230" height="480" as="geometry" />
        </mxCell>
        <mxCell id="1T0mvie5sYtiIZOfTLbJ-2" value="" style="ellipse;whiteSpace=wrap;html=1;aspect=fixed;" vertex="1" parent="1">
          <mxGeometry x="370" y="180" width="70" height="70" as="geometry" />
        </mxCell>
        <mxCell id="1T0mvie5sYtiIZOfTLbJ-4" value="&lt;h1 style=&quot;margin-top: 0px;&quot;&gt;mrunalnshah&lt;/h1&gt;&lt;p style=&quot;&quot;&gt;Engineer&lt;/p&gt;" style="text;html=1;whiteSpace=wrap;overflow=hidden;rounded=0;align=center;" vertex="1" parent="1">
          <mxGeometry x="290" y="260" width="230" height="70" as="geometry" />
        </mxCell>
        <mxCell id="1T0mvie5sYtiIZOfTLbJ-5" value="mrunalnshah7@gmail.com" style="rounded=1;whiteSpace=wrap;html=1;" vertex="1" parent="1">
          <mxGeometry x="300" y="340" width="210" height="40" as="geometry" />
        </mxCell>
        <mxCell id="1T0mvie5sYtiIZOfTLbJ-6" value="Linkedin" style="rounded=1;whiteSpace=wrap;html=1;" vertex="1" parent="1">
          <mxGeometry x="300" y="390" width="210" height="40" as="geometry" />
        </mxCell>
        <mxCell id="DCRk9P-P3b1PQC4rJm6a-1" value="" style="shape=image;verticalLabelPosition=bottom;labelBackgroundColor=default;verticalAlign=top;aspect=fixed;imageAspect=0;image=data:image/png,iVBORw0KGgoAAAANSUhEUgAAAn0AAAItCAYAAABM/cw6AAAAAXNSR0IArs4c6QAAAARnQU1BAACxjwv8YQUAAAAJcEhZcwAADsMAAA7DAcdvqGQAAP+lSURBVHhe7P19XFT3nfj9v7r2+k6u+C3ZtMW1XeZKkEmaQGwWTKxQkwyxFmMR0gWxDTdpEDQqRpAmAVoDpA3QpIhJQBu5SeUmDaP+IugaWWuZtAayxsA2Zmgbh9js0K3rtHWdrj5yrqt8+f0xN5w5MwMDgqK8n4/HeSjnfObMmXPzOe/zuTufGhkZGUEIIYQQQlzX/k47QwghhBBCXH8k6BNCCCGEmAUk6BNCCCGEmAUk6BNCCCGEmAUk6BNCCCGEmAUk6BNCCCGEmAUk6BNCCCGEmAUk6BNCCCGEmAUk6BNCCCGEmAUk6BNCCCGEmAUk6BNCCCGEmAU+Je/eFUIIMWFnrWwpvcDbAPNvoqvcwOe8EvyFjtIznHl4EfnRXgug/zfc85NLnj+/mhTOi9/4LADv736P7Pd85wshLp+U9AkhhJi0jMcXcdIn4IP3d5/hB2c1M3EFiz+55PzcK4s4WX4TdJ5hy7/8BYAvr1vEyVf+gQzt54QQl02CPiGEEFNoiB3rR0vrtN7vvMDb828i0136N9/AM0lzePvEX/izJq0QYmpJ0CeEEGKKDLFj/X/ROv8muspv4qvaxe6SPE3J4B/+MKz6SwgxXSToE0IIMUXCyH/FN6gb01krje9BxsMT+IwQYlIk6BPCRz8VCyIIH2uq6td+6Npy1kT2FfgtfVV+9l22Cbs24STY9631rLPipHbpNFPvv0DTZe7X0X23lnZ/beOC1k9FoH1+spLsfX6XXAHOauB7SjXVvUKIaSNBnxCTsTuV8AWV9GnnC6eTlYQviCBlt3YBYC5m8dUI1K603alTFuBO2slKwhekUq+d7w4q0xq0s68gV6ngK4voWvw/JKz/De9rkwghppQEfUJMWgMpV/umPhOdNZEdRDBRn3a5JVjXAHMxT1+1krR+KgIdh5OV/gPyq+Rz3/g8GVyi0dWDVwgxPSToE2IsxkpOfDTIGfVkyhldbi6m/novsZoQO+0lxXS7/9Tuv55K4j1pzRT99PKqQGeEdfu8z4+PBjnxvNGzuPtwtzwYCCFmBAn6hJioe4q9Ar/6n48GLl7tsE6q232pqoJdVZ/eU+CqYnXbNfekrRoN3P5L1T4x2FLJCW6fl7PddJld/zdWcqIpjVD18vlpNLkCv1zTIGeK/DTk8vP9k2p3FtR67LRnq36j+jPB7i8/QlPzyNXOdPHbznGC7f98zwnN8dFW67qq1MOzTfxCU63b/dQSP/vGt12r776bjL/QUfoe9+we8p599hPOAOFflIGYhZhOEvQJMRn3rBi9qX942k9wYKYoTVXitW4FMe6btd8qtwZSfAI2Z0Cy+Cl3FDWqPm2qbsLeJrZ9vuzHuzy/OXejJuBzm59G00eDlNyjXRC4nVn3U0smFIRNbj0NpKg+E78y3v/2B8G+r3Y04Lr9Ntd6nMfTb7XqBNr/9VX5OyeCOz5BOWsi2087wO6nlkw4OPX1WZIfvhHe+y92eFb1Fzp2SWcOIa4ECfqEmJQwItw1eOZBbJqloKnaLIoG+ql336xVVYKjVYFmuo6P3vbt+4oociWPf/4dn+rR7qeKpuYm7zGx7RubkYgw7bxxqNuZ+fv+YNvHXc56VOmbUoMM+Xan+pTcqYOyeINrR5xs8BzPXJO7Kvgdqjy7t4tfjHc8Vb9tdB37XA8gZopKXIHjPcWq+apzsSmNB4u8myi4zy3n71VVz6vOX8++253qU8o8YdF3cvLxG2n9yXvcs/497ll/hh/84z9MbJgXIcSkSNAnxDTxLemKpsQrCHQKvdXglcpJFYAZK/mROwCZn0beOvcNuZE1870+dJkmsn3+2azaEqhg2Wnf6S5ly2G/+vtTqzyBUfdTDeNUM1/OeoxUfWeKi5rUx+6eYk9AOVrKGcptt6vSj0n124yV5HrWEU2JO4gLJnAcizowVZ2/6n2nbs4wpvkGXnzFz3t3cQV+rp67J19ZxMl1E31CEEJMhgR9QkyLYEq6XO2m/FRDcvY0Vvf/PdWDTjFFzhKbIMuhLsMY2zfV1G0BXVXho0J5cKW7OKyBI2OVNF3WegzcNoVBdPzz74x9nMYa1savIQbdv83dRs89eY6RmUFNc7mJsP/ec9ZRn6YuvVziCQb9N2cQQlwLJOgTYlJUN+CJ8Opc4Ntu6qq7zO3TGyZTFXyN89N7N1D1sFcnjmkKpq2/n+b9rmnO0PqT97in1Dpl7819f/d73LP+v2jVLhBCXDYJ+oSYjJNHRgMinxKlALTj17mDBfUQMFfTFGxf6NKE0TaHgYYqcb3NYjo6osxk9n1rvUr13G3y9q9TpwqSdiiccYLNyRhtM6idip3nu6v69uREX7s2ji+vG632ffEb0ptXiKkkQZ8QE6UJjnK/5q/Rki+vnq2Bhitxm38bnpZ0muo053AdgYZQ0VTvqauJxzGh7QtkfjwJnsK+Yhb79EjtpyLO2VHAqyet+nO7j2h+m51fHHYXq+awwk+vX4+pWs+U8/7u/QF6L48tiM5Dl0ndfnPaSwyFEFecBH1CjEXbdmpBBOGuoAW0DeqDN3pDDfTWhGhy/fY2dXfwaCBFNV7faLWquqG9ZqDkCRh/+wIJZU2FagBmn/2nrjI2UlXhbvPm3d4uRTU0iHcv5pxxSlWnaj3Tycppd2eLCb0ZI9Bv04w1qPrEhKmGIvLqHa6q9p9tJbRCXE8k6BNi0nLYP1ZDfQ2vqk/XgLjadnPd1tFiOu/epn7Sr9vnKS1Sr3t0CBFV4/sgTHT7ApqfRlMQVcLxz1d59T4OTW0crepUDYPiGf5E3RN2DFO1nqmlDtjMFMX5a9c3ficM9Tnh7zh7B7PqksHRwZntAGERPsfaGcypegL73c4c8q74vhNCTBUJ+oSYBOfYZq62TcFSvY1ilLOqbzRIUVdJhrKmyfuVXm4+1a/+1m2s5IR6rLbx+FvHmNs3BtfwJH7bq7nao/lrexZTpH1Vm1OuaWI9lqdqPVMpNLXR91iu2+c1nt74w6EEOieMVPVo92koa5o0x99dLewnMPcE9Nox/tzW7Zv4OS+EmFE+NTIyMqKdKYQQQgghri9S0ieEEEIIMQtI0CeEEEIIMQtI0CeEEEIIMQtI0CeEEEIIMQtI0CeEEEIIMQtI0CeEEEIIMQtI0CeEEEIIMQtI0CeEEEIIMQtMeHDmFlOndpYQQgghhJiEzLQk7axpM6mgb8WyB7SzxSxw5Nhbcuyniezbq0P2++wmx19cbUeOvXVFgz6p3hVCCCGEmAUk6BNCCCGEmAUk6BNCCCGEmAUk6BNCCCGEmAUk6BNCCCGEmAUk6BNCCCGEmAUk6BNCCCGEmAUk6BNCCCGEmAUk6BNCCCGEmAUk6BNCCCGEmAUk6BNCCCGEmAWum3fvnnophrUtzv9/9Zmj1Kz6nHeCcwco+MazvA2Q+VNOPPFl7+ViXBN+T+W/17A413VQPJby/X95iaR5mtlXw7/XUGDL8j1XgjR6zl3+b5rwvp0q9v/kmZpLvAuw8O9589uf16bgNz+zsvUUwN+RX7CAhFBtimvXVdvvk/InGkr+m/3a2Rr3fu0fePbBz2hnqwRaT6DjGyi9t/G/d+a5to7/FLrs6/6vdNX8Fzvs6nmB13X+Fx/xyM//DwAp6QZyorQpZi959+4UePvZcjrPaeeKK+nUSzF+Aj6A4/zwGzEUHPyzdsEVFXj7hLi2vfvz/+Khmv/kvHaB60b+UMAA7v+wo8bKQz/7k3ZBUN79+X9N+rPiGmL/T54p8RPwAZz6bx4qsfEb7XwxY1yXQR8c54evv6+dKa6Uf6/xlLoGclUD8yC2T4hrmv0S+y3es0ZLbsZx6r955hd/1c4NzikHXf6CAXGd+Ctdra4SwoAUtkrwP2Ndp0Ef0NJw9YKKWe7UL0cjqq8+c5QT7/Z5psZM9xIJzIWYtNAbea3CwJuaafvC0ST/8V+qwM3+n/xMHfAt/HvNZ/+eFNXid3/+3/5La8b93v/D26cmGTCKmc/+V972BPU6tqvPg4Ibude9SIL/Gev6Dfo4zg+fO0BwlYh/pnNLDIvv9Z60VZB/PviEa1kNp3w+84QnyBxN55xe/Hev1Xho0znXez3JJFvTXm7ht57hq+4/Bj9yHp9zByjwu8/V+3h0/4KrvaB2/6rW4++44Kda9+1nl/v5Xn/HJvBxdAp8Plzf/kRDiZWHVJNPKZHFplquqvqx/yfP+JsvJu3Or43eeN/9L8Uz/zc/Hy2dufdr/+Cn3dXnyan4B/JD3QGhnjs1KcZy55d12lniOnfv1/7e+xwJ/SLfVgX/tlmR/117rsOgbylfjXP9t+dZWse8UQO8z4v3LueHPdr5roDgJX+lUS2s9fnMcX74jSco2BLDQ88eVy+gLdc3YDj1km8653qv/WDhi+FLXf9rYa02kJ33MDXukr8XH+ZzAPMWcKtr8ds//9VooH7uV3R79vFxzvyn+//wZ9sZ1/+WEv5FVxDo7qjjxdmGULv/A3MGb77HxnkctcGh03F++A3/58O1fizHZP9PnvHTPsynbVeUXlUSpPAzV1CoDkRS0icWZAj/vIK7f3AHYn/ibc9FqOPbATtbfIaEAoOfgHA8f6XrX90B5t/x1YWB1i+ueaH/i//H9d93f/5fPg94d357tORPOmvMTNdh0Afxj42WJrXljl169ueDDbSBqwemuxryp6S7E7QcC/D5TBr9VFm+3QPp9a711HsW0PZLVfCoalPmSev5zomUUM5Mn1uVM7r/aGGtqrTMf9D0ZR5076qeM7hjuz//2y+8grjRffhn3v65KyiLe5Cvzvszna+6dmjcM7zpDir97P+FT3jPd1c/u3vw/vlguSd481RN/8vo+RSwLaLqe998xh30Hqf73/z93hnq1H97ldi5J//twFRte1RVfq99zZWlnPpvGlRtyu789mj14bs//29+Y7GNrnfh38sNYqLsl3hkzGMVIPha+H9fXnDt93tHG/Xf+7VQP71/xYw2oev+86S4r3H3A57nM1Jafy24LoM+vvgw2Z77egtNfgMNp8+teskVdKmH3PhHwt2lhQF89Zks3IUXC+8fDSLI/Clb/sn1/y+G+1Zl4h2gZLjT8mW2uIORnl/wtr/A4prxZbaoAiU1d3Xq4i3ege3oPmzhF65Suf88oylt81QHj5YAfvVr9/E5PkfSi5rSQzT7Pyjv0+ou4Yt7hu+7q6bnuc6nuGd40+s8GZX+2Oj3fu4rD44GiWf+oEp1HbH8t+dGn/L1L3Kza/bND4Y6qwiB/e+rG3N/npx0d8mTwtY2d8mQju0TLlkS40lJVw2xYf9/+Q/N8lG+1fPuSR20B2esUkRxvbj5wQVebUdHKWyd9LkjrpTrM+gDFj4xWlr39rPNAUrrfDnbcmmr6nzdqvc/tttXw/9x9A9VteWoP3DGve6eZ3lI3W7M09bMuyrzmuSpxj3K9/0F0D3P8pA68PunZZ7j5SyVe59fuMddjHOVnLmD4f884yoBXEr8V/wdB1f7Or/VvWM49xG/d/8/YsFo8OguIVQHlF5cVcyzyPn/+v88/9/f5r/Uh7P/r/ewIVF/7wkI3aRadyr9HfkFfqrWVFVyPsdkSjlv+nLDv/55qnE9D3Le9rfJeTBTXbdBH3yZDE81Wwtrn/uFZrmbdwN8f225robf2wKXTl5bVKVwmqpS7xJNVRXv4Ef82ROALSX+e+7qYmcw7OkdHPcgX3WXunl14hg/aBd++PTo1PbMnCD7MGe9ZnyGhK+rbxJ/h95PqakIgr8qdf4PO2o+8tNrUofeU+qnPSYTFKD3rvrmv/9f/Y8RKGaoy7nuo/QBP+Nd0i9mius46IPPrSodLWXqOe631OfUS+oAwd2uL0Dp1FRTtz/TTJN9S8RVpw6+/HWCmfcw31e1eVOXaHqqeHt+Qevr7vZ84YTPGw0I235ZM1oC+LX7XCVv7/OiulTPvV8DVDGLqZWS7nvDcE7aUrw/0eCp1sUZpLRKgHC5vKvb/g87arRtqz7D/zPf/f/RjjROnydHdcxGA8gJUpfiXm5gKWYs5+DeVh4q8fdw4d12d3pLlcVkTfIKv1Z8jqTHVO3tfIxWIY7VXmtqqdoLqjotXDfUVdot3/HtuHHuAD8MVJrqaYN3nLYWV5rMZSxU9whuaXF1vFFVsf/7Mc+8rz5zdIxq2HGot93TBtPJWe0/dqeg2eTmf/i/PP/3Gg9uDL/5mW9PX+yXqNEO8SImzOtm62dwXK+hXAK9scNi87wqa8K8xm8T16v5/6AuVdY+XAS4xsWMcp0HfcA/ZQVXaqfuNarqwTn1PsdXv6aqdvaUhqmrma/l4EJdra7quOGevNrZZfKgpyMLMO8+4jXHKv1+5zuS1Z0jnDSfdRntOPFnOp+bYJs+9bb3PMsPPQGru4OHsydy8MO/XMei/m9Vb1z76FO/akw+r+Ec1L11Q2/kNdVArl6fF5Ok7ijj23ua0C9SoC7F89cL16sUVsdX/fWo9ve5EisPud/jyhT0EBYz1s0Phng/XGjOA3WP33vv/oyng5eadxtgzSRv8ph213/Qx+dI+l6gaj5VOzLV0CLe7frOcGaKe9J6VTu3fMenHZq6Z/C1yOv3BbSU7/9LgeZ3qgNivDtIaANCVwkgeHcC8bc/QVNyp+rVqx2cWb3towHrdzwliV69s2c1dZDhemerV+Cg7smprtb9O/IzvsjNXkGIVPNOCa/xEH3b1gXudakReiOv+VTNB+vvyP+a9Ma+fmkeLgJZ+Pc8Kz25Z6RZEPSphtzwY+ET6nH2nL76zFFVe7DpGGvN2blhdDw3N2ebwmu2PZ+Hq/OGajw8L5k/1QyRM8qrRE/dUYPPER7hSeYpAXT6MlvUYyuCZ1969rG608i8h6nRbNtoCWGgY+MaU/EJ9ffOclF6n9d3ge8bHdRVPupx3NTDu/h7V6yYOK9qXj9V585el643b2i5O2kUjA7BMyGhN/JahWqoGHF9itIHPofcPchlGKYZ61MjIyMj2pljaTF1smLZA9rZYhY4cuwtOfbTRPbt1SH7fXaT4y+utiPH3iIzLUk7e9rMjpI+IYQQQohZToI+IYQQQohZQII+IYQQQohZQII+IYQQQohZQII+IYQQQohZQII+IYQQQohZQII+IYQQQohZQII+IYQQQohZQII+IYQQQohZQII+IYQQQohZQII+IYQQQohZQII+IYQQQohZ4FMjIyMj2pljaTF1amcJIYQQQohJyExL0s6aNpMK+q7kBoqZo8XUSUX5c9rZYgqUlH5PrqurQPKz2U2Ov7jarvQ5KNW7QgghhBCzgAR9QgghhBCzgAR9QgghhBCzgAR9QgghhBCzgAR9QgghhBCzgAR9QgghhBCzgAR9QgghhBCzgAR9QgghhBCzgAR9QgghhBCzgAR9QgghhBCzgAR9QgghhBCzwLQFffZ9awlfEOF3unt5Bvm7e7EPaz81Dc6ayF4QQXhVv3bJrOQ8LmtpP6tdIoS4shR6fmgkfEElfdpFAMMOLPvKSImLJHxBBHfEpVK6bwDHZPPNS71U3B84L1Q+NlO7IYnFC5359B1xSWx4eQL59GALiX7ye+cU4De6jbNtM5q9n+ZtGSxf5PqtixJI32bC4tAmBBwDdFRt9KS9e/lGKg4GcUyHB6hdHkH2Prt2CQD23jqy4yIJXxDJ4twGLJe0KYJwvov8hRFUnNQucLLuSfJzXF2T5rjZDpeRsiiC8AXRpGwzYfW3PR+3kLIgleZB7YKJcRwu4I4xzi/HgInSrATuXuDcnuVZZbQP+Ds4Cpbda53n/8IlZAc495XjZdyxsIxuf7/pGjBtQZ9bzDc3kbdZPWUSh4WOqgzue9yEzc9OFUKI653Su52iJpt2totC3wurSXyqgxuSymhqbqR8JbQ/tYqUF/pRtMnHpdCzvZj6Ie18J+VkJYnxa6k+EcLDpY20NTdSnhRCT00G9yXX0RfEFyq2QSzoiPmWNs/fRN7mGEK1H/AYe9tmtCET2Q+mUnrAQdT6GtqaW9mxPpILB4pJjN9Ih/rh+lI/FSmryG8bcqVtpOSBczRvGe+YKvS9UEB1oODo4xYeX9dHQks/Z06/w6tLe3mkpAt/YU1Awzbanyqg46J2gZuCzWqBudGs8Tm2m8iL/vxo0oE6svPM6J88yInuGu56p5jESrPm9yl0N1RiebSQNRFeCyZmyET+050B951yspKUxGLa/xJJ3outtL24iai/mChKXE3FSe9POQ4XkVJ1gYd3mTnx2ibYncHjrVavNAxbaa9pIapoLfE3ei+6Vkx70Lfo21spLFBPZew6+g5t2XqUY2U09AY6XEKIQGyvZxCe787YFbq3RRCebcKnHMBvyYLVfybpSpvoKlka86l4IuudAMdAJxUb3E/lkSxOHL8kxH68hVJVCdW4pUozwaVeqp9uIGDId3I7+butxFd00laURvxSI2u+v4+jFUasuwuoP6X9xNjGDjCtNBc3YA3Loe1XrZSkGolbamRNUSsnmjJhYDvP7Qv02VG2j/uABHKLtHn+VgoLEtBrP+Ay9rbNZA6OvFxG90UjVW92smNdEnFLY0leV8OhA2XEnO/i6Vd6PdeEpbGA+kEDua/udaV1HtP9TxoCH9NhB3270nlktyb4UFHODNKXnseaCB3MCSEqI4eHO/sI/AmNYRsdJTkUHRvr6rVhex9YlkuJz7HdSmHC6NHt66zDGruRwm9FEnqLkZLvZaK0ddCtzkYGTdS2xVK+PhadavaEfNxJ0WPFdAcMVAeo3+o8r5tMNeSuiiVuVQ47TI3khlmp39qAxZPWzpv7OlGyCylZqid0YSYl342ir7FLlQaUX7VSYc/he6mBzuaZb9qDPv90xK1IcD49nPVzQxFCjMn++16YP48QAByc+wNw+23epSlDJrK/uor83V1YzztnOQa7qN+SQOKuAXVKUPqpTnGmtZx1Z/4OrMdbKEpcTXW/6oYwkfVOSD+1iQXUd1k9wax9oIv6LatI2e1nvZesNOdFszirjOYuC/aAmf9Mo9D3Uhn15JC7WrsMQOG9f2nBRiaZ3/S+uei/mUkWNmr/f6PBxLgu9VP9TANk57BGuwzAPojlog5WriBOU3qhMyaTBfQd6/V9oPDiwNpvgTADeudJGZzxtm1GG8TWpwNjAg+GaRZFrCDNCMoesytosGH9XQih0Rmk3eMd5kTdawRs9P1Os4fP9lL72AOkvDBA3DKj9zIVXXgEMW21tA8qziYBrQ0cSIrBoE3oh2PARFFyAvl7IX5ZlHbxKMcgfadA/yW9K88JxM7pDxW4U+8J8nX/Wwd0YfGUVDo48nIl9nV5PDx/9JNBG3Zg2VdMYmIB7RiJX6hN4GK30jeE73l9YywrVgJDfXzgKYkdYtAMcYbRA3nT3FAY6sPqPizDA9Q/10LcEznETDpSvfquUtAHyv84s6yQGzV7z13asDza015grDaA3iUD0SzfUEnHh+Nkh8MOeqoSCF8QSfbr3k+YtmOVbHB9t6cNTW8l4QtUbR1c7QQrem0c2ZbK3QsiuCNuI82e71WwHatjQ+IS7lBvl7bE5KRmvSp9VZoSC/d3ngT78TrPNoYvSgjQ7kbBenD0t9ydUkb7ePtFXCPs2AYh6gufcf3tzLD0N2mupc/eRtSSNMpNZn57epAzHw3y6+YcDIB1p4ke1engONZM7aCO+NKDnPiNM+2Z0wP8sj4TA1Zqu1RB1wTWO1Gh3ypjf/eA8/s/GuS3R2pIDgPrziOa0juFnu05lB5WiPpWGfu7+z3bcuajYmK80s4sysntPL1bIfdHW1lxs3YpwCB9xxSIjcSgvbnooog0gnIs2JIchb6XiqhXcqjausL/DTs0gR09A5wpitYumYAhrH1AjCFgiZ6vILZtRosm92g/Z5rSxqi6dtOTXNvJif2ZPsGY44/Oe5D+8+o9YKe9JIPq4/NY82IXTeu1n1K5JZOf7I6hKzOa8NseIP+dWF6rSAhif/ZTm1hM+8eRFO7fS3nCGL9iyEofEHOLNroN4NM3aGbMQ+c+lwdaqO40Urg+enKlfP11JD5lwnrnVvbvLyPhc9oELp/VY5gLfHha88DiwDYEoGee5vrT+Wx3iGe7HV311CpbKfzmGPvpGnBVgj7lYzMVz7VAxCaylqlOzfNdFMWvIr/tHHd9p5y25lbaXizj4S842wA+onnat+1by+LEAppto/X1BmsD+SmrqfdTMODkbCuTvttGfGknu77lzqIU+l5OYnluAz1fSKOqvpVdWxfxQfkqUp4xa9bh1P1MDk9/HM+zzY2Ur17Bogidcz1VSdyfW4fNkEZ5vasdga2F/MTVFB2+vGoM6ytruW9LL/r1NbQ111Byn47umgzuK1S34VDoq0li+ZYGrIZN7GhuZcc/K7SkpFP768u4I4urrJ+KBRGEL1hC/jGwlCe4HoxSqQdsL6zyblR9YzSF9ZVk3aNHN8c5K2TpVkrSgYs2bK5SOgBFcQDziImJJNSdE8/RoY81sghNQDmB9QJwtp92dbXxogTSCxvo8Sk6iia3IpOYW0a/S3d7EmlfB27Wed8gPjZR3WTDsK6N/RWZxNwS4tmWGU3pp7a4AVt6GYWxAW55yjnsQ3iVlowKRb/AeRO2BVFJovTX8fRuG1nPbvUpxQvKqR6OADptKbKWw4Z1CEJvPke3p9o/ksVpBdT3+hxomIptm8nO92I2A8YIP8fQZVjBdnw7j5V0oYssJu0+7/Phhtu30tbTRdWqgGvwCI3dRFPPAGc+6uforhyigtyfod+q5NDb+8iLDkEb7qg5fm/FRig3nTePFrIsXEKKz3Ucym236+DUaU/TBWcBTzTOQjQHHTu3oxTkkez3gScIc0JZ8/xBTvxsEzEhY2z1nGiSN0ehM5fx9B5XE5FhB5a2Ip45DIbNycR5dnkYEUbo/u3oo9SFi/bRkuvhAZqrOol/MpOoayGfGcO0B331ae52NqPTHfFrab55E/tNW72KSW3mI7yHnsLX9lGV7mwfEbcqk/JX91KyUPO0f76TiqfMKMZKjnaM1tfv6mgkCwsVOzv9NGRVsO7ZyCO7bcQ8uY9djxpGbyQfm3iuxsK87FZONBezZlks8anF7H+zEv1Z/8/UViWJ117dRPJSI2sKkoiaA8rxSh7ZbXXejHZsZc0yVzuCjk5Koq20P72dI9qb4gR0vwPlHe52N0nk7mjlRytB6TxCj/sHf2ziuZet6LNbObQrh+SlscSnV3LozTRsbb2aNYrZKYSbVDeGUGMayXNtVD+SSsXBAeyKgmPQTPV3NtI+10jhNyPVHx6D93qdJRapFKmrjc9b6XmjkvRH6rD4lFCruG6K1e064p9IQl35ZH/XTB9JFG6cZGnBVaHQt7OI2rOZ7Co2Bt7u8+ecN0yfUgenGz4N4ODCeL0HlX5qn6rDlr6TEmPAbwts2EZ7zXZsGMhLGqcUcNDCEcC+p5L6szHkvdhK0/M5xF3qoiL9AbK1bQIvd9tmNIWeuu0cQUdy6gq/wbJ1TxLht0Vyf1Ydfbds4jVTjiaYCCW5aBNxk6n+DFo0uRVpRI1fJIj1d12AneaqBs5Fb2JXcyNV2bEo/1pJ+oNraVd1wolJ2oSht5G6g1YcrgIe3aNpxIeAcrKO6reSKMkINj/xIzqHqtRIQoIIvqLWdXK0OoEPyldx920RhN8WTeK2PuJ/0MWhAnXeEcpDqUno2qupPWnHfqqFih9biFnvzHfsb1RTrdtK3sogdtYMN+1Bn2/v3RyS7wlFd7KORzKLOaI6WfTfrOHoe2bytHX0cwwsigUujpZS2c0dHEFH7sY09OqDf6OR5PQQQn9v4T2vqO8TbPs2kljei2FzG69tiPTKdC2HG+kjipxvaxqWhqVRuC7Ak9bXYzQXqoPufS0oZFLidUI5f0PW5ky42InJ7P/JNygPZ/KwVwl7CDFLY71uAlbz3gC/JZnMdPUMcW2JpuSjQc78ppEsINfkqs48WkaU+u+xquku9WI+ALqkFcSp86+bE9jx5k7W3DJA/ZZVLL4zkruXr6X5hk20HW0kebybT6D1AjfcnkOVqir4zG/MND1qgME6jrzvnRbstGe7HhBvi+T+rC7u+nEXTZqG0zarGcL08H4D+Z7hGCJZnBag48lMMNDA0y/bSP7R1ivS88/SVETt2SR2bB0jwAxk2EHPCzkUmcHwZA1549yj7ecc6G/WEf98F4d2uB40U7eyw9RGboRC91MFNH88mv6ytm2Gs72+kewmG7qkGp4NECToonKcPX2Lkoj6uI6U+zbSMWN7L9s59xc9IXPVHVaMrCmoYf+rORgumina0jLaKSlyE681GTldmcTd8QV8sKSGo9+PRYedAzsb0G3MZcXNoHxoojQl2nPdqmOBqWJ7YyOJhZ0oS3Ooqm+lrb6S3KUKHdtWk/+G94NIyMoqDhXp6Vi/hMWP1MHmfbz6LT0o/dS/1EtygbOUb3R4nGiWb5jk8DhX0bQHfb69d4vZYXqHE2056AdMbHjGT49DxYF9sJ+e450011SSn5XAY7u9k9h+ZwZiifDTxCCmqJ8Th4qJV19vx8rIfsqMgp54o3fAB3asfTYglrv8dB/XR/i/iUbptc9wg1iO4b8tDqC7I5J4oPt3kz+79V+c55NJ3vBpHTCI/S+MNqgmFsOtmoTouOvuwA2CxTViyMZ7xBLhCsScQ2UYibpFm1BLoWd7Gc0YKf+unzY/n40g+suq0m/AYbFg/ct4QdRY6w0luaiYNaqqYHR64r9hBBSUsUr6wNmzdEMSG7wyaDunPwSG6tiQVUnHcVXHj5POjie1AZt3XCXDA9Ru2Y5tjEBgSg3Ukf+CjeQflQdoNziGYTvdP1xN+m4rhnX7OLRhnIgPCE0o4+h7Az7BOTdGU/i9TKCfrl7XMbycbZvRFKx71rK8xAzLKjlarb0WRunvUfX03V9MzPku8tWB04wSyoofdPHrU42s0dxvdfe4mnX0d9Gjuq2FGovZ76pu3v+DJPRzQDleR+m7mZQ8GunsOJZTTM+Xa/jle138KKqXDY9tD2pooKAN1JFd2IWyrJJDrzpr7+KWpVHy6lu0Zd/EkcIcTT6hw5Bew9H3Bjlz6h2a1kUTMgds+56jPrSYvIQQOGvi6fQ6WL+PEz1tZP5tOylbOn1jmBls2oO+QEJic8gxAuZOfuE+WYbt9Lycwd13RrN4eSrpWQVU7O1FuSWDNSs1K5ioQSusTiN+rpXap3zHnfpkjJtPyLx52lkAzJt7k3YWykVAx5jtIy6HIVQbaLrZcFwCULjgukffEETxt7h2eAY8X16GhV6K7nc1l8huAczkfyVijIG3FfpqVpPdpCP31Z0+mTeX+qlITqDodRvxPzjIr3/zDm0FsYSc76JU23vXyzjrxdkLsb5QNXjtggjC0xq0qVxCWdM02pHkREclayIcfjJogBDiCho5+m+ujh+n+zn0fBoGrFT/TDsu2NVl2V1A9VkjPyoKHAh43DzP2Q7sb59olwDwyd/w2wjdwx1gLqviexMNMIdttG/5Otl7bERtbmX/k5dffa4zRBIH9Pz+T5e3bTPZsIOemtUklpvRrazk6E80NVBjuT2N3CSg30yP32t3JtNhiIoFehkca9vd49t9N4P4G0Hp7aB+KInCAiP6m/XEr19L/GAdHVM4hJvlrb1Y0ZNXoDkWc0KI+/ZaorBS2zXOYOCXzDRUDZC1OQ3DHLB2tdIdtonCRyMJnR9J1vpMONbAm4HGUJyBrlrQ52zwidfJYtmdQXpNL/MereFoj7M33m97Otn1gzRiA2VwwVpZw2sVlfzoWSO6wTqebvK+g4wVILl7GgdDNxdQwH92HSyFC5MefkLHTa68dKxAVswiw3a6y5NIeVkhq20vJZohIwAsewqoH4T4ik52pUcSogslbnMrv6rPRIeV2j1m3zayQayXIRPZyzOoeKPXM7xL0OboCF2YRlVdMVFY6RtwP0+7zvGFWynfbMTg7nkyJ4So1I3kxAJ/OOe7vVdNPx0vWOGimfw47/bNKbsBGkhZEDHaW183j9Aw4CObnxIEO7aPgLBQ5vnZ3QD0d1A9CMqxAhZ7tad2dvhhd6p3hx+3SwPUfjuBosMK8aWd7C+IDardlMelAPmkonABnL0gJ7ttM9mwjSMlq0l/2YL+0UZ+/uIEAj4AQpg3XvOJGUAJUI3p7ASmG7MjlaOrjooPMyn8lrMXsuNPNmAe89xx//zbMAC2P03dVatcsAERhH5WuwSIuIs456k5JsueSppvLybH1e7U8UcLGELxFAOFRRCHhaGJ5m1X0VUM+lxVNJ5qqQG6f2YFcij/fhKG+ereeK6BIVX0BqMzYPRTU2p7PcPZHkkdfYfpCZ0DoUnFlESD9YVnVMtDMcTogV4+8BOxW0/5773rK4KoZUBvr99X8Ci/HaAbiP+Sd3GIb1Dp+3uDF4IhOgroou932mVgs0pHjmtVaGojZz4a5MTzRiCH/a5hTfavA4yVnPhokDMfNbJGfQPxlNxArqmTklh/pSt2PnjXBiSRttK7ei5kmXOcNrSDvQa1XrAc3En3RedQML/2DKkyyBlTjjZpYDeG4F2mHoL+S3o41YvFJ7NVUP5HO+9qiyCtudU5GoFmKlkJkEBJcyttzatdw3lEELNMB+YBPtBmDYqFATPolo0xDlvEap/vcU7FrABYWez8+59VbVku9VOdlkr1SR0rnu+iSd3JbVwOjuRHEH7XRr+lzI6BXizAmujIyW3bTDZso2NLEhv2ukpGv28k1F/wY++iNHEJd2zzVwLtvheOUXp7NTm6yF8QwR15fppi4cDyrgVIIyZQK4DhAZprOokr3aTqLTv9Qr4Q5Wz25LvRMHQai/tBJJDzXdTvVMgtTgvcA/sadNWCPuVkAw1mINpITCjA/yLkZgCHT/RtP1hHxSmcJWCuZaHLklmBQvMrmle5DVvp3tuLQ4lhkU+bNleHih9sxUA/pc+NfjZq5VpisNDwM82gp0MmqncH29IihPjUTHR0Ur1T81qdYSvNL7cACSQbXVW0N4cRBXSf8o40lZN7afE3OnuQDAkZxGOjtkazb4ZM1Lb5Zjni2nLOPghz3bmVc8w+vy5ZaX48gaK39OSZOv2XxIGzpOEfAfo5cngAu/sUGVawHeugG0A92GvQ63U/bc/DcEuYs9RoWMF20kTFSyZtUl/DCo6Pe6neWkYP0RjvHW3aELV0NXq6qK3qHH2vp2Kjp6aIilMQsyzWb6/JqyMEw9JY52gEmmlRGICeRUtjiVtqcFX96lj0jUz0tNCiaWxufb2WZvTk/fMYbzK42eDzPc5pkfPmFbbI+fft7kBdobsyndoBiH++k13adnnjCiFuWQJgpuGnmnzvUi+1L3RBWA7JsbpJbNvMZm0tIP+wwzlaw1glo6GxxNxqR2lr4YCmoELpbaDODPp16iFEZpCQWOJXAuZG6jWvLlN666g+PPa2Ow7XUq3kkLdq9IoM+bweOMc5d+HI2dNYfcYqvDwG42pisFH7kvZ1rwp9rY30YCAvwX97fQBLayUd924kV5W/hXwhCqx2zrlnDA3SQxRhMzFYD2Dag773frad6hrvqTR3CXenNWCdG03585muKNrAQ5lGwMSG71TSfqyXnmMmqvOTuK9k0DVauI1z7if7m5Moed4Ix4pJfMyV/mAD+clJlPYbyN2u7QKvEpnDj9bpwVxGaafrMeCWNL632YCtKYPFWc71de+rJD25mJ7A2asP3dJiXltnwLo7nZT87V7bVdEfworq4tHxiSJWkGkEW00qKT800X3cTHtNASmPmdGPNTr6eOanUa7ZN5P5LWJmUi7Y4N4wz9PnJ8N+3sYB2A9XUnpMgYsWatPcr1ZTTZ7XtumI//ZWDNjoKFnF4jtdy2+L5P7cFqwYyHvU6GmLFvx6wRCdhg4b9dmuwcRvi+T+tGLq+xXfM9E1WLlnui2Su+MzqD2pY0V1DVnqjioL0yhcpsO6t4Dld7nS32kk/eV+iNx6Tb8mCVcD+R3rDHSXJIzmDT9MJbG8H8O6GnK1Ixxcjg9bqGhTgEhCbHt98uvqmu1Ut/WPWV0esrKYqmU6V77XQMdxV55zXwb156PI2+49PNd1wdFFw4/7AT16pZta7T6r2U51TZerc0YIyUWVxM81U/RQEvm7O+k5bqa9KoPF6Q2ci9zEjicuv/3k9HBvu5X6x1ZPbNuVfmpf6GLFk5u8jr8uNpncsE6qa8zYztvofqWR7ohNzgeDqXJLJjvc98G0AuoPOmOKiqwlpOy2EbW5itxApZNnTVTXQGGB98DbhoQM4ofqqN4zgP3sAM2vtMCyHB66RgqmuRJBX98bddS+7D21W+YRv66S/Uf3kaXaWaGpOzn6fCZRQy0U5WaQ/lQj1vk57H+7kx3pMUAvA9bRJw19aiMnDlXyMGYqcjNI31KHRZ/JjiNjlz6Ajpgnysiaq9D9TIVr3DwdMQWdHH0xh7g/mijKzWDD9vcwFB9k//diIehoXkdMUSdHX8xEbzVRmptBekkDVn0mOw69xS6v1yqFsqa2ix3rYrG1F5OdtZHq3pvI3N/Jj8YaHT0I+tRGftVWTPxF52/JrjQT8p1WXvterDapuKY4OOdVheZ8G8eY1RTBiNzE0Z5WSr4ZTehc17ybDcR9s5i2ni4Koyf3BSEJZRx6PpOY+c7P6+ZHsaKgkaPtZcRpE2vo5kexIr2Mtp5+zXWDs1fwT96irSABg+u61M2PJrmolV91eN9grk06Yp7cy/4fJMDhMrKz1lJ6GNY8f3BKOleo2d/vdVXd99Ohyas907HTfqolVeboWfOTdzj0YiZ6Sx35WRlkl3fwibGYtqOdFI6ZH1+jPuyj/SKAje49fvbZy3XUvtw3WiUalkbTL/ZR/nAIllcKSM9aS2nnJ8QXtfKrjq3EXIFhfCYtLI2mtw+yIz1sQttuP1hLvb/x7XTRlLTUEPd+AfcvSuDpoSTaXpv6BwN9aiO/ai4mfu4AtVsySM8t48AnRkqa39KM06em0PfTnfQkFZOlfbian8aO/VvhlVQWx6XTMb+MQy8m+Txwz2SfGhkZGdHOHEuLqZPMtCTt7OuadU8Sy8tD2fFvjSRfS0d3irWYOqkof047W0yBktLvzbrraiaYjfmZGCXHX1xtV/ocnPaSvmuF/Y213L08w/f1bcMDHGm1qNoeCiGEEEJceyTocwmNTWbR2V4qMjMobeuk53gv3fu2k5+cSvWg4brrwSOEEEKI2UWCPrf5STQdbaXECD3bC0jPyiC73ITtS86XXo/dRlAIIYQQYmaToE9tfiy51a3O17B85HwVy/7qnGl+6bUQQgghxPSToE8IIYQQYhaQoE8IIYQQYhaQoE8IIYQQYhaQoE8IIYQQYhaQoE8IIYQQYhaQoE8IIYQQYhaQoE8IIYQQYhaQoE8IIYQQYhaQoE8IIYQQYhb41MjIyIh25lhaTJ3aWUIIIYQQYhIy05K0s6bNpIK+K7mBYuZoMXXS3NSunS2mQFb2GrmurgLJz2Y3Of7iarvS56BU7wohhBBCzAIS9AkhhBBCzAIS9AkhhBBCzAIS9AkhhBBCzAIS9AkhhBBCzAIS9AkhhBBCzAIS9AkhhBBCzAIS9AkhhBBCzAIS9AkhhBBCzAIS9AkhhBBCzAIS9AkhhBBCzAJXJOhThnpp3raRxLhIwhdEEL4gmuUbymg+btcmvfad7aW6rV8719dZE9kLIgivCiLtyUrCF0SQve863F9CzCbDDiwHK9mwPNqZFy5KYENVJ9ZL2oTAsJ2el0fzzTviktjwci/2YW1CX/Z9a1157RjTWHnP+S7yF0ZQcVK7YGz243XB/TaceWXthgTu9twT6ug5q010DbD307wtg+WLXPt1UQLp20xYHNqEgGOAjqqNnrR3L99IxcEBHP6O6QTWa++tIzsukvAFkSzObcASaJ+PZYLH3Pb6WsIXrKXdzzGzHS4jZZHzuKZsM/k/Bz5uIWVBKs2D2gXjsx9vID9tCXcsiCB84RJSChuCOncchwu4Y0ElfdoFAChYdq9l8ULnOrMDXGvK8TLuWFhGt7/fdA2Y5qBPwbIrlbvvz6DimMKiTVW0NbfS9uImos51UJq1hOVV/Sjaj12z+qmIy6DWpp0vhBAKfS+sJnFLC+ceKKapuZUd3wmlZ3cBibktWNU3mGEb7Y8/QHpNLzclldHU3Eh5Ugg9NRnc97gJm5+bkZruViN5mzf5nZIjnWkMn/2M9mNOwzbanyqg46J2wVgU+qoSWJy1ne6b06iqb6Wp2IhjbwHLkyvp094gh0xkL8+g1hZJ3ovOe4LBup305WtpH9KkncmGTGQ/mErpAQdR62toa25lx/pILhwoJjF+Ix3qQORSPxUpq8hvG3KlbaTkgXM0b1lFygua++BE1vtxC4+v6yOhpZ8zp9/h1aW9PFLShZ/YMLCJHvMhE6UlZu1cp4E6svPM6J88yInuGu56p5jESrPmPq/Q3VCJ5dFC1kR4LRiXbd9a7suqpPuGZMrrW2mryGHe+5XjnztDJvKf7gwYbzgOF5FSdYGHd5k58dom2J3B461W70TDVtprWogqWkv8jd6LrhXTGvRZ29aS8kI/+nWtnPhVI+XpScQtjSVuVQ47TG/Rts6AdXc6G/ZJlDSme4o589EgTamh2iVilrK9nkF4vjtjV+jeFkF4tomxyoJt+9Y6n4wXjP80PzVp7bRn+ylhUk9e29xPhXa533TXJsVcySO7bcQ/38X+76cRvzSW5M2tHKowovSWUX149Dbt6NpO0TGF+IpO2orSiF9qZE2RK+2xYqq7xr6lh9yTSWHBVt8pKRTbAOiWVdK01qD9GAzb6CjJoehYoFtjAAMNPL3bim5ZJUd/VsyaZbHEpxbT1lFJ/NkGTRBip/2ZYrpvzqHJVEPuKuc9YVdHK7k3mymq6pxYwHLVODjychndF41UvdnJjnXO+1vyuhoOHSgj5nwXT7/S6wkyLI0F1A8ayH11ryutkTXf38f+Jw1YdxdQf2py61XODNKXnseaCB3MCSEqI4eHO/vQhCuBTfSYD9ucx08736Wvsw5r7EYKvxVJ6C1GSr6XidLWQbf6oA6aqG2LpXx9LDrV7HGd76TiKTMsq+TQq87zLG5VDrtMO0lmjHPn406KHiumO2BQa+fNfZ0o2YWULNUTujCTku9G0dfYhUWVSvlVKxX2HL6XqlfNvbZMX9B31kTFtl4UYyVNT8YSMkezfE4IcQVV5IYpdJc30hPk+SaEAPvve2H+PEIAcHDuD8DttxHwsWDIRGm5GeYGkcVOV9pZzc6B5haU6GLKNTcM/TczyQJ6LIOeG7n1d12AkQSjJq0xgXig4/1J1IkNW2l+qoy+uUZ+9IM09Jo82TFgoig5gfy9EL8synvhOPq66rASReGTmvWGpVG4UY/SaeJNd+nUx0cwmSFq7Wri1KUlN8aStjYKDjdz4GPV/BlrEFufDowJPBimWRSxgjQjKHvMrqDBhvV3IYRGZ5B2j/e1EnWvEbDR9zv3Y81E1gu68Ahi2mppH1SczQdaGziQFIOfkN7HZI657Y0ySs1GcrNjtYsAO6c/VOBOPe4zV/e/dUAXFs8p6+DIy5XY1+Xx8PzRTwZD+a0VW0QIa9KTvc+zm2OIvRc4bPEOdocdWPYVk5hYQDtG4heqF6oNMWiGOMPoDr9pbigM9WF1H5bhAeqfayHuiRxiruHsbtqCPmtXK91AVpbm4Kjpokn+dhSG6AvY3RmCq62bv/ZrznYqqjYErrQVvTaObEvl7gUR3BG3keYPFVc7uLW0fzhAfa6z7v/ulEq6PQfQTs/uAlLc7QwDtD/pq3KWMtgcA7RvS3XW9y+IZHFaGe0DqmeKk5WEL0ilHmB3KuEBfsOk+LTpc5WgVPUH3y4myN8rrgV2bIMQ9QV39Zwzw9LfFCAnGrbRXl5G9/wcygv8ZdQqU5o2lDVNg5z5yM90aCsGIH5lvE+gGv/8O77pm9J80l1THH30miEqKdZzM/TQGSn/aJBfF0V7Sj30+ligl0FtdZXdjhX1sQ+eo6uOin6I+W4xyT43235qE4tp/ziSwv17KU+YyN62c/qUAsSy6HbtMoj6pwTAzMBvnSGtw9JHHxB3u29YYoiKBfrp89dwbcaJJvdof5Dnpp7k2k5O7M/0CcYcf3TWdOk/73yEm9h6gVsy+cnuGLoyowm/7QHy34nltYoE1wPhWCZxzF0PeXEVZWTeESC/Afj0DZoZ89C5kw+0UN1ppHD96PkeLF3sVg4d7afcqPnksB27FVgY5v27++tIfMqE9c6t7N9fRsLn1At96Xy2O8Sz3Y6uemqVrRR+M4j9NINNU9Bnx3LcAhiJiRr7sEZt6ORocw3Jt2iXBK/7mRye/jieZ5sbKV+9gkUR7u8cpGFTOh2hm9jVXENeQiyLQp1tK6qTHyC9yswNSWXOtjXrI7G1BWh/8ucuSlNSafnrCr63q5Wm5zO5bbCFosTV1A640kSspq25mBUAK4tpa24lb8n4l91l+bCW7OUb6b1lLTuaW9lRZER3fDvpyws4cl6VbqK/V8xQ7urPJeQfA0t5gqv60/mwYXthlfNvTQN92xtllB7Tk/f8Vh4c55ScrrTeHBzZXYd1biY5qy4jAz3bT3uVqoPYogTSCxvomaJnrSk1ZPUEOvZeVSP0RQl+O2eELktjzc0K9cVldA+5yv/OmqkorsM210hugjZ0GIfST21VJ0pYDt/7lv/Phn6rkkNv7yMvOgTtrW8q2P7kDOTO2QeBWCJ8ol9gfgRxQN/H2mj3GnO+F7MZMEb4Bvluwwq249t5rKQLXWQxafeNfa+EwOsNjd1EU88AZz7q5+iuHKKCbG82sWNup6O8jO7byyhZrQ+QPpTbbtfBqdO4G20p/6MA0TgL0Rx07NyOUpBH8s3en5wsxT5Ae0kB1UMhrNmY7B1UzwllzfMHOfGzTcSE+N9ipzAijND929FywgsX7RBmQB/iLOVrruok/slMogIVYl0jpinoG8JyDMCA/jLy9GBZlSRee3UTyUuNrClIUh0UG9YvlfNaRSbxS5PIXWckBLDsKaJ2YB65be+42su42ku8WUn8YAOPvDDaXgKAU2Zsy9rYvyOH5KWutio/3YoeK6a3XFHfzQbili5yXohhi4hbGktMWBAX8eUw90Kpu82P8ze8VpEAFzs50jv6pDzh3yuuH0MmSp8yE1VaR2H0OOfjdKXVGmihulMhpmgtcRP86Cg77SWpFO3uwnLWdfaet9LzRiXpj9RhGaejwxV3yYENsDat5b70vShfK6GpuZGq1aHOzhnfbsCivghvTqDq5/vIu7mF7PtdQW3cWupvzKTtaKOfkrqxOf61nvohiA9YNRVNbkUaURMK3t1C0S8AsHLaTy2D9cNer78df7QAOvi012ynT4MOsF24lnMkhZ667RxBR3LqCr+lddY9SYTfFsn9WXX03bKJ10w5QQQT4693YiZ2zO1vFPH0sUjKn8/EMMa2xiRtwtDbSN1BK46PzVQ814Lu0TTiQ0A5WUf1W0mUZLh6E10OxUzpggju+MoqivZeILm6k6oEzY+JzqEqNdK3eZmPUB5KTULXXk3tSTv2Uy1U/NhCzPokogD7G9VU67aStzLInTWDTVPQd4V9PSbgBRO3NNq7uHe4n46dVjBuJDdWk/uFJZOZDsqeLk0bwygyV2uKoiNjWHHVM6c0Mld5P0eGRBuJAxyXXNs1qd8rZqZoSj4a5MxvGskCck2uqs+jZUSp/y6KdiZ3N7g2VrIjw3/pjsd0pfUxWspXGKAxdPdTS1wlmNEsT95Ixb5+n5IwgBtuz6HKZOa3p12/+zdmmh41wGAdR97Xpp4Zuo8NkWXqZJe7IX9RK4eeN8LJSp5Rd2i71E91Zjq1v4kiucjVe7MoiajfNJCds32CpfM2Dvy0Cy63ZHUMi4yZ6DDT8FNNL9RLvZga1U3hr3+21zeS3WRDl1TDswGCBF1Uzugx/biOlPs20jFO4WYw650257t47hkz+iefJWu83raRm3itycjpyiTuji/ggyU1HP1+LDrsHNjZgG5jLituBuVDE6Up0Z7mUkfG+f0+lHkY61tpq68kd6lCR2ECiTWTHw0kZGUVh4r0dKxfwuJH6mDzPl79lh6Ufupf6iW5wFnKNzo8TjTLN0xyeJyraNqCPt1c7ZzpEzVGcaJh/jzvGfbTWC8CNzo4fbyXHq+pD9twKNCHzesEjGCe9ivmuIqKz57z31voSggLZZ72qd31pGy1u+q4JvV7xYw2ZOM9YolwlfYotkEsGInSNJGw7S2j6F0jVc/6NtrXmq60PtylfN/NCKKUz4H1VBf1T6X6GaYklOSiYtbco0fn3gadnvhvGAEFxU+QOCOs3ESepiG//puF5IVBn8nsaoTu4EhJOrUDelVPT1fp/KEy4gbqJjYkx0AnDf2gS08OYp9Pjm5pMa+tM2DdncrirEraj/XSva+S9Psy6P6SkeC6CFzrFKx71rK8xNm79Gh14HZ1+ntUx3R/MTHnu8jf0uKpEvUW/Hqnh4Mj5QV0zN/KjnXBldCFGovZ76pu3v+DJPRzQDleR+m7mZQ8GglKP9U5xfR8uYZfvtfFj6J62fDYdvomErGFRBK/LJa4ZWmUvPoWTelgeTmdiuMTWYmaDkN6DUffG+TMqXdoWhdNyByw7XuO+tBi8hJC4KyJp9PrYP0+TvS0kfm37aRs6bymRhaYpqAvgqhlAFZsV2BvzJt7k3aWh7PnkMrQoLOr+eFK0rMyfKbS1+2AhSF1mzjmMS/QVea4MOkni8tmCEUT0np4SiAn9XvFTOQZcHd5GRZ6KbrfOZzJHdktgJn8r0SMdnQabCG/pJf40jLWaHsAak1XWh+jpXx5q/2VELpKMt3T6QFOHK0hKwL/w5Sc7aW+UDV47YIIwtMavNPMNGF63xv2nFBCDcCpIWcg5+jlSKcCSVt9AkRuSXOWzneaRjuljcPy1l5s6Mj6mqsEeFroiHlyL4eez8RgbaEoN4P8V2zEvvgOR0sTuAnAFZyHfCEKUOBvmlUA/A2USXZUuaqGHfTUrCax3IxuZSVHfzKBB6Lb08hNAvrNvp3wLme9U8RxuJT8Tj15zwdTBR2Ae3y772YQfyMovR3UDyVRWGBEf7Oe+PVriR+so6N3knfTOSHEf3sTehSaj7sb2k+BS2YaqgbI2pyGYY6rg2rYJgofjSR0fiRZ6zPhWANvTqIz/dUyTUFfCFH3RgNm+rwaqvhSzGUsTtxI6TH/zzhqFy4GmcuNxdVQWP/kQd8egqqp5B7tB69Rs+33CgDs/Wb6UOh+yug13t3ip5wDqtanOf/O3meftrQ+XKV8ho1pwQ1sOkdHaEQS5c/mgLrJAs42hdnLM6h4oxfrtfDA4roOg3LpgjP48wzJo6bjrruNAHwSVGmmjQ+O22BuJiumM+bDeeONSi1zlfAM8uujO8lbGopiHaAHPTFfclaXzAuNcPZM1gY4AGcH6QEMoYEeZ2egYRtHSlaT/rIF/aON/PzFiQZmIczz10bzstc7FVzj12GlNsX9Ri31NW+mKE71sBmAo6uOig8zKXR1InL8yeZdmDL/Ngyqzj6T8tlQn57Rl8uyp5Lm24vJcfUWdvzR4l3YEhZB3DVWaDJNQR/oV2axAmhu7hhj9HgH3QdM2AcGCJ3n3b7n3MULXn+Dgs06BW1DQuc5T653P/BTJKvQvS2SxYllHPFdeG2abb/3Ohaa2siZjwY58bwRyGG/K2Dfvw4wVnLio0HOfNTIGn83kKvOXcqXROG3gqsicnPeIEZLigAsB3fSfVFHfOlBfu1u0/fRIGdMzgBxxgm7i9gwoPcD30Fzh4cYfFfVI/Pmec5/h2x+q3BP/9YZYN8QTADgGKC3F1gWM2bj+8tlP1zA4oVJfl6ppfDeWyaYm0Dcl5xzQqJiiAF6LD57AqulF4gmJtjeBVfbsI2OLUls2GsjanMr+79vJNTffrZ3UZq4hDu2ad9MgXPImw8B9Mxz92gNdr3TLoS4za3ON2lpph3ZUUAUuS+20tacR1yg3rjDAzTXdBJXuumymxdYmlJZvsjfeeas1eqZylLi813U71TILU4L3AP7GjRtQR83J5H3pAHMxWS/0Ov33YK21wvI71TQJRWT5R400ZXhWd4d8M7whjpoOaCeMUm6WJLX6cG8k/rjmiz1VAMVbQr2W2OI07bhm4i/faKdc/Vcid8rrqhz9kHVYMjOMfu03AGidnIGjKOdPppSQ6ctrRdXKZ9+nbMRd1AUO9ZjziEtmJtEmnF0ncoFZ0mB4ZYwZ8+8YQXbSRMVL5m8VjFzRLJibTScqqRC8wYi2xu1NF9U9cjUxZLwqA4O11F7UhMiDJloaAddUhrxwVyzgxaOAFHREX5KDadO6K0GbrhooeVfvavWlFMNVO9RiPnuamLcQcstzgGGLY176VE3gr9kpuXHFliZxcOXMYTXlWRtLSD/sAPDujb2F/h5CYFbaCwxt9pR2lo4oGk/rfQ2UGcG/brRNpdBr3fa6dBHxzrfpKWd7ggFQom4N5a4pdHoAwR0jsO1VCs55Kk6EYV8Xg+c45z7lnT2NFavsQr9i7o3HuW8hYafaUacGLbRvrMBBSOZEx3OKABLayUd924kV9XEIuQLUWC1c849Y2iQHqIICzZPmwGmL+gDota10vSoAevuDBbft5bStk56jvfSvW87+SnR3F9ihnu2sl89kKQ7SDlcQMqGBjqO99LRVkZ6chkscd5YLo+OmCdqyI2wUZ/1AOlVJrqP99Kxu4DER7ZjnWukqihpkhnkZwhbCLQ3UHuslz73+FpjebeZ6prt/qeu8au8xzedv1dcDcoFG9wb5nn6/GR4nLdxXHWuUj4SKBxrqAbXIOSe6c4lLM+to48o8l6t8goWDdFp6LBRnx3tTHtbJPenFVPfr0x4wNcrxZBRQ9Uy6H4qyXUdmmmvyiDxKTMsK6PQM9yEjrgn28iNsFL/2ANkq6/Zh4rp/l8J/Oi7wTXmd/zRhgIsumWayyoic9ixzoD1hXSvPCblke1Ylml7eYey5tlK4s83kJ68kfqDvfQcbGBD8lqauYbyI0cXDT/uB/TolW5qtfl3zXaqa7pcnTNCSC6qJH6umaKHksjf3UmP6/gvTm/gXOQmdjzhGiFiQuud4ZR+al/oYsWTm7yGCtLFJpMb1kl1jRnbeRvdrzTSHbGJZO0IE1oLneeZrSnD02Go52AD+ckJFJlDWFFdNjU1HWdNVNdAYYH3ANmGhAzih+qo3jOA/ewAza+0wLIcHhqvR/MMMq1BH3NCiS/t4oSpkqy77fRsLyA9K4Psp1qwzDVSUt/FiZ9t0gwk6WwQ3FaURMiJSvKzMnjmp+eIrX2LpvVTE8FzYzQlR96hrcjIJ51lZGdlkP9yL7qvF9P2i8ZJNFB3M7Dmh8XEf6aX6twMHtkbRIPS/k5qX67zP/X/SZt6cqbt94orz8E5r7YzzrdxeEa7n4ncpXwTHJBVNz+KFetqOPTLTgo1HRpCEso49HwmMfOd83Xzo1hR0MjR9rLg285daXP0rPnJW6rrcC2lnZ8QX9TKr7QN9G+MpmT/QXakx3DOfc2+MoA+vYZD3TtJDvKaVS45i1J8OrRNOWe+vf8Ho3nM0z+1Ydjs57fhfD1b06FGcg2D1G7JIH1LHVbDVtqOXkP50Yd9tF8EsNG9x0/+/XIdtS/3jTarCUuj6Rf7KH84BMsrBaSrj3/HVmLc98GJrncGsx+spd7f+Ha6aEpaaoh7v4D7FyXw9FASba9tDTCGpJqOmKJOflm/lbi/dFCa6zx3LPpMdhx6i13fnIqHG4W+n+6kR10D6TY/jR37t8IrqSyOS6djfhmHXkyawQ/cvj41MjIyop05lhZTJ5lpSdrZYhZoMXXS3NSunS2mQFb2GrmurgLJz2Y3Of7iarvS5+D0lvQJIYQQQogZQYI+IYQQQohZQII+IYQQQohZQII+IYQQQohZQII+IYQQQohZQII+IYQQQohZQII+IYQQQohZQII+IYQQQohZQII+IYQQQohZQII+IYQQQohZQII+IYQQQohZQII+IYQQQohZQII+IYQQQohZ4FMjIyMj2pljaTF1amcJIYQQQohJyExL0s6aNpMK+q7kBoqZo8XUSVpyvHa2mAKmjm65rq4Cyc9mNzn+4mq70uegVO8KIYQQQswCEvQJIYQQQswCEvQJIYQQQswCEvQJIYQQQswCEvQJIYQQQswCEvQJIYQQQswCEvQJIYQQQswCEvQJIYQQQswCEvQJIYQQQswCEvQJIYQQQswCEvQJIYQQQswC0xf0nawkfEHEuFPFSe0HxVTrq4ogfEElfdoFQojg2ftp3pbB8kWu/GtRAunbTFgc2oR+DJnIXhBB9j67dgkA9uN1bEhcwh0LIghfuITEDXX0nNWmGsN1um2219cSvmAt7f6+b9hOX1sZ6cujXfeTaJZnldE+EMSKrwTHAB1VGz2/++7lG6k4aEXRpgM420vthgTudv+OQPv4kpX2banOdItSKT1s06bwb9iB5WAlG9z7alECG6o6Ax4Dx4CJ0rTRY54S6HhdGqA+15nujri11Pb6O4cUesojuWOb2f9vH4tjgPZtqSxeGEH4gkgWpxVQ7/c7nOzHG8hXb3dhAz1+ktsOl5GyyLmvU7aZsF7SpgA+biFlQSrNg9oF17bpC/pc9Msyydu8KeAUE6r9hBBiOnjdvKfwoetaW++kDJnIfjCV0gMOotbX0Nbcyo71kVw4UExi/EY6/N2g3YZttD9TTLd2vott31ruy9pOz2eTKa9vpak0mZtObCd9+Vrah7Sp/bhet23IRGmJWTvXadhG++MPkLLNxIWoTexobqXtxU1E/cVEUeIDbDjo505/JV3qpyJlFflt54gvbqStuYbcL/RSvyWJ7Dard9ohE9nLM6i1RZL3ovN3GKz+9rFCzwtJNMwt5FenB/ltRx7U5FA7oE7jj0LfC6tJ3NKCzbWvmoqNnGsrIDGlkj5NwKOcrCQlsZgDN4wecw4U+0nr4EhJKhV/Saap+x32r4fa9A2+QdKgieo9kZTkGNFpFo1pyET2V1dR1PZXFm2uoa25itwvDlKd/gDZ+3yDXee5Wonlczn8qLmVpqJ4lH+tJH1FGT3q7R6oIzvPjP7Jg5zoruGud4pJrNQGpArdDZVYHi1kTYTXgmvfyAQ1t3doZ/n3bsXIreELRh7be067RFxh71UuGLk1vGLkPe2CCWpu7xj55BOHTNMwBX1dufzHz9JHbt1yZOTCyMjIyMgnI7/4/oKRWx9rHwl0tV34l/yRL4UvGLlVMz33rjqRZeRA5YaRb8Te6Vr+TyNfyywded3i/BZ/ZsJ6vxbjXPblr20Yea7z9MgnqiTjCW6/Xxh586k7R24Nzx553aZZZG0e+efwBSNfKusJ+L3/8bNsz/b75IcXjoxsCXceu//4m2q+rX3ksfAFqmMcyHW6bX/7j5HXH3Mf9+yR1//ovfjCkaKRL4UvGHnsZ//hveBvp0f2/POCkVvvKh152++KvQV3/Cfqk5FffP/OkVvv0vxuz2/aMHLgL+6Z55zz7qsYefuiKu3FnpHn7lswcuumDtU+/o+RPf/svS/+ozXF97hpvV87cl/4gpGvVfZ572tL7cjXwheM3PeSZXTeJ33O7w1wzL3S/tE577ke94zTI3uSFozct1OVxrUv7tN+97gujLy55c6RW8O/PvLcu+pPfjLyXuXXR24N//rIy+qvcZ1P2t/4SU/FyH2a7X6v8s6RWx9pH3GfOZ90l47cGp4/8qb6ZLY2j/yzn/NuOkzPORjYtJf0CSGmnv33vTB/HiEAODj3B+D22/BfcG7lwCudKHONlHf0c+ajQc9Uco8ridJPdcoq8nd3YTnrfuZ1YD3eQlHiaqr7/VXMXMX1ukoB8nd3YT3vnOUY7KJ+SwKJu8Yt+pigQWx9OjAm8GCYZlHECtKMoOwxY9EsAldp1XNm4rNziNMuAxi0cASIXxmPfo5qflg8CUagsw9NuZDG9blttjfKKDUbyc2O1S4CwPpxHzqMJBj13gvmGHjo20a42IL5lPeiK+ZsBy1tCjFFZaxR/+45eh7OygR6sQy6zvuPj2AyQ9Ta1cTdqEp7Yyxpa6PgcDMHPnbPnIfhy700/LQXxzAoQ2YafvpXYiL9X/VuNquFkPnRZK6O9i5pi4wjHrD1f4C7XFR5t4PmIcjKStYc82Qy08G220SP+5IdGqSbWCI8h+AmdJ8DW5/Vsz4GGqhoi2XTdzTfPR67GVOnAquLKbxH/UkdMRu3koyV2s5+z9y+vZX0zc2kvMD7e3Sxq8lZCOfe/QBn2aCd0x8qcKce92br/rcO6MLiKaF0cOTlSuzr8nh4vnve9WOGBX0KtmPqKp1olm+opEPbRuNkpbOdx4ej7QnuTqmk232mDdvp2V1ASlykV/sFv/X2jn6aC91tBtxtKWy0Z0cQnm0aPXnH+85LNrpf3kii5ju17SACt6/rp2JBBOFVoyey5zuHHFj2lXl+zx1xqZTuG8AxrP689ndHsji3zm97BnGts2MbhKgvfMb19xCDZtDfFChb/StDp4D0PLIWOsNELcexZmoHdcSXHuTEb1xB1ukBflmfiQErtV3+Aqmrt14+extRS9IoN5n57Wnnen/dnIMBsO5U3ZimRDS5R/s505QWIKgOYNhGe3kZ3fdWUv6dCP83vS+EEQf0WDV1pcN27FZgYZgrsA/kOty2IROl5WbiKsrIvMPvlhGzrotff9TImhl4U3b09dJNFMlLNAEpoDOWceajfkpcgYzD0kcfEHe7QZsUQ1Qs0E+f5yaiI+7JTnIuVnPfbRHcnVYLBQ3kRWo+qKH/5k4O9ewjS1tNed7mDIT+0f3wCNZTZhRiiTRo97uOu+42wkUzfV7Vtzr4tPpvYK7OdT45OLK7DqWgcOLH6WML3UD8vVG+52ZIJLGxoPR+4HroGKDnsAIPG1nkk9hAVscgv21O8wR5AHz6BvVfwDx07s8OtFDdaaRw/QQD1WvEDAr6FPqqkrg/tw6bIY3yelcbDVsL+YmrKfJpsDpIw6Z0OkI3sau5hryEWBaFOttSVCc/QHqVmRuSymhytSGxtRWwPFnTJuFsJxviUyn91/+XuM01tDWXk0Yn6ctzaPD7CBv4OyuSjWTvHsKw2vs7E1OKORJM25eA7HSVryblpxdYUdxIW30lWYZBmp9aRcpu9Q3TTsfjD5Be1QUry2hqbuR7X+5lw4NldLhKQsS1zvVgsGAJ+cfAUp7gauuWSj1ge2GV82/1g0OQFMUBzCMmJpJQd043R4c+1sgixgooxzZd6+XGaArrK8m6R4/OVSIRsnQrJenARRu2K3XOn+/FbAaMEd43FcDeWUbpsUjKv5eGXntjdJu/grTVISi7iyg9ZkMZdgZV3ZVF1A7piP/OCnzDgSBdk9tmp6O8jO7byyhZrUd7ax6fgx7nionQli5eIbaP+4FYDLd6Fz7cvXwjtce9n8LP2QfBq7RMZX4EcUDfx6obyI0G1vxgH7/+aJDf9uyjfKW/D45P+biX6vVFHJkbRcm33W3tFM79pw2IQv8F7Scg9B8NgA3r711BaFgE8ZgZPONOcQHlz6D/kt4ZRJ5qoaLTSGHGOFHpZJ0awgHgsGEdgrioCPiwkwp3hxi/HVBCue12HZw67Sr5A+V/FCAaQxiAg46d21EK8ki+Wf2568e0B33dTy3xNMLWTupG2crxSh7ZbcWwro39O7ayZlkscaty2NHRSUm0lfant3PEKyO3Yf1SOa9VZBK/NIncdUZCAMueImoH5pHb9g5tRWnEL40leV0Nh96sJH6wgUde6HU12FToeaWII+eNVL3ZyY51ScQtTSJ3Vyf700H7cOvk7zsVel5Ip37QQO6re9lRoPrO/cXEDJrI/3GX8+ScFAvdvzfymqmG3FWxxC1Lo+TVNgrDwPqzbk/ViHK8jqePKcRXdLH/+65t2NzKid06uvdqVimuf2edPTLVQSG7U72vQVVJdqgxjeS5NqofSaXi4AB2RcExaKb6Oxtpn2uk8JuujHuGrHdsIdykriqbNgo9dds5go7k1BXepVlnO3n6GTNRpVW+JSxeQlhR8Rb7N3+G5lwjd9wWQfhtS8hu+l9kNb9F0zcnVEamcm1um/2NIp4+Fkn585kY1NWLQVJ666g+DLqkNB6aaOnSFFEu2AArDY8/QPpexfOwvuYLvVRnPUDK7gFPpwHHHy3+S8sAPg06wHZhCoutB1tIXBDBHfEZ1J40kNe8l1xPTOZqJgLc4G/f/1/OfxyXXNszfwVpSTqaa+roO2vHsqeSilPR5KyMBOy012xH9+QkgydXwOtTygygDDLQq/r70gUcwIVjZSSuKOK9f1zLjuZWdmyORTlQ7Cx4UXUYiknahKG3kbqDVhwfm6l4rgXdo2nEh4Byso7qt5Ioma5AdQaY9qBvrN67oz13HXTva0EhkxJNnTxzDGRtzoSLnZjM3ll+3NJo7+qF4X46dlrBuJHcWE0JgqtNgrKny1n14zBj2qNAeiYPez0R6ohZv4kV6lkqPt/pWY+27QFweyZ56aB0mkargSchKmM1Meqb2JxIYr4ODDlGA9gu5/7L/Kb3k5+7TYO4HkRT8tEgZ37TSBaQa3JVlx4tI0r9d1G09oPjuzmBHW/uZM0tA9RvWcXiOyO5e/lamm/YRNvRRpInewOdrvX6c6kX8wHQJa0gbux6xylhe30j2U02dEk1PLtS/YUOjlQV0T1/K89mjFcWptD3UgaPvDxAVFKxqxdqMcmRA9RvWEv1ycnd8K/JbTvfxXPPmNE/+ew4wWgAH5vYsK4B29wkdpQmjFP1PN3MdP8+k/0dO1UP651ULYO+qmdo97TTu8I+fRe5nuNopTZlCRve0NaiBSuEFRWdlOg7eSxuCSmvQOH+JrJuAeVkA3XvJlH4rUhns6OX1zqbUC1KYIMq6A0oLJaEaFDaan16idveaKHZexYAlmO96J9XFXqsq2H/qzkYBk3kv+Iu7AEiN/Fak5HTlUncHV/AB0tqOPr9WHTYObCzAd3GXFbcDMqHJkpTol1DxZRdZo3dzDHtQZ8hYROFBVv9TitucacaxHIMiI3EpykBoLsjknig+3fee90wf57X39hPY70I3Ojg9PFeerymPmzDoUAftiFVI+W7/bQZuNlAVICqAZ/vdK0nLspfuxhXOwjMWC7jIjeEar4TuOHTAOc458C5/94KtP8M3OW/LbS4Vg3ZeI9YIlwBk2IbxIKRKM/1BMxPo8nTAWIfuQDr9nl1ivBpa/XZCKK/bPA6jx0WC9a/qMqpZ9J6vSj0bC+jGSPl353uG76Cdc9alpeYYVklR6u9v89xuJT8Tj2FL24iyl+JiYrjcBGPvGxBv66N/TtySF7qruHoovxeC7WPFWlqOMZzrW6bgyPlBXTM38qOdRMvZVE+bCE7sZhujFS9WcOKyZQuTbEVT2zSPKzrWfPEJvT0YzL7bT80/W6JVh3HTkqiHRwpLKB5svenGw1kVXe5qpsbyY0OAWy0VzYQ+t1NrLjZWXqbvhvyXnuHEz/NQHk5lQ1vjFcKoifrxUriMVP0UBL5uzvpOd5JfX4Sy5+DeKM2PRC2iUJtocc9m8hbqSrscQk1FrO/Z4AzH/Wz/wdJ6Oc4a8tK382k5NFIZwe0nGJ6vlzDL9/r4kdRvWx4bDt940arM9+0B33BUi46S7kn0obD2etGZWjQOd7U4UrSszJ8ptLX7YCFofPAsDLG00YooQEegn2+07UenU/D0Kkzb16gW5iDC5cAFBxDE99/4tpi37fWWc25vAwLvRTd76z2vCO7BTCT/5WIwAPZjudSPxXJCRS9biP+Bwf59W/eoa0glpDzXZQG7GUbhOlarxeFvprVZDfpyH11p3ePyak27KCnZjWJ5WZ0Kys5+pM0716O57t45ulO9JurVNVmgTjo+ddOFJIo3Kit4dCzJst/DUdA1/C2uYPRvOdzxg1GtRy920lJKaP7fyVQdahxeo//BOi/4CffDg3FAFj++FcAQr4QBSjwN21C4G+goO6wNcXmGFizNgnox/yuHQhh3j86F32i7SQI8P85/9F/3s/vUlHMjVR8mEneagNg5c0WM/qNhWQtDCV0obP2q/unR8bp+Q2EpdF0tJXCpQrdVQWkb6jgyGcy2P92IzkLnB1GvBhCmedz7oSgDwOwcW6sB5RhK+01LUR9N4P4G0Hp7aB+KInCAiP6m/XEr19L/GAdHb1TkV9dXTMm6NPNdZ77n2gXTISrHYD+yYPeJQSaqeQeZ2Nyn0IxD2eD1KC41qP87bK2HJQLYwSh49EREjYF+0/MWpY9BdQPQnxFJ7vSIwnRhRK3uZVf1Weiw0rtHvOk2qVO13o9hu10lyeR8rJCVtteT6/IaTFs40jJatJftqB/tJGfv6gJqgD7MRMdF8H6cqrXoNLhcc4BkN1tnJ1vv1C44ACYh7/nOncNB/5uwFrX9LbZeXNfJwpWalNcox+4psVPmQEzRXH+H2hsh4tJSa/DMj+TpiM7WaMu7b5KQm8NvmplXmgE0Mugvwe1s4P0BKjpmSoh89Tr1jHvi3rAis1PLG//gxXQEzpvjGtseID651qIKlpL/I14euIbQkfL6PWG2NFOGOOZH0veLmdJ4plT77D/B2lEhVixvgssi3J2JArVT75DkYujq46KDzMp/JZzTY4/2bzP/fm3YQBsfwpqq2e0GRL0RRC1DOjt9RniBED57YCz+/aXxnmEC53nPDDvjo47NEqhe1skixPLOGIHIqJYAXT/2uIbbJ0foDfYMZ5c6+l5Z8DPSazwwa+dPcm8qt5Q8GmbO2TjPc2s4EUQ9UCg/Wfn9IfaeeJaFJrayJmPBjnxvBHIYb/rIWb/OsBYyYmPBjkzqWEs7Hzwrg1IIk3TGzBkWTJZBDMmmz/TtV6XYRvtW75O9h7INXVSEusnOpkqwzY6tiSxYa+NqM2t7P++kVCfUgUIWZJHW3Or7/RiDlFAVLbzrRR5S0JUJSsBehufcdVc+PkeL9f8toUQt9nPdjW3siM7Cogi98VW2prziFNV29re2Ehinglb5Cba9pcRH7ju/4rSfzkWPdBj8XNmDzkDuXhnV1FComKICZDWaukFoomJupzz2s6RbUksXlhGt/aeA9h/7/xed+mdYaERHWYGfqtN7LqXzTUSM0Z7S0dXPbVKDt9LnVyv4lH91C+PJtzfq9s+7qXjFMQvjXE2D5gTRUwSYB7gA5/ErvvfXAO3BTo/hgdorukkrnQTcWPEs9eLGRL0hRCfmomOTqp39nsf5GErzS+3AAkkGwMdNRddLMnr9GDeSf1xTfRzqoGKNgX7rTHEhQIhRtIe1UFbCwc0r7rpe6WOI+pZY3Gvp3M7tdqGzR+2UNsGrEz2ZEjO4nwzFq9ATKFvb6vfQUqDoyMuOQe9n/2nnGygIcCbjMS16Zx9UFW14Ryz7/K4b/D9HDk8gN19Ag0r2I51OG/uSTGTeJqervU630Ha/HgCRW/pyTN1Tm8JH2BtLSD/sMM5ukBBLCE+gYuTLiyauKWxvtO9EcwD5t3h/DsmTOe8bhMy0dFF7SvafM9Ge1MLzE0ibZx879rfNh36aD/btTSWuDtCgVAi7o0lbmk0evdhHmwhv7ALR0QOr5m2XpGOO0H7UgI50WD5caV3J4RhG+2vtKDMTSJtmWu/3eIcpNrSuNf7VWGXzLT82AIrs3j4skovQ4lbHIb9Ygst2g4bl3qpf8kMYTkkuzo+6u5NJisMmps7sKlLcQdN1LaBfl1a4MBoeIDmqk7insghxpPmM4QtBKt9tBjGZu0NYozHCPRRDjjQQbf6oWPYTsdLzoGYM1e6z70Q4h/OREcLFTX+73+GjcnE+D33wHG4lmolh7xVo+dyyOf1qjbzwNnTWIOo2r4WzJCgD3RLi3ltnQHr7nRS8rfTfqyXnoMN5CcnUdEfworq4iC6fuuIeaKG3Agb9VkPkF5lovt4Lx27C0h8ZDvWuUaqipJcJ5uOuPVVxM/VNhRdzSNttjGqfrV0xD3ZRm6ElfrHVpNfo/rOlEr6bk5gh+c7wZCQQTyuISz2mek5ZqI6fzWPHAsj/jJ62eru2coOz/5roMO1DSmPtWCbq00trmXKBRvcG+YZ3+yT4bHexhEMHfHf3ooBGx0lq1h8p6t67bZI7s9twYqBvEedQyJNzHStF+yHKyk9psBFC7Vp3lWC4RMa3iUIji4aftwP6NEr3dTWbKfaZ+ryjPs1Eep8777cSlW+l0DRMR0rnt06dqeEWbltDo7sdg5wr79VofsV7Tqd05HJdk64XHMMo50QkjM8+XzFY0kUHYP4UvV+C2XNs5XEn28gPXkj9Qed+3hD8lqaUd+vJi9kZTFVy3R0lySQ6Lo3dO+rJP2+DOrPR5G3fetokKaLpnB7DgZzMcu/7Tzm3fsqSXm4jL6IHHasDdwY1P5GNdVspdBrKB8DD2Uase2spvmUHfspZ0HI+GM8hrDiu5XE00l+ZoFzvxwzUfHY18l/Q0/uq8Wu6mMnnVEdP6jvfw1YI3L40aMBtlvpp/aFLlY8uUkVqIIuNpncsE6qa8zYztvofqWR7ohNnuD4mqZ9L9t4gn5P3KTevfvJyOnOipHHv/EV53s37/rKyDcerxg5oH1Hp2vdXu/hVPvbuZG3X8kf+Wf3uz7v+srIP2+tH3nb36ac6xnZvTVl5N67XO8Efbx25O0/9ow8F75g5Nbvd4++x2+877x42uv9ol+KXTXyeGXHyAd+Xk75ye86Rp7LGf2N//z99pHTF13vYKzsG004xnc636erfTegc/895tmGlJFn9p4e+YW8e3fGT0FfVyMXRt7con7Pbt/Ic+ELRr60XXXe+HCm8Tq3/Pmj+lpYMHJrzNdHHtlaP/J2wPdPXr31nts7+s5Yv9MY7yFWC2q/u67Dsadxri/Xe0r95od/uzDygTrfC/+nka/5y/f8uc63zXmctfmc6/wYZ/KXb2oFdfwny+vecufIvavzR3b3+NnHIyMjI7/vHnnu8a+PfDl8geo+pE10Gf52buS91tKRR772T879474nBviOC33NI1tWe9+j/N3LPD7pG3nuvjtHtvyLn0R/uzDy3ivZzv0Q47wnBf0eXp/9UjFy4HeBPu2KH9y/MebrI49XdoycVr/TWOPc3uyRW79WO/KB+j3Dbr/vGHnmn//Jeexyav3HD1NgWs9BPz41MjIyog0Ex9Ji6iQzLUk7+/qimCm9cy3tm/fx24JJjHl2nWoxdZKWHK+dLaaAqaP7+r+uZqBZkZ+JgOT4i6vtSp+DM6Z698rrp3rREhK3+b4tw3Gsg3Z0rLk3QJGwEEIIIcQ1ZhYHfZHEZ9yEpa2AR9xtCI930rwtg/vyOmFZGTnXQ/29EEIIIcTsDvp0xDyxl0MvZqK3mijNzSA9q4Dqd0JY8+JBTmgHNhVCCCGEuIbN4qAPmBNC1Kpidh16h9+6xjz79dGdlKyKDDC0gBBCCCHEtWl2B31CCCGEELOEBH1CCCGEELOABH1CCCGEELOABH1CCCGEELOABH1CCCGEELOABH1CCCGEELOABH1CCCGEELOABH1CCCGEELOABH1CCCGEELPAp0ZGRka0M8fSYurUzhJCCCGEEJOQmZaknTVtJhX0XckNFDNHi6kT87/9VTtbTAHjVz4j19VVIPnZ7CbHX1xtV/oclOpdIYQQQohZQII+IYQQQohZQII+IYQQQohZQII+IYQQQohZQII+IYQQQohZQII+IYQQQohZQII+IYQQQohZQII+IYQQQohZQII+IYQQQohZQII+IYQQQohZQII+IYQQQohZ4IoEfcpQL83bNpIYF0n4ggjCF0SzfEMZzcft2qRC62wv1W392rlCiBnEMWCiNG0JdyyIIHzhElIKG+gJkL05BkyUZiVwtzsvzCqjfcChTRY0y64EwrNNBPg6p/Nd5C+MoOKkdoF/ttfXEr5gLe1ntUuC4zhcwB0LKunTLnAbdmA5WMmG5dHOe8KiBDZUdWK9pE2opdDzQyPhY637SrP307wtg+WLIjy/JX2bCYu/QzqBtNY9Sa77pZ+pyvueYO+tIzsukvAFkSzObcAy7n50Uj42U7shicULneu9Iy6JDS/3Yh9Wp+qnQvv9PpP3uWI7XEbKogjCF0STss3k/7h+3ELKglSaB7ULxqGYKfX5fv/boTX2ealg2b3WuS8WLiHbZz+4Uh0v446FZXT7+03XgGkO+hQsu1K5+/4MKo4pLNpURVtzK20vbiLqXAelWUtYXtWPov2YcOmnIi6DWpt2vhBiprDtW8vixGKaz8dQ+GIrbRU56H+3nfQH19I+5J1WOVlJSmIx7X+JJO9FV174FxNFiaupODnxnFA5WUn+C1btbG/DNtqfKqDjonZBAEMmSkvM2rnBGzKR/3TnGPm6Qt8Lq0nc0sK5B4ppam5lx3dC6dldQGJuC1Y/N1o3pXc7RU0zKEMcMpH9YCqlBxxEra+hrbmVHesjuXCgmMT4jXSoA5CJpEXBZrXA3GjWbN5EnnaK/vxo0o9beHxdHwkt/Zw5/Q6vLu3lkZIu/MSRXpSTlSTGr6X6RAgPlzbS1txIeVIIPTUZ3JdcR5/nAH6eGO33u6f0WEIB5s7jphtdyQfqyM4zo3/yICe6a7jrnWISK82a80Ghu6ESy6OFrInwWjC+IRvvAYaEHN/t2WzkNvd2aI1zXjoOF5FSdYGHd5k58dom2J3B462aa2vYSntNC1FFa4kP9D0z3LQGfda2taS80I9+XSsnftVIeXoScUtjiVuVww7TW7StM2Ddnc6GfTPoIhbiGmB7PYPwfHfGrtC9LWLM0h778RZKVU/0fktKHAN0VG30lELcvXwjFQetmkzSTnu29ulaM2m3I6j1Xh7bvrXOUrYFwZdmTYnzXVSXm1EictjfsZPcVe78rY3c+WaKHqvD4gliBqjf2oA1LIcmU40qbSO5YVbqtzZg8V77mBz9dTzyWANjhnzDNjpKcig6FuTeHrbR/kwx3dr5wfq4k6LHiukeI8BUzJU8sttG/PNd7P9+GvFLY0ne3MqhCiNKbxnVhwOEK5d6qX66gZlzt3Bw5OUyui8aqXqzkx3rnPe35HU1HDpQRsz5Lp5+pdd1nk8kLYAN2/vAslxKCrZSqJ0S9J6UyplB+tLzWBOhgzkhRGXk8HBn39jnBVaai53nYtuvWilJNRK31MiaolZONGXCwHae89yX9azQfn/BVgoLNhFDH3YM5L5axooQZ+q+zjqssRsp/FYkobcYKfleJkpbB93qwzpoorYtlvL1sehUs4Oh2AaxoCd5c7GfbcokxrUdXsY9L+28ua8TJbuQkqV6QhdmUvLdKPoau7yuSeVXrVTYc/he6uj+v9ZMX9B31kTFtl4UYyVNT8YSMkezfE4IcQVV5IYpdJc30hNkniSEAPvve2H+PJz5m4NzfwBuv8351K12yUpzXjSLs8po7rJgD5TpDZnI/uoq8nd3YT3vnOUY7KJ+SwKJuwa0qYM3XetVGzJRWm6GuRO9fVw+u9lEx0VYU7SVGPWT/43R5BUkwWAdHe6aOLuVviFg5QrivNLGsmIlMNTHB2NUTXkM2+l5OYP7UrZjWWIkXrvcxTFgoig5gfy9EL8sSrvYL9sbZZSajeRmx2oXjW3YgWVfMYmJBbRjJH6hNoGbnQPNLSjRxZRrbpz6b2aSBfRYBv08ECj0vVRGPTnkrtYuu1oGsfXpwJjAg2GaRRErSDOCssfsChomkhZwDNJ3CvRf0ruu8cB04RHEtNXSPqg4j0NrAweSYjBoE6rZB7Fc1Pmei4DOmEwW0HesN+BDJK7gfUObgmFzFYX3uK89O6c/VOBOPe6jq/vfOqALi6ca18GRlyuxr8vj4fnuecGz/sYMRGPQ7kd/gj4vhxg0Q5xqpTfNDYWhPqzunTA8QP1zLcQ9kUPMlc9qpsy0BX3Wrla6gaysZPTagM9NF03yt6MwRF/Arsns7P0tqnYvkSxOK6Be2wbwrInsBRFUnFSwqtqH3BGXSuk+Z0mCo7+FfHdbm0Wp5LcNeGcoJyud7QCG7PTsLiDF1e7w7uUbqe11fp/tmHrda6k45udZc9j784HaqPRVOUtCbI4B2relukpeIlmcpmnXc7KS8AWp1APsTiV8QQTZ+8a6BMXsYcc2CFFf+Izrb2eGpb9JmxMp9GzPofSwQtS3ytjf3c9vTw9y5qNBznxUTIw66WdvI2pJGuUmsyfNr5tzMADWnSbVQ1koa5rc69BMh7ZiAOJXxo8Gn0Gvd5KGbbSXl9E9P4fyggkGKlPA9jszYCQ6SrvvIeTLscSh0GNxlbl8Vo9hLvDhac3N1IFtCEDPvJu9Fvhlf6OI9Jpe5q2u4ehP8gLc3PupTSym/eNICvfvpTzB53HAlyt4jqsoI/MO398zpv46Ep8yYb1zK/v3l5HwOW0CF0cfvWaISor1BAUeOiPlHw3y66Jon9If5eR2nt6tkPujrawIYh9dGdHkHu3nTFOa78OWj4mkBYas9AExtwQR2dySyU92x9CVGU34bQ+Q/04sr1UkjB0shiawo2eAM0XR2iXBcQVAytxMStb7Hi8+fYNmxjx07kQDLVR3Gin097lxObD9zgZhBvRj/kCXYM9LF53Pdod4ttvRVU+tspXCbwZ1BGesaQr67FiOWwAjMX4yQ7WoDZ0cba4h+ZbRebZ9a7kvpYwDxDrbyNSX8fANZiqyHiBllyZoA6yvbCSxzIJ+fY0z7WcHaH4qiad/WEZKVgfz0qpoqq8kN2KAjm2pPO1TfWCnqzyD7E5YUdxI24tbuesvXVSnb6D0h2tZXmUj5omdtL1YTPxcM/W5OdSqCyku9VOd/ADpVWZuSCpztlFZH4mtrYDlyZX0aRt8/rmL0pRUWv66gu/taqXp+UxuG2yhKHH16HojVtPWXMwKgJXFtDW3krckmLNcXL/cDaqXkH8MLOUJripV58OB7YVVzr/djbw/NlHdZMOwro39FZnE3BKCLtAD2I3RFNZXknWP3pMmZOlWStKBizZsrlK6wBwc2V2HdW4mOatUmeJE13u2n/YqVaevRQmkj9EpwvZGGaXH9OQ9v5UHZ+jlYfnjX53/mRNN8uYodOYynt4zgGPYVRLRVsQzh8GwOZm4sbNLJ52BwuZ3OPqjpMAP1EDotyo59PY+8qJD0N7KfNnpKC+j+/YySlbrg0ivMSeUNc8f5MTPNhETMsanXcFM3O0G7L0NqgfyBD8dCFyUfmqLG7Cll1EYG8wOmgHO92I2A8YI3+BWy09ax++t2AjlpvNmKja4Cj/G6CAUGruJpp4BznzUz9FdOURdTnuzUz0cAXT+ag5c7G9UUz0I8aWbNG3bQrntdh2cOu2phlf+R1GVzDno2LkdpSCP5EkF70NY+4AoHVZNIY3fJiPBnpeEEWGE7t+OVopfuGgfDS6HB2iu6iT+yUyixrjmrgXTFPQNYTkGYEAf6KwJ5OMW8p8yw7JKDr1aRtaqWOKWpVHy6ls0pUPfCwXUa2qFut8J4UdHXO0SlmVS9WIxUSh0NH1A5oF9rvlplLTsJAuFjn/t1TRytdD9+yT2d7jb2WyiqToT6Ke5Xc8uVVudXT8pIworprdGN8Kyp4jagXnktr1DW5Grjcq6Gg69WUn8YAOPvKBuqwGcMmNb1sb+HTkkL40lPrWYtp9uRa9e780G4pYucmYCYYuIWxpLTNg1kuGJGcH+rpk+kijcOJknarWQ0UbagQy0UN2pEFO0NrjABfys1057SSpFu7uwnHVdMeet9LxRSfoj6rZxLkMmSp8yE1VaR2F00F86pUJvjQV6GdR02ABQrAP0aOZFrevkaHUCH5Sv4u7bIgi/LZrEbX3E/6CLQwXBHafQVcXkLR0vY40mtyKNqCADYfsbRTx9LJLy5zMxTOamFp1DVWqkbzMerUsObIC1aS33pe9F+VoJTc2NVK0OdXYg+HYDFq/MUqFvZxG1ZzPZVWwMav9cfQo9dds5go7k1BUBAycn/2mtv+sC7DRXNXAuehO7mhupyo5F+ddKvx2Epsywjfaa7dgwkJcUoBRweID2l8wQlkOe+gHPJSZpE4beRuoOWnF8bKbiuRZ0j6YRHwLKyTqq30qiJCNS+7HguJtIdFXyzPF5pP2gkbYXy3j4C73OJiPajqHBnpeE8lBqErr2ampP2rGfaqHixxZi1icR5Q5ydVvJWxnkBTWDTVPQN3mWw430EUVJUZr3U+ycEOK/U0wUVmq7NEOYPJzMCvW5F3EXcQCxacSrewbpIoiMBRwXfJ4IojISvCJ43R2RzrYyaxK8n2RuNRAH2C641jDcT8dOKxg3kqt9Cg1LJjMdlD1dmmqsKDJXazL4yBhWqNcrhI9oSj4a5MxvGskCck2uatWjZUSp/3ZV2disZgjTw/sN5Hs1lQhyiJBLvZgPgC5pBXFj5nWjpXyFwTRwHmO9N9yeQ5WqKvjMb8w0PWqAwTqOvK9K6O5wYKxkR4b/Cs4rQR+bQAwKza+YsKmD0mEbB5pbVDOcbG9sJLGwE2VpDlX1rbTVV5K7VKFj22ry3/DTbORKON/Fc8+Y0T/5LFkT7Uk5Sd3HhsgydbJrXZKnA8Gh541wspJn1B37Bhp4+mUbyT/aes30lrS9vpHsJhu6pBqeHSdI8J/Wzrm/6AmZq+70YWRNQQ37X83BcNFM0ZaWqe/QMuyg54UcisxgeLKGvABxmdJronYIYtZn+G/bFrmJ15qMnK5M4u74Aj5YUsPR78eiw86BnQ3oNuay4mZQPjRRmhLtyZOOBBPInj3Hufk6DOv2caK5mDXLYolblUn5q51ULdNh3Z1OxfHJ3UNDVlZxqEhPx/olLH6kDjbv49Vv6UHpp/6lXpILnKV8o8PjRLN8Q/DD48wU0xb06eZq5wTDjrXPBsRiuFW7bDSYU05p2sTMvcn/E6CqManTDfhPCPPm3qSdBXg37ARgjqaI2H4a60XgRgenj/fS4zX1YRsOBfpcbXbcIpinfUByr/fsuXG72otZbsjGe8QS4WoE7ezNZiRK1UTC2aAaGKpjQ1YlHcetnp6+9pOapgR+KfRsL6MZI+XfHad9kLuU77sZQZTyjbXeUJKLilmjqgpGpyf+G0ZAQVEFVba9ZRS9a6TqWc3D4ZV2SyY7njfCsWKWJxdQf7CXnoMN5CcnUDpH08lioI7swi6UZZUcetV1w3LVYrRl38SRQk2zkSvCwZHyAjrmb2XHugB3+emwchN5nsb/TvpvFpIXBn0ms7Pn6fAAtVu2YwsieJoZFKx71rK8xFlTdbRae36rjZU2lBU/6OLXpxpZo7n96O5xNY3o76InmCApWMN2un+4mvTdVgzr9nFoQ6BzwUH3vhYUjKQtC/yAF2osZr+runn/D5zNEJTjdZS+m0nJo5Gg9FOdU0zPl2v45Xtd/Ciqlw2PbVcNExPAwhwO9QxwVNvuc46eNUXOGr5ms8+4BEHSYUiv4eh7g5w59Q5N66IJmQO2fc9RH1pMXkIInDXxdHodrN/HiZ42Mv+2nZQtnWN2eJlppinoiyBqGYAV2wT3xieujP2GCWTk8drAzM2nUWZghlu1UZiTb8NOjaFB5/AGhytJz8rwmUpftwMWhrzaLs1jXqDcwE8ppBAA9n1rne3clpdhoZei+51DlNyR3QKYyf9KhJ/BSUOIK2jk6L8NOEvOTvdz6Pk0DFip/pl27Cw3hb6a1WQ36ch9dafPjcfbaClf3urxStyCWO/ZXuoLVYPXLoggPK3BO81gC/klvcSXlvlfxxWmT23kV81biVfMVGzJILvyCDd9Zx8nfuLssOJuCG55ay9W9OQV+NZixH17rf9ajGnmOFxKfqeevOdzrmxbpTA/vVLnhBJqAE4N4QAsuwuoPmvkR0VjBU8zxLCDnprVJJab0a2s5OhPxngYmUhaHzoMUa4mBcH09A7GsI32LV8ne4+NqM2t7H9yjGYGjl6OdOLshTyRnrfu8e2+m0H8jaD0dlA/lERhgRH9zXri168lfrCOjl7/OVJQXLVwfGSbuiDskpmGqgGyNqdhmOPqoBq2icJHIwmdH0nW+kw41sCbEx1g+iqapqAvhKh7owEzfd4NNHwo5jIWJ26k1NUj1h3suYO/GW9+BHGA/smDvr0ZVVPJPdoPCjGddNwUAizcSvlmI4ZQVzY+J4So1I3kxAJ/8FOqPGynuzyJlJcVstr2UqIpjfHhKuUzbEwbu/otmPUOmchenkHFG72e4V38sfeb6UOh+ynjaGC4IILFTzkHFK5Pc/59JXu7hy7dxK6j/Zz5aJDf9uyjPDWSkN9b6QFWfMlZZ6pcsAERhH5W+2lVLcbY2eUUc41NhpXaFPfbktT70kxRnL8Hicvgyi/H10/HC1a4aCY/TvUAsCCClN0ADaQsiPA/3uSVNmzjSMlq0l+2oH+0kZ+/OEYQN4G0SoBqQ0VxALrAnbIm4tIAtd9OoOiwQnxpJ/sL/Ayvpmbpo0PbQz8Ijq46Kj7MpPBbzgdDx59s3oUf82/DANj+5JMj+VK8S/09/qY4H2K1tXGXwbKnkubbi8kxOvMrxx8tYAhlnjtBWARxPoU6M9s0BX2gX5nFCqC5ucO7rYsXB90HTNgHBgidpwdCMcTogS76fqdNCwx+QA+gWxi4V9EVFzrPebK++4GfpwuF7m2RLE4s44jvQiEmJDS1kTMfDXLieSOQw37XA8X+dYCxkhMfDXLmo0bWzAcIQf8lPZzqxeKTISko/6Odp37ih1xTJyWx45WvuEv5kij8VqDqoODXazm4k+6LOuJLD/Jrz9Ayg5wx5WiTzhz9DSxfFEGp2Tdas73TgQUjsa7RYkO+EAUMYveXFwydxqIqFbwyQojb3Op8S5Jm2pEdBUSR+2Irbc15xE2qp6UfYXcRGwb0fuA7ePDwEIPvunuxRpDmZ7vamlspWQmQQElzK23NqwMMWXOFDNvo2JLEhr2uUrLvGwkNFDQFm9bRRf6CCO7I8zfYugPLuxYgjZgxLrmgXOqnOi2V6pM6VjzfRdOjhsAlfC6Wf+8C9MRETuAOPDxAc00ncaWbgmj+MTbLLiPhd0ZT7a9A/EML3UDU0sipiQ/Od1G/UyG3OG38HtjXkGkL+rg5ibwnDWAuJvuFXufwBBq21wvI71TQJRWT5Ro0MWrlWmKwUVujbRjtoPunlVjQk/e1AL2KrgZdLMnr9GDeSf1xzVPKqQYq2hTst8YQdzln4d8+0c4Rs9g5+6BqIGLnmH3+RC1djZ4uatXjRSo2emqKqDgFMctcr1DCNYjz4wkUvaUnz9TpvyROy1XKp1/nbJjt1wTW6ywJm4fhljBnacOwgu2kiYqXTF7p3MGvdnIGw6MdWppSL+eiC1KEnqjz0H7A7F1qau+kuqofXXqmZwBag3G1M297SZO3odDX2kgPBvISrmTepkMfHet8S5J2uiMUCCXi3ljilkajD3zYJiiSFWuj4VQlFZo3MdneqKX5orsXawgG7Ta5pkVhAHoWLY0lbqnhqlb9WlsLyD/scA6LNE4pWdBpQ2KJXwmYG6nXvJpP6a2j+jDo1wU5vE9ACt2V6dQOQPzznewKpgOWp829kagJdPhxHK6lWvHu6RvyeT1wjnPui+bsaayA/vNjH01nnua/45Sz17GRzISpeQywtFbSce9GclV5VsgXosBq55x7xtAgPUQRFij/m4GmL+gDota10vSoAevuDBbft5bStk56jvfSvW87+SnR3F9ihnu2sl89kKSqYXTiY2U0H+yl55iJisceILsNojbXkBtwVO2rQUfMEzXkRtioz3qA9CoT3cd76dhdQOIj27HONVJVlDTJjOkzhC0E2huoPdZL35BvaYKYfZQLNrg3zPP0+clwgLdxLEyjcJkO694Clt/lqh6700j6y/0QudXrVUL2w5WUHlPgooXaNO+qvvAFfl6t5i7lI4HCMYZfmMh6DdFp6LBRn+0cCD38tkjuTyumvl8ZtwTiqglJoPB5I3QW8Eh+Ax3He+neV0n6igI65ufwmnqYEXXelubq9HHMREXWElJ224jaXEVu4F153TBk1FC1DLqfSnLll2baqzJIfMoMy8ooTJhcbnnFObpo+HE/oEevdFNbs51qn6nL2ct2ImkJIbmokvi5VuofW03+7k56XPtocXoD5yI3seOJMdrdBePDFiraFCCSENteP9uyneq2fk3zDzu23wELI4J/CFD6qX2hixVPbvLq6auLTSY3rJPqGjO28za6X2mkO2ITydoRMLQW5rBjnQHlWDGJj1XSfmy041SROYQV1WWumo7LdNZEdQ0UFngPpm1IyCB+qI7qPQPYzw7Q/EoLLMvhoQkEwVfbtAZ9zAklvrSLE6ZKsu6207O9gPSsDLKfasEy10hJfRcnfrbJZyBJfWojv2orJp5eqrdkkJ5bSTdGSprfCnosqyvqxmhKjrxDW5GRTzrLyM7KIP/lXnRfL6btF749sIJnYM0Pi4n/TC/VuRk8sveKd+0TM46Dc17tq5xv4/BfLRhK8k/eoq0gAYPrSVQ3P5rkolZ+1eGdCU+Yu5Rv0oOs+gpJKOPQ85nEzHdumG5+FCsKGjnaXhZkO7CrQ5/ayNH6TPSWOvKzMsiuNBOyuoajHcXer2bzdPooJn7uALVbMkjPLePAJzM4b5sOc/Ss+clbqvxyLaWdnxBf1MqvJtSp4Sr7sI/2iwA2uvfUUfuyv6nP+VAzkbQAYWk0vX2QHelhWF4pIF29jzo0r/ybBPv7va7q9X46fLbDNR07renopeAYAj6nw/9YF77sB2up9ze+nS6akpYa4t4v4P5FCTw9lETba1uDyJN0xBR1caK5mPhPOijNzSB9Sx0WfSY7Dr3Frm8GU2I5HoW+n+6kR1UD6TE/jR37t8IrqSyOS6djfhmHXkzyfeCewT41MjIyop05lhZTJ5lpSdrZYhZoMXVi/jfX2wXElDJ+5TNyXV0Fkp/NbnL8xdV2pc/B6S3pE0IIIYQQM4IEfUIIIYQQs4AEfUIIIYQQs4AEfUIIIYQQs4AEfUIIIYQQs4AEfUIIIYQQs4AEfUIIIYQQs4AEfUIIIYQQs4AEfUIIIYQQs4AEfUIIIYQQs4AEfUIIIYQQs4AEfUIIIYQQs4AEfUIIIYQQs8CnRkZGRrQzx9Ji6tTOEkIIIYQQk5CZlqSdNW0mFfRdyQ0UM0eLqZP/MiZqZ4sp8A/mQ3JdXQWSn81ucvzF1Xalz0Gp3hVCCCGEmAUk6BNCCCGEmAUk6BNCCCGEmAUk6BNCCCGEmAUk6BNCCCGEmAUk6BNCCCGEmAUk6BNCCCGEmAUk6BNCCCGEmAUk6BNCCCGEmAUk6BNCCCGEmAUk6BNCCCGEmAWuSNCnDPXSvG0jiXGRhC+IIHxBNMs3lNF83K5NKoQQM9/wALXLI8jeFyAPG3ZgOVjJhuXRzjxvUQIbqjqxOLQJnezH63zSWi9pU43B3k/ztgyWL4rwrCN9m8n/901k2yaSNpAJbJt1T5LrHuFnqur3TjwV2zbVxj0v7PS8vNGzL+5evpGKg1YUbTqtcdZr760jOy6S8AWRLM5twBLsueMYoH1bKosXRjg/m1ZAfa/2O/qp0B4Ln2kt7WdHP2E7XEbKogjCF0STss3k/1z+uIWUBak0D2oXBGbft9bPd2sm13kykbROCpbda537YuESsl/uxT6sWuxOdbyMOxaW0e3vN10DpjnoU7DsSuXu+zOoOKawaFMVbc2ttL24iahzHZRmLWF5Vf/4J7wQYlq5M8iKk9olV4/9eB0bEpdwhyqTHnf7TlYGl+6yKPS9UEB1wJuVQt8Lq0nc0oItahM7mltpKjZyrq2AxJRK+rxuFgp9VQksztpO981pVNU70zr2FrA8WZs2gCET2Q+mUnrAQdT6GtqaW9mxPpILB4pJjN9Ih+pmPOFtCzptABPcNpvVAnOjWbN5E3naKfrzXmkve9um3DjnxaV+KlYsIb3GTMg3K2lqbqRkmYP2LQkkjnkfHGe9H7fw+Lo+Elr6OXP6HV5d2ssjJV2MG/sOmcj+6iqK2v7Kos01tDVXkfvFQarTHyB7n02V8PPEaI+Fe0qPJRRg7jxuutGVfKCO7Dwz+icPcqK7hrveKSax0qz5fQrdDZVYHi1kTYTXgjHpbjX6boNrSo50pjF89jMTTgvgOFxEStUFHt5l5sRrm2B3Bo+3Wj3LARi20l7TQlTRWuLdv/ca86mRkZER7cyxtJg6yUxL0s72y9qWQeK2XvTrWtn/ZCwhc1QLhx30vLCa9N024p/voilVr1ooZqIWUyf/ZUzUzhZT4B/Mh4K+rgBsr2dw/zuZ/HpHAiEodG+LJPsPlZxoSnNmwm6OATp21lLfacZyVgFCMCxNJqdoK2siQzzJ7PvWsvgpM7mmQUruUa9gClyy0vHSdmr3dmE9DyERsTy8voTCb0Z65wkqjsMFLM7r9LkRjrt9JysJT2sYP53LRPIzcOZbfbuzeeQF5006/vl3aEr12uNwqo77k7ejW7ePQ0XR6NzzB+pYnrgdpeAgv9zsuuu45tmWVXL0J2no3ftjyET2Q8X0LNvJiR0JjB4pLQdHnl7Chr2xVP2ykTVhqkWDLaQsL8PyaCu/Lo11bsdEtm0iaf2a4LZhpTk5gdLwna7zegyXvW1OEz7+gQRxXlh2JZD4gu/9zrZvLcuf6mVF7TvsWKn51UGsVzGXccc7yZwpinZ9ppfS28wkf1RMjFdKNQdH8pewoVNPrqmTknvce1ChryqJlN1QeKiLvDF3oUL3tmiy27zX0VcVScqpMn7ZlobevX3ZF9j17zWscP+8wRZSlptJ62lkzXyvlU6O+3zSXkf++E1rpz17CUULWjnz/VhwlTovb0zg0C83EeX6qGIu4+5ndLx2tJgYz0l3eabsHAzS9JX0nTVRsa0XxVhJkzbgA5gTQlxBFblhCt3ljfRoc3chRED23/fC/HmuG6ODc38Abr/NO+BT+qlOWUX+7i5XwOdMaz3eQlHiaqr7r8BFd6mfiuQE8nc7Az4Ax2AvzU+tIsV1I/Nl5cArnShzjZR39HPmo0HPFEwgN23O9lL72AOkvDBA3DKjdqmHzWohZH40matVwQhAZBzxgK3/A9wVaH1ddViJovBJzY0qLI3CjXqUThNvepWGaQ1i69OBMYEH1UEVQMQK0oyg7DFjcc2ayLZNJK1/E9s2HIP0nQL9l/RjB3xTsm1TKKjzop8jO62wcCsl3/Qu4NCn/v/Z+/+oqM970eN9d9m7JyucTpY9Ha45ZVaqM0ktE5sNRitck8xsj4V6EJINYhp+pOGHVsEGpEmANgGaE6BJEaygDb8S+ZGWEXZk9Bqmbg+T1M3kGAM7NTNt46BxDT31Or11OXvryvfcsrx/zAzMfJmBGQU14Xmt9V1tvvMwPt9fz/P5Pr+mjOIYicH+ocA8h/W9oFiuIb63mb5xydPl3dPO4dR4tPKE/lwWjCYJtlRQNhXwASiI37mbNBw0m2Td6TKSpY4dvRLaXfV+3+Hi7CcSfEuN7ygV/0UBmLFNtVS6GdpXh2tbMY/PR8A36aDr+WpGo/T8/OU5Ar6QaScYt0CidvpGvSdKBROjOHwXZdJO2yvdJP6oYN4CvtthwYI+h7mHYSA3Ny30RVDEkfZ9Hdq4K7guApNj1K7SsDytG1mjKgC2A3qWr9jJoLfyYNLFSGspWX5dQCsTU2eOh7loJM/b5TNj7EyIfntBuHO5cI6D7l5f14SnwFLfE1gSuU900TyuwFB1hFN/8AZOZ+2815aDFgfNZntA+oVg6yilzZuHj8568/DhEWo2KHC0vkLfBflfAPwHE2eArGJyV81V/d8qLvoqs2k4Gc3WvWY6t4euUtVP7OfoSD+58m6ry06cAF/3Besuzp6RgARWPyBLC+j+MQmwYP9j8NDYI47C42Ocl7fwhhB+3iJLG1xkeWPCwSgQf588Qpzp5vM2X8K8Ly6exXYVSFiNdkZ9GEv8dwGLnY+nLnWY3wtwXw6/ao3HnBPH8vsfo+T9BN6qnaOl9IKNYcCwRhcYNAMoY0lIAMn6cdB6GKYDICkqh8rtssAb4Mt3yXZEo/AlsnfTYNJTFuzvboDb3ELtGMT/uIK0OYLIudIqZuRbOZVvt7mNZmk3ZU+EdTffsRYo6HNhO2kD9MTrZr+suh0mjnc1knYfsCSOtG1qOHOIEfn4hUk7w792wqZkDEu9N13aY2TV21Fu2M2Brh562+ooXAvDraWkBBnT4Hg9n0eetaLe3khvVyOVjygYbszmkbKZaQXhzuMbUL2OkhNgq0nyjnXLoA1wvrY5YHCyJLmBaOLjY1H5HsMlCtQJelYzM0iEBDTLJBx+g+MfSq+m75MgQcekG1t/NeneyVkrEzMoaZW/QNkZPuSETfU0Pe3Xlbs0ltyXqzEwhtnqP3YoQr6B/FMvfbGs/ZFRnmre3PXAbnpHzNRvjnwoinTBSsP2coaidFR+Xx9RZef86w2WTpetWCyAXjPV6hJMJHmLJO2sguTN/akDJyruuWyhdkcSD63wDKhPL2tnJIxmu3nLW4Ru5r4I5OSSr0Ejwu9VJRTROWLn/Lkxjh8oQDcf483OTISsF11vN9AwDoaqItnYNhX3P6CAM2c9wTcg/acExOFpRHMzuH8PUmkxaUv9/+4GSWM015uQYgr4yZOzBMbMlTYGjR6G/zgd5l656oIYLWqlJ97oqjdheC4H3Yyg/fNlgYK+CWwnALSoIwyKdfotqLFhPCl7x7APY5yAtE16lIA0NsTg3yB57yEOlGZiWJ9A4oZMypoOcWALSCYjw7KCYvh9qBnsoTJDT+L6VAqbevj5JpBMQ4yEursF4XNKpc8kLcpJw1MZ1B6x45Ik3OMWGn6wk74oPWVPyAfsuLHuyyLl2XaGxj0PhHusm/L0mQPuR1/bQsrz3Yx6u42li2MM1mfzyA+NOKcCPwn3BLBUObMCXnY/WmDk0796/tvbGu8fxNKaETjTLs/o1/3lZrh6iyevdpe3m1jCdXGhHmQVaeVFJAZpHZjVeDcpKzSsNGTTfFpLcdchCqdOuwr1CgAHZ4N04To+scp3RUBipGUPQyhIy0gO3tI2a95kIkk7p+B5c/zJDLjoqm/nUlwRB7o6qM9LQPptHVn/lE/fhOxrfOY1b5EK875QqT3drZ+cDdLt7MDxgXxfmN97o5ZpSARGHEFOqjSOfbZbb9JO3y8tEFNA8eaZd1Z8ahFaawctRxy4L1iofaUbxdOZGJQgnW6h4d1UKrPn5wK5f9tG2wQYwuhynT2tiu9lpKLoa6D5tAvXmW5qf2EjfnsqOl+Qq9hNsXzM5efQAgV9N2GVgcwYsP2LNaBp2WY5hDMqh8wNnpOueHg3R0fsHNgsvwgKHlzjGf/wmbzb9vEcHg/oOVASvz4BcHPltsz2EoRIxFF5bpzzf+gg1zup4fy5cc4fr0bn/9++Ad1Lk2h6Zz9b77PT9uxm1n4rloc25tN1VxG9xzuCdG/YGDxkR7erh/f+MM75s2McrdKjuGqhzTz9NEqn91DS6kD7dAfvfez9N/9goXdXHJyopt3qaxn0vD3TW0ftCSeS93mULtoZrG+gD2DcGaQSnJt0cg87eh0oN1Vz9H/bp7quP2rLkSe9vb78IIVdPfTurSAt1kFz+jp2vD3durlan4MCC+1vysY3XrNi7Jga7RYx5292ktfpRJHayM9CVVRz5C1AJGnnEDxvLi79TY0ySk/9OyaatqWSuF7P1tJGBt4oQHvVQvmz3VOtRwHmMW8LZkk8+qcVYOmg7XRgy7lkPUT7mYBdCy8mgaQ4kHqbZwTTzre76QrcFUCyGmmegPjt2UGCJyC2iLc69ZytS+UhQykfr2vk+E8TUODi8P52FDsLSV4K0idGqtLjvEvFVDMUJP6cnZPDb5ohKoeCIMFnoLnTKjfVc7RczeD2dax9qgV29fPGk2qQxmj7pZW0Uk8r3/TyOHFs3BHB8jh3iAUL+hRR8j3hiiU5XxfYxTvp6SZSZCSxWn6TTUq4L9gZOWmhr3UPVTtS+R81FlkiD/V/i57R4nDXlxXAOK6/yT4QhDvVhJMPSUDjDdok5zg29OjukycEvqoh7tvagPvebbPh+FvwFjFDrZmB0gTUCs9kK112MblRYDtpnwrObP/ajTNmN00/1aP2de0o1CT+qIxcJPo+8I0VVPH4zgK0OOgq1LPyft+4282UtFo9XUdRCk/elmXSOTVho59CgG39AZM4pseGuRnu94wnOtCQg87Xd71EgXJGl/Vtdl8caesTSNxcQNOgico4N0NlpXR5xzIq1lfw1jYtjtYM1ubW0XfCynB/HVmPZDP8Tf3UrMHwSTgO5rOx0gIb6jjeMMvYrjnydsNpQ5otbyqSXzbz0RnZLF/vC35lFjBmZiRYYDAveVtoChKf66VQ46Atcx1Z9UaGT1roq89mbZYF7YbIr/TNUZO7tw4DFsq/l0pJq4mRkybaSlLZ+AoYQs4b8T576MncELrbWaWvYMDb3TzwcirqJSCdbKHqgxwqn471TDIrqGDk242896GZn+us7HhmD6NBRpKEZDfRPgaKrDQS53rsw0qrQJvVyPEPxzl/5n06t8WhXALO/ldoU1VQnKSEi0ZeyGqB7f2cGukl5+97SH/WdEMvrrfLAgV9GnQbABw4b+BsaPVbiPfv4h0bpHlCQe7/8E3tx1OA9FeQ8o+xPGTYTFZuPuWvm3HcrSf38eAPkFYVPMIHJ+7PWbQuLD5Ti41urMaGlfJHvUFUXjdgoeQ7msBFUr0zZ8t/48Tw8hE++sP79JYmoLxspirE7F2tVlaQL4lBswaY/My7wzs7b2IPKd4gbmq7P5s2QLpwaWoskOLhCt7qrSDtYZX32VWiTSqg3thILvjNQI7EJS6dB9bEcn/IAvwOtETL1vxUYAzLB76CUUH8c4c4+moOWkc35YXZlLzuJGHv+xyvSuIegHDHEE26GWncQkqNBcWmMJau8Bc0byFEktbnZvKGAq0uAbAyHqQbPMCN5O1WuTuOyoEj1GdpONtbQV5uKe0XEjgwYqbG24N1V9jnZB7EZNJ5vIey9RLD9aVk7ahl6CvZDPxbBwUrPC9kM7itDJnwzMie0VMwC9/6dj/OxnA3SNZB2iZSKSvVo16qxrA9H8N4C4NTvQRzs717CCcKcv+7t2djFpGkDXDNQnu9ndxdmWiXeCeoxhRR9nQsqmWx5G7PgRPtvCOfg3AHW6CgT4luTRxgYdQ2+0WULNWsTdlJ1Qm/5vj79KTFTXfxjv5rN1JMEWl+18t9rJyU54041u1mYHiMP54d5/yHZnobdpMsH6MpCIuQ7WApbeNgqDVxICsWpUJF4q4efteWgwIHzQctIQdqzydVQgFNxvf547lx70DzCrbGfIYTMHxz7pmaM/0HrnPyfZ8Pyuho+S5Pi2pGtbdlZJyPju+neL0KyWFnBDXx3wz1supn0slQ5Ray9tlQP93Bv+6NJKjyCJq3ECJJG0nepBAv355JSQoUIf7OX0R5u9WUsWx9uZ9TZ3zPQhGJyyQcNivExKMN41LPq2UJFB8w89E5T+vWwMuZ6JTeMYYbdDOXfbGNMggYNhmCjxMNwW1uofaTHMq8Eyjcf3UC0UT73vi8Y3zDn7Tk5OOTTojKIXnOOC6StIFsB+voeqCCAr0nAHb/xQZaFVN3WIyGRGxM+E3AudMtUNAH6k25JANdXYN+A7vl3AwfNuKy21FF+7cwqHn8B0meLt5P7Iwck1B/3+A3a8bNyG9NSCRQU1VE/H1Kv8LAu6q7IHzBqDI6OH9unFOv6oECBrzdngPbAH0dp86Nc/6cb7FTFx9/4ARSydwU2Hqn3JDmaWUzjYZeksHHN8tyagkMJdFfB1ZVc9y/69V/m2thXSRG3+xgGD1JCZFUHT4xxKwBHC4uBeyXGP3X4EM7bh0XQy+msnZVNcNB3nddn3rOuPprnjPkOlbK2lWpQX6KSuLDd40QlUTiN+WfyUw6GXw2lR2HnOh29TDwUz2qoMFRJHmLJO0sws2b20zJCg0ri/0n60x9iO0DG5BJfCzzl7dbysVQ2TpWBluOTBrFchgUmxJvoDv/Ro3RtjGO5S/KfykDuGBl8AwY1sfPeI5t/24G1MTHRvDcTtrpajSRWFU0S9dqhNx2rFZgQ3yQJXBkIknr77KZtv0ShRWeRaa/KBYs6GNpKsXPacFSQd5rVtxBAj/nb0opMUkoUivIXRX4mXJ9MsnYsHQbGZrQUfBd/9k+ChRfAXDP6JaVzrTT3AvgQroa+JkgfBFcco37db141uybyRucMcbQMTsuX8k+KeE8McgwQJAFXKUr7ukJFy47Xc+XM4SC3CTf0AoFq9cmwZk6Xmi04Jj64jBIblzjFtp2pJLe6kC760YXZ1Xx4Bo1TLTQ8BuHJ7+X7fS94Pne20tF4toYXFe76ZZPJrhmpc076zEtwXM2Vd/QctdVG92/DVwzUTrTTsNBifgfbyF+jorK0VNKyTE32m29DJQGWQh/SiR5iyRtaGHnTZmAYRMhJjq00HAM1Nt847HmJ2+3lgq19i6kMz0MBVxqCVtrA11X46jcEmEz1E3RoNa54fAgw/6tVJMuBn9Zx2hUDjmb5IGdC8eoE9Cjk6+POAv3sWYapMCZvsqvqT3DNHwNexfP4ogkUB+3MQTo4jQzAtMZIknrx9ZTx+CanRT6LV6tvFcX+LI5Mc4IOmLmY/mZW2Thgj5At62Hzqe1OFqzWftIPlW9JkZOWhnu30NJehyPVlrg4d0MBFtIcqmetFQY7u3GFrcFQ8BNpiAxrQA1NmqLdtJ2xMrISRNdL2azNq2d6E16+Jw1uQpCuKQrTlgTM/X2+dlkkF/jQIHh+7vR4mSwcjNrv+UbdxfLo4XdONBS/LRn+SN/XYVx0xMuvrOZqhMS2m29VK73K/g2VVC/AUb35bPxO551+vy3gN+99V+K5VtxrN2YT63ZgXbLfjp/dOOLs+qe2I0hSmK4MsmT39WbKT8EW8sLMMgT32Ke86NguDKJlJJ2Bk9OT85ou6yjeM/u6VmPsQU0bdPieC3LO7jfymBrKelP7cG2oY6mbHlYLuM20/6LMUCNWhqmuXEPDTM289Ss10jyFknaoCLKm5K08joMUQ7antninVjgm+jQzqXYIpr87pebztttoHu6kUKNg4acbGr7Ld6JE1tIb7RjeLVx5kLTC0pJ8o/rMGCiJKfUU4eeMFL7zHcpeVtN4RsVQX5b1oXzT8AqjWeiVzikMZpfM5P8XFHA9VAkpFEYY6Kh0YLzspPh1zsY1hSFHai7/+JEAlbfN3cbXCRpp1w00tAIZaWBC4trk7IxTLTQcNCO66Kdrte7YUMB37ul1+7mLGjQxxIVhiozp4x15D7kYmRPKVm52eQ9340tSk9lm5lTvy4KsZCkEsPjnuUXDN9PntG8qni4goHe3SRjpfbZbLJ21DJ4Tc+BkTEOlHpmvX34pzts2r4g3DQ3lwIGs3t+jWNqtXt/sUUcH+mh8ok4VL7Z9Eu1JD5RQe+ImbI4v0BuXQ41WUnoYn0TLhSoYpMo3GsO/G1TgCVqtv7qXXrLU0nUyMPG0BTLdCQ+UUHn8TGO/zwp5LiusCxL5cBb1aTFeTud41Kp7O2hPvUOKH2952fg5UzusbVQkptNXs0gn+kr6D1umvmzV88dYuBlPZ+ZqsnLzeaFN51od/Xwu3AmO3wySt9VACfDB1to3hdsG53uMo0kb5GkDSbSvMVk0vlvR2jKisH2eilZuflUmT7DUN7D7wZ3E+9fT9xs3m6Hu+OoHOinRv8Zh2vyycotp+3/aCjrfff2/PZ8TCadRzvIVdtpfjabrMI6hqMyaRry/y1ef951N/+rwjPBKAyuI820BVvfThFHZXcjib8v5dHVSbwwkUrvW+EH6tI1TxOh5yfeZhdJWg+J0Tf3MxKkB5JlmTQN7IbXM1ibmMXgsmqO7k2NaHzj7fal69evX5fvnM2t/HFg97FSHiqWaPpw//ys3i3clG6jif+PPkW+W5gH/0/L0Vv2XAnTbmV5Jtx5xPUXbrdbfQ8ubEvfzZh08k6/CcXTOSSLgE8QBEEQBOGm3HFBn3vMSEPjHqqeSaXcoqV4i//afIIgCIIgCMKNuOOCPiUu+jpb6LJpyG1up3h+fqJPEARBEARhUbvjgj7iijwLV37YT41sfTFBEARBEAThxtx5QZ8gCIIgCIIw70TQJwiCIAiCsAiIoE8QBEEQBGEREEGfIAiCIAjCIiCCPkEQBEEQhEVABH2CIAiCIAiLgAj6BEEQBEEQFgER9AmCIAiCICwCIugTBEEQBEFYBL50/fr16/Kds+k2muS7BEEQBEEQhBuQk5kq37Vgbijou5UZFO4c3UYT//LEKfluYR7889trxXN1G4jybHET11+43W71PSi6dwVBEARBEBYBEfQJgiAIgiAsAiLoEwRBEARBWARE0CcIgiAIgrAIiKBPEARBEARhERBBnyAIgiAIwiIggj5BEARBEIRFQAR9giAIgiAIi4AI+gRBEARBEBYBEfQJgiAIgiAsAiLoEwRBEARBWARuTdDndjDcW82OlHWsXKFh+QoNy1cnkbKjmq6TTqRJ+R8IgiB8Trjt9L2YzcbVnrLtoY3ZVPXbcQcr1yZdjOzb6Zd2J80nXfJUs5BwnmjxK0tjWZsS4jskC1W+8nbGlk/fRVn6m85bINuBJJbnGQn+DREcB+A62U5JpjftqnWkl7UzIs//nWDSTvNGDXn9wY8Dt53B+sBzXHsk+L3iOJga5Lp5t/qxgLQuawt5ibGe81jYju1awMehue30vZjB2lXea5BZSps1RN5lnL/JD34fAc5j1aSv1rB8RRzpLxpxBMvPhW7SV2TQNS7/IAxBz6MDSZ4uomdAwtaa7zkXq9aRt8+KK8h1kU5Ws3JVNcPBjulzYMGDPuexClL+X0nk1Q8hxRVQ09ZDb1cPTbv1aC8NUpWr56Hvt4R/kwqCcEdxnfSvvD1b7Wl5qvnl6s+/Jf/OnK6NUZu+mfLDbnTbG+ntaqRY56bv+c2kvzYWWAlNOun74WNktU5Mp9WO05D7GHn9Tv+UIUiM1qfyaOEeRr6a5ilL26p5/KtWGnIfI2Wf7N+bcPIhoE0qoHhXkWzTc//dfmlvOm+BpNN1lLzmkO/2iuw4nP35PJJbx/Bd3rS1BUT/vo6sjfn0TfglvO0kRl8rpSFUEOO9V0p6fee4g8rHLtH1bJB7BQmnwwZRcWydce2KKI772nTSC938cNsoSd1jnD/7Pm+st/JUpRm3/9cFM2Ek7/+1mfLe/2D1rkZ6u+op/G/jNGSFcc0njFRVWuR7Pewt5BVbUD93hFPDjTz4fgUpdZYZxzfcXoft6TK2agI+mNvUebyEoaKD3q5GCu+10vZsKnm9snsugmfAfayc9PorPH7Awqm3iqA1mx/2yL5v0kFfYze68nwM/s/P58iXrl+/fl2+czbdRhM5many3UFJp+tIyWzHuaGagYYcdEp5Cs/bwsZKC9Hb+jleHodCnkC4Y3QbTfzLE6fku4V58M9vrw37uQJw/iabR9/P4aOmJJRIDL8YS96f6zjVmYlqKtUYtSsyaAv4Sy+9PC0w6cb29h5e2mNk9KIES7Uk/6Can+1MQLXEP+E097FS1habZrxhFxrHqXxYtnNWLvry1lEeoh6BwDy7+vNZ+7zlBv6dQJGUZ8HYDuhJeQ0Ke81UJvhKL4mR/5lEVieUHbVQHOvZ68nzeIi0sTR9uJ+0pb5vDuKTdjYm1yHl9XD8pwl+ZaXE8Itx5PXGUjPcT+593r2WalbmWQLyEMpN582Pe6yFZ3L3MHo1xH0WyXFcNrFjdSnDG+o4/qtM1L778LKZkkd3MvhYIx81pxKkagnLzV7/KZNuRlvzeMobvBlefZ/OjICjxrZPT0qjgkKjicqHp4/adiCJlNckygYtFK/y7XXQlZZE1fL93mc8NMlSzcr30zhfHufZMWml6n4LaecqiJcnnuJmqGQdO0xqWX48AXl6K5QdNQe/byad9BXqvc+qnvqRDrYum/54tD6W9DPVvNebiXrqPrzCgX9vJNl3IOPdpG+0kCn727l575HDCdS/08HWGO/uqTwlBdyr4T8D3vJnRQ/nf5oA3pbWjR1JHH2vCJ03lWSp5qGXFLx1vIL4eQpW5u0eDNPCtfRJYzTsbscRlcOBvcEDPgD1k438PFWFynUWh7zmEAQhKNenVlgW7a0M3Fz6M/DA/YGVa0QkRl/bQsrz3Z6AD+Cyg6HGbB75oRFnkG4OcHD4dRNSlJ6awTHOnxuf2m4mEPv8cOEYdQJJJE8FSgAKEpOTACejdl9XmZN3fm2BVflkytN+Px8dZrqOzd664nLYuBIFycn+gRKAAkNaDjCG5YPprjnHHyxAHFpfxRjSzecNfN3D2TySvgfbOj0G+edekRyH9EcHTo2SrVlp0wEfwNJ4EtYAx2yEak+8ZS5aaX7mMdJfs5O4QS//1MuJ409KVHHZZPoFfAC6NXrPvfInv25V9zijZ0D9TfWsAR+AYrmG+N5m+sYlz4tbTzuHU+PRyhP6c1kwmiTYUkFZQH4UxO/cTRoOmk2BXcg+zrerqbLoKczzBEeBXJz9RIJvqVF79yj+iwIwY5tqAXUztK8O17ZiHo8o4AMuDtLdKxFfXj0d8AEsUfN4bg5gxTY+HUiE/wxMMG6BRL+E90SpYGIUh++yTNppe6WbxB8VzFvAdzssWNDnPtFF2wTEz9kMqiSt6X0GGjLR+U7kRSN5KzTUWp0MvZjBQys0rEzcSdcn0xczYIzHijg27qhj0O9zf2Gl9f2bp73dVRvjPF1Vq5PYEaJvXxBuDxfOcdDd+xXvf3sKLPU9wUsiw6vvBwRk58+Nc17W+iKd3kNJqwPFw0X0vmf3pBnpofhhBdKJahrMwTqL/oOJM0BWMbmr5qqa5qJia6csj77t6G60gGGT4SaC2oWgQq1RAA7OysY1uf/iCZLUX/OeF7ed0TFgjXZmZax5kERg9AP7rF1yqk2NnDoTbkDtxvknJ8RoUc91aeYhbwCut8vJarQSvaWR478qnvldXpEchyJhN0ePj1Gjl93bky5cDmBVzJxB0cJy0VeZTcPJaLbuNdO5PdRRq0lrNnFqIGfGeZlxrwBMOBgF4u+bM1qB+3L4VWs85pw4lt//GCXvJ/BW7eytg1ywMQwY1uhm9q4pY0lIAMn68cyAesJIVY2FxNpqclbO+MtpX75LtiMahS+5vZsGk56y7ZH37LlHrQyjI22dL6ScptBXc/7cmF+rZQTPgJdiRr6VU/l2m9tolnZT9sSdVQpFaoGCPokPrSYIcXHCNfxSAS9cMPCzrg5qtiSzWqPwtEg0pgaO8dhbhM7ZTUlyKrWn/YO5SNJ6OF7P55Fnrai941oqH1Ew3JjNI2VhjJEQhAU1Ru0KDctXrKPkBNhqkrxj6DxduM7XNgcd5D03iZHBdpzoqfnlbhJjvKXcsgTKflmNAYnB31pv/P6/OEZf/U5SEmOnXqSyytoZCWu8uJuh1hYcUTkUbJYXtglolkk4jtRNvaQ9lF5Nn/yFbgHFp+5GF2Wh6sVubJc9+9z2bl6oNoOmiDRfy5nrEg4CWxKmfQ1NAjDqIIz2tKBsVjOgQPsN3zmawDEK6BQ4WktJ9577oAPe5ytvCi1lXe9z/Oepga1yEZh5HDNJLjt9laU0TCjZujNtRhB1q931wG56R8zUb46wrpuUcJ7cwzOVZhSxFWQ+Mh0CuT914ETFPZct1O5I4qEVfhNYgjw3qoQiOkfsnD83xvEDBehmbWgJ05kJ2TPvYrCmmuEHqqncokYeHnmouP8BBZw5O3W/SP8p+bW2uRncvweptDjs4QL+nBfGgAS033AxIruvZ04CiuAZIAaNHob/OB3mXrnqmg4YJ+101ZswPJeD7gbv7TvFAgV93u4m4lEHK0fC5JBSeeuNItLW69lamuo52fZ2XthnIzqvh1NdFWzdkEDi5gKaBs3U6x20PVPHiO9qRpLWa/h9qBnsoTJDT+L6VAqbevj5JpBMQ4zccK0nCHcyO6OHgdRMvuff3XLZTt8vexgBMI163vq9LeL+wSatGYGz4gJmbLroq8ygvNWMza/beOTtOrKeasE2Vwu6vZsGk0R8eT6JM5oF3Fj3ZZHybDtD456H0z3WTXn6TgaDzChcELEFHD3aSPLvq0nxzSRMqebDR6o5Prh7uhvo8gS2oC0JAHeBAphwzxgbGZYJIw2NTk+Q6R3WhcvB6ARgruOlk9FkvtxB795qHr/XStuzSaTU+00cmKe8qTZXULw+dLA2p2DH4c87E3PldzZTfugKaQ0m6pPCbMJZMCrSyotIjLCb0nEwleX3x/Jobguj9xXxlrEgIJhw/MkMuOiqb+dSXBEHujqoz0tA+m0dWf80DxNYlmlIBEYcQb5IGsdule/0tOS+cCKWmldz0M4S+MSnFqG1dtByxIH7goXaV7pRPJ2JQQnS6RYa3k2lMnvWAXYhSVecgIP2Hz5G1iGJ5IoOetvq2HqvZxJQeqt9+j6N5BlAxfcyUlH0NdB82oXrTDe1v7ARvz0VHeB6u4EGxW6KN93u++3mLVDQ5+luAgUhepzC8934GVH1qKkFB3qKCmTjQXx9+le7MVs9lzKStFMez+HxgEBVSfz6BMDNFTHDWLit4qg8N875P3SQ650scf7cOOePV6Pz/2/fgG6v4efXeQOyODam7aS2fyxwuIL7Es6rTI8R9I7Nemj1Zsp/Y/MWjA6c8hfpMN31QAH1Rgt/POvN3x8sdD6thfEWhn4vT+1vupWvLCNYK4qNwUN2dLt6eO8P45w/O8bRKj2KqxbazDM6phbGhIkd/1zK4N8TKHy1g96uDuq3JSCZqkl/3hRiLOQ8clupfaaCYbSU7S2aLi8vXuLSMgXabf1+L7w51Lxhon6DAkdrFrUn5wrjbqFQx+FPikbf1kNvWx2F6yUGy5JIaZTPev18UOgKPKtYlKeiu9BC+iM7GZyKv1xc+psaZZSe+ndMNG1LJXG9nq2ljQy8UYD2qoXyZ7vnbnmdTUwCSXEg9TbPCCCdb3fTFbgLLpt55SUL6ud+Ru5cs21ji3irU8/ZulQeMpTy8bpG74QdF4f3t6PYWUjyUpA+MVKVHuddKqaaoSDxZ3AWhj/NYWBwP4WbE0jckEnlGybqN8Bo/Uv0XfAmi/AZUG6q52i5msHt61j7VAvs6ueNJ9UgjdH2SytppZ5WvunlceLYuCOC5XHuEAsU9Hm7BIDPZhR6Lvry5OvlBF/mQaeWvzV6B4miwO2wMnIycPvwzxIq4MMLzgjTTlP/t+gZ4wzu+rICGMf1N9kHgnA7TDj5kAQ03tYFyTmODT0676zN0Nw4zphpez4jcHLGtSu4Ae1XP8PWX0HKP64jq9GKe2kcua8eYeCnnrlrn00CyzLpnBpv108hwLb+WcYLqkgrr2Drw2oUvopcocbwP/SANPsanb5Wvh9nB2nl8zDUmhkoTUCtAJYo0WUXkxsFtpP2EOvDzaNJO83PlDL0f/XUT/UO6Nla3sPvugq451gpea12+V/NH5eFqvRs2sa1FBpNgbMTVxVwdMQ+c0WEJWq2llegQ6LLMur/ye0z23H4U8Zi2OCr5N+lMwts++6w4DVM6odTSVyfQNq2Ro4OVBB/2UzJVCCnIvllMx+d8Zud6qV4eDeVWcCYmZGwg6Rg1OTurcOAhfLvpVLSamLkpIm2klQ2vgKGgPkoboZqShlctpumbaEuTiCVvoIBb3fzwMue7n7pZAtVH+RQ+XSsZ6JnQQUj327kvQ/N/FxnZcczexgN81Im/6iIeP8u7CVqtv6oCDVjGC3eF76InwEF2qxGjn84zvkz79O5LQ7lEnD2v0KbqoLiJCVcNPJCVgts7+fUSC85f99D+rOmhS9r5tECBX3RRK8AsOL4VP6Zgvs3BK6Xk7sh2Fs8REfdI9vja0E0U5ubTZZ8e9HTrWT7y39EmHaaViUPNH2cuD9nEb3wxeJbm275xmpsWCl/1POytDKvG7BQ8h2NbMFRb8ugbztr59TxRnI1IJ2omJ6ccfc9KAFHfTYpzxuxXVWSWNrDqVP91GTEwhVPIXpXsNaXcFy00lY2vXjx8hUalme2y1PJTLfyFW8JPWpLq5WVHUti0KwBJj8L3L8Q/jSMcRzUO8tmVM7K9VsoWAWO/UOMAiyNQQdIfw+Wr89AinBSwgUjO5Lz6bqoo7j3UMASIHP6hpZEgHNOT2U133mLxI0exxIlhu8XoUai6+QCBta3wgOZFKYCY5YwFpxWoNUlAFbG50w7h5hMOo/3ULZeYri+lKwdtQx9JZuBf+ugYAUQ5bkW7mNVlJjUFL8a2AUdEd/6dj/OxnA3SNZB2iZSKSvVo16qxrA9H8N4C4PynrcQ1PcGuRtVKrRB6vSg5M9AKNcstNfbyd2ViXYJOMw9DMcUUfZ0LKplseRuz4ET7bwTam3GO9ACBX0KVq9N8nS/vC9vhFYSn7WbstLprThprvZiH28LYsxujspn+Plv5XERphWERWCJApUmlZqfFQDgvuYtYJXRRAOgQPdkHUf/fYzeXb61+dxcuiBBlI4ZDe/hmDCStzGb2retOLwTHcLibeXT7sycY/b/bXTNjTPki6KWBxOAq95zrIpGC4x8+ld5QuCvjFuB5b7rMDvpTAvpKRUM/V89NQOHKEsIUgECSCFaUv8uebpEl3jH8M1j3iIR9nGE8lVPJf/5pyQ6yJhAKUQjgyS5AcV0y/nNWJZA8QEzH53ztG4NvJyJTunA8QGwQYcWF+/0m5Bw0JzunYjl3dY+bwEslCfKXzZncptbqP0kh7InPVfM/Venp3HId8mX3Y8WcP519oHzqm8EWyZmFuE+AyHYDtbR9UAFBd7Z4+6/2ECrmn4WYjQkYmMikrLtNlugoA+U3y2kMAZGX+9hJMTNGzlvC+LEKB8HucEkSzUrE1OpMrsiTCsIdz5VRgfnz41z6lU9UMCA98VlYJt3Edxz45w/N/dip54CF5iqNDTEpwLoKXwuM3BNzcsWBk2+CiBytiP7Gb6qwFB1hI98Y/rOjXPe6Ak8g/O18qVS9mR43UlTLluxWICv+9YwXEDeFjLHX4KVIU7OnpluLUEZS3wcEGwZjPGPGQHi18TOmWfp9B7Sn9rD6D8kUX+0g9wHgreM2Q7oWf6tOBqCTeT+xLNch259rKcbfp7yFomwj6Mzg42rU4P/VNfEOCP4L110B3OZqUpZx8oX5b9MgXcoEoCa6KWA20zJCg0ri4P9hJ0b2wc2IJP4CB+NQGO0bYxjebD8XLAyeAYM6+NRoiRxl+dXtORbU54O0FG4t4fermISQ83GnbTT1Wgisaoo5DCNcKm/nYAaGLHNuFOn7geDdxZ6RM9AMJfNtO2XKKzwLDL9RbFgQR+KOMr2FKCdaCfvBy2Mhgjg3WeMNLw+2zL8/hQkphWgxkJLuzXw9wq9CydKF2OIX6uKMK0gfH5cco1PBxPeNfvCIrlwnPAsEUFUKpl6372vJPG7qSgw88L2FkZ9b62Xx2jeXs4QCnIz9DdU6Xtm20WjvS8G5RLvMhWnjdT+0ihPOs3byqfe5hnwPRvpinvqTV5y2el63pvfJPnCvwtAoyczDpytDTMGw0une2i3gnZnsvdXEdR87/t6ONOBMaALS2L4zTpsJJG7aY6q5ZqF2mdasKGnfnA/W2cZw6lbv8XT9fm6bGHtSSd9jXtwoicnyRfGz0PeIhHJcawxIF220f5ra2BwMumkb387UsBx3MFUCcR/w4XU281h+b1ibafFAuptaZ6gSJmAYRNg6aBNtqyYZG2h4Zhf2humQa1zw+FBhv1bqSZdDP6yjtGoHHI2eepRdVwCieuDbCtVgArNmgQS18d5xtUG4T7WTINUQLHfkkvKr6mBS1zyxQUXz+KQr1UYzDeTKIgD2y/qAp+5SSd9r3cjRaWSucHz70T2DMxk66ljcM1OCv2GHCjv1YHDxSXfjolxRtARM0c5dSdZuKAPUDxcwVudBWj/sIf0f4wjvWwPfSc8EykGe+soSY/jobQK+i7q2PrqEYrD6GlVPLybpm1anJ3ZPPJMnef7jrRTkpZBw7gCw6sVU+v/RJJWED4vpCtOWBMz9fb52WSIX+M4XRc4Wepb69hY2MIoOorfqA8IqJRJu6nZoPC0wPjG3q3OoOG0hHZbL5XrQ5Toc9DGZaLASVued7Hz+2N5NLOCtjEpRFDmbeUjibIwlnXoKoxj5f3esY3f2UzViZvLb2T8BsOnZXgHw1voq89mbWY7ztgifv709DGonqimfsMl2rJS2eEbOL8jlbxewiqLHD11dF0FHlAycWgPDY0zt67T3lp0VQFN27RIJypICSj7kii3KEluqA5oEb7ZvEXiRo7D2ZnN2ty5j+POpSStvA5DlP/ECe+9ktXOpdgimn7km3DgS+ug7Zktc6S9UUqSf1yHARMlOaW0HbEycsJI7TPfpeRtNYVvVMzPsAppjObXzCQ/VxTwKxaKhDQKY0w0NFpwXnYy/HoHw/7rWoayROv3zGVT22/x5juV8hNgqNo9Xa5F+AwEuGikoRHKSgMXsdcmZWOYaKHhoB3XRTtdr3fDhgK+F+4ItTvAggZ9eGfxHD1tYeDVHNQuM7WFnokUJfWDOKLTqHy1n/dOm6jPiPW0BMxJQXy5mVNdFRg+G6SqMJusZ/cwcncSlb3v0hmwtEMkaQXh88DNpYDhCp4JS1Or3c9CsUxH8rZGjr5nkv30kndG26/epbc0Ca3vpWmZd/buczdewSiTqjn6ag7xyzzfoFimI7m0g+N91Z6B1HK+Vr45Fm9VrsuhJisJXazKmzcFqtgkCveaOSqfrbeQvIPhK/V3YXu9lKzcfKpMn2Eo7+F3g7tnzjD8lZnObRocr5eSlVtKs0NDWVc4ZZGLD9/3dmmNmWje1xJ0s3zqaxkKVva1YFPn0HT0XQ48IZ8AczN5i8SNHIeJ99p2k/i3MI7jThaTSef/6qfmceXc90pMJp3/doSmrJi5096omEw6j3aQq7bT/Gw2WYV1DEdl0jQU+NvAN8N1pJm2YOvbKeKo7G4k8felPLo6iRcmUul9y29dy9nEZNL5v3qo1H/G4Zp8sgqrOfyZPkidHuEzMEVi9M39jKRWkDv1W8heyzJpGtgNr2ewNjGLwWXVHN2bOvOF+w72pevXr1+X75zNrf5xYOHO0W008S9PnJLvFubBP7+9VjxXt4EozxY3cf2F2+1W34ML3tInCIIgCIIg3H4i6BMEQRAEQVgERNAnCIIgCIKwCIigTxAEQRAEYREQQZ8gCIIgCMIiIII+QRAEQRCERUAEfYIgCIIgCIuACPoEQRAEQRAWARH0CYIgCIIgLAIi6BMEQRAEQVgERNAnCIIgCIKwCIigTxAEQRAEYREQQZ8gCIIgCMIi8KXr169fl++cTbfRJN8lCIIgCIIg3ICczFT5rgVzQ0HfrcygcOfoNprIuee4fLcwD7qvbBTP1W0gyrPFTVx/4Xa71feg6N4VBEEQBEFYBETQJwiCIAiCsAiIoE8QBEEQBGEREEGfIAiCIAjCIiCCPkEQBEEQhEVABH2CIAiCIAiLgAj6BEEQBEEQFgER9AmCIAiCICwCIugTBEEQBEFYBETQJwiCIAiCsAiIoE8QBEEQBGERuDVB38Ux+up3kpIYy/IVGpaviGNj2k5q+8dwTcoTC4Ig3IFcY3S9mM3G1RpPObY6iawXjdjc8oTAeDcpK7zpZmx1jN5o2nBM2mneqCGv3yX/ZIrrZAs7UtaxcoWG5avWkbKjhZGL8lRBTBjJWzH7d89qrrxNurH1V5PurStWJmZQ1W/HHaKeuOHjmE9uO4P1O6fui4c27qT2SOg8T5ntXEy6GNmXz9pVnuPKa7UjydOE47KZklUaak/LP/CadDGyLzDvzSeD5IfIro3zWDXpqz11ffqLRhzX5CmAC92kr8iga1z+QWiu/vwgz4hsqx+T/9kU97FSVoZ8piRsrX7nfJ81aHwinaxm5apqhoMd0+fAAgd9Eo7enTyUmEH5oUtot1TT2dVDb1sFydpL9D2fwdrkCgYvyP9OEIT5FlBBerdQlcFsaX0Fb6i//UKaMJL3TxlUHXaj295Ib1cPTdtjuXK4ghTDTgZlgYbkHMeGgvgniyjeJd/iUd1g2rlJjL5WSsMsFamzP59Hcvcw8tU0atp66KxK455Te8jamE/fhDy1n0knfS9VMCzfH7a58iYx+toWUp4f5K7Uajq7OqjZBH3Pbyb9tbEZQc8NH8d8ujZGbfpmSnonvPdFB5WPXaLr2eB5njb7uXD+Zgd5v0/irdPjnH+vE/0HWbxwLNjbxSwmnfQ9X8rgVfkHXpNO+n74GFmtvrw3UqwdpyH3MfL6nbLEEVwbewt5xRbUzx3h1HAjD75fQUqdRXYuJIbb67A9XcZWTcAHs1J8Qx/kGfFsabGeNNqvfkX+Zx4TRkpeMIW8Ju5j5aTXX+HxAxZOvVUErdn8sMcRmGjSQV9jN7ryfAx3B370ebGgQZ+zfycpL5qJ3tLIe6f6aSrNxLA+gcQNmZQ19PPRcB2Gi0ZKUvJnFJqCIITm/E02y0vMeKoBieEXNSzPMxLiHR33sVIeyd3DkN0VstDziSRtWLwtIQEt/bnV9NlDV2Kuk91U7Uj1vHXfaIvXvHEztK+a4at66t8x0bQtlcT1CaRta+To4WriL5t54XVrwLlyXhgFkigs301ZqXxLQn2DaWc16Wb0QBZPtcoqKn9uMw3PW5D0dRx9o4KtGxIwZFTQO1iH4aqF8l/47qmZnIeqKbfI94YpjLxJp/dQ0urAUGuitzwTw3o9W3/az/FaPY7WUtrO+CW+ieOYT7aOUtrGtRS+cch7X3jyPPCcdmaefeY8FxKOP46Ruz0TrQJYGkvu02kM/j5EhBjMpJPBygLKT4R+gl1vV1N+IprCVl/eUyk8YKI3L5rh5+sYvDydNpJrM2pqwZGwk7InY1Hdp6fyJzlIvYMM+1+QcSPNvQnUbE9A4bd7LsqHc4I8I7spS1XhtINiQx2d+Vr5n8EFE+XPVDAcKgDGxTv9JqS8MirXq1GtyqHyxzpGO8zY/FJJv+uh1lXATzLCfirvOAsX9F02Uet9KDtrU1EvkScA7svkwBsFaK9aeKH+1jykgvBF4PrUCsuiUQLg5tKfgQfuD9Eq5ODw6yakKD01g2OcPzc+tVU+fDNpwyCN0ZC+mZJWM7aLvgrIjeNkN+UpW2gYk1VK1xx0FcexNreaLrMNV8hC+lYaxzmqAH0S/xQj+0iTTKYepIMWv8rBjWPMBjFa1J4LNItI0s7iopXmZx4j/TU7iRv08k+njdsYAgybDIFlcoyBJD1gGiVoKDJhpOoVC4a8AhLln80lrLxJfPj/7sZJDjlPBFao6idyyMVJ87/4BdY3ehzzyonjT0pUcdlkPhwYuujW6AEno3+SvYaFdS4UaFfG0fW6EYcEXLbTdXCQtG+H1yTmthspT0ui5BAYNujkH3s5eefXFliVT2aCf94VJH4/Hx1muo75WvsiuTYuzn4iwbfUUy8riv+iAMzYpmJWN0P76nBtK+bxZb59N2HSQdfz1YxG6fn5y5mB98OkG1t/BSkppfShx7DK77MAE4xbIFE7/YDfE6WCiVEcvks4aaftlW4Sf1RAfCSR6h1mwYI+57EuhoDc3LTgAZ+X4uEiijeBZDLyjq+176Jn3Eit1cnQixk8tELDysSddH3ifeR9LQcb46a6nh7amE1Jq6wP/nQdy1fk0zcRwViEE3Xs8H7vVDprXdDuLLfdRO2OJB5aoWH5iljWZpbSZg3V1iII88WFcxx09/q6MTwFlvqeUCXRfzBxBsgqJnfVXJFFJGnn5j7RRfO4AkPVEU79wRtAnrXzXlsOWhw0m+1+qSVG9hRQdUxC92Q1A8Nj/PGsL+isIN4v5a0VR+HxMc53ZoYIquUmcIwC8dowWukiSRuKi77KbBpORrN1r5nO7UFaOnzujSERGHHI+j8nXbgcwKoY74uE/2dO+mqqGV5TR80PNBG1zISft3FGT0iQEOtp3fKn0BGrB+mEXyB3I8cx79SkNZs4NZCD/Kjcf/EETOqv+eci3HMB6icP0PltM089rGH5fy/FuqaXn28K54jGaE6poO9CLGUDh6hJCnHHuu2MjgFrtDPyjuZBEoHRD+zehpgIrw3Al+/y/y8gGoXvb+3dNJj0lG2Pi/BeCs5tbqF2DOJ/XEGaPIgcayHleSOOb+1mYKCapP8q+1xGMSPfyql8u81tNEu7KXsixDn9nFigoM/FqGUMSCVhzpBYSfz6BMCCdTSwrW/4pQJeuGDgZ10d1GxJZrVGAZfNlBs2U9J7iQd/UENvVw+9e6t5/F4bg/XZPNXqX4kAuDDXbCH9zSskV3TQ21ZHrnacruc3kx6QVmJ0XyobC9sZuTeT+rYeDuxezcc1m0l/aWafhvPtnTySUkqXM5bivT30tlXz+F0WarOCjYcQhPkwRu0KDctXrKPkBNhqkrwvPRm0Ac7XNs85kHn+JKBZJuE4Mv2S9FB6NX2+FzMvSXID0cTHx6LyFQVLFKgT9KxGFqheMNLQ6US7rZeB2hzi71OimOWFEaZfAH0D0T0vao756ZYOx2UrFgug10wHbW4njglQLb3E8FTeQrwURpJ2Fnc9sJveETP1m+cIHZclk7lFidRaTtUJJ9KkJ1AariuneUKB4QfJM4IAl6maqhOx1PwkE/WXZR+GIay8SZdwTRDQQjRNhXoFMOHA6asibuA4bolJCefJPTxTaUYRW0HmI4H1X1jnAmCJisRdHZw6M875D80c2BYbdoCkerKOo//WT3GcEnkIM8V1CQeBLVvTvoYmARh14CTSa6Pi/gcUcOas528B6T8lIA7PP+VmcP8epNJi0pYGfNGNkcZorjchxRTwkyeDXPElKra+eoRTvy4iXhnybAAxaPQw/Mfp0PXKVdd0C/ykna56E4bnctDNVSbd4RYo6JvAdgIgmugwXk7UWk8T9NCfAscsOKRU3nqjiLT1eraWpqJbAk7LEB+ipuytfuqzPGNrEjfnUPPGISpXgWP/kGzsj43hT/W8ZWykcLNnPGHlG72UxYDj18PTXTIXjLzSaCM6r4dTXdNjRAbeqUN9UdZRcNlMw0tm3Po6jg/6fW/X+97xEKV0ickpwu3kbS33DwppzZhqGV++wm8MYCRpp7ix7ssi5dl2hsY9NbF7rJvy9MBJDSp9JmlRThqeyqD2iB2XJOEet9Dwg530Rekpe8I7+hpwfWBhlFTKdobZAjBhYofB03Xs8I4/ki6O0fV8HYdvyRhhiZGWPQyhIC0jeboV0Nv16DpYR9vFeIr39tD5agGJ18wzXwojSRuSirTyIhLlrRxBKUmufZeBXV+hq1DPyvs1LL9/HXmd/0Bu17t0ylsxLpp44SULuqp6csPrXZQJM2+XL3mChBktLR53fRnAzZWpGZMRHsct4DiYyvL7Y3k0t4XR+4p4y1ggCxDCPBc3JY7C2kx0c9W7lyewBW3ZArgLFMCE2/PyFOG1iU8tQmvtoOWIA/cFC7WvdKN4OhODEqTTLTS8m0pl9vRzfzPcv22jbQIMobpc4wqoz4hFOWegpuJ7Gako+hpoPu3Cdaab2l/YiN+eig5wvd1Ag2I3xWG1tt7ZFijouzGS/PX8u/Ezomr1E40c/9BCsbxvfomW1QnAVfmXgC57C/H+M22WxBL/Xb+bGrAd62AUHQXflw0sjcmkbFvg+43rhJHBqwoKd8rGD0yNhxjDaFn4ESXCYhNH5blxzv+hg1yg0Ojt+jxejc7/v8vj5H+4AGwMHrKj29XDe38Y5/zZMY5W6VFctdBm9rv3lybR9M5+tt5np+3Zzaz9ViwPbcyn664ieo93BHTHOB0WiFHD79spyfUfNhFs0oeLvpdKGbqsIH5XD+997D32jy0MvJzAPbLUC8H5m53kdTpRpDbyM7/KwHXJjXqpAsOrZo42FZC2PgFDxm6ajL0UaqSAl8JI0s4PidFfZvPUPju61Aqaunro3VtBWqydth35NJz2Lz/dDNWXM7xsNz/LDtKKcltFchy3hkJX4JnVXZ6K7kIL6Y/sZPBWzSK+k8QW8VannrN1qTxkKOXjdY0c/2kCClwc3t+OYmchyUtB+sRIVXrc1DM+FPG5cnL4TTNE5VCw+eaDfOWmeo6Wqxncvo61T7XArn7eeFIN0hhtv7SSVupp5XNZW8hLjPVMSNvRju1ztnTLHRX0TfX5e+nUs1xIyY1rfIyRkya6GusoyU3imVZ5Ig+tKlq+y/t2colLbgAXjlEnkMCDQd5m1ZrAStTpsABa+IuVkZOyzeHiHsDmmLh1XUzC4jLh5EMS0HgDJs+SH3p09/mlWZZJ59QkjH4KAbb1B0zMmBqjFklaP4ZaMwOlCagVwBIluuxicqPAdtIe2Cr4VQ1x39YGvEy5bTYcf/MP5Fyc/QSYaGFHbh2DJx1TM5Ndpz2TPpr9R2OMD9FtAXVeB2+VJqD2vdTdrSY+q4DkBW1NkXAczGdjpQU21HG8ISlg/JgqqZrjH9rplM/wuzuOsp/kAGOYrZ4WvEjSzgf3sXKe2mdDva2XAW+Qmbi5gKZBMzVrbDQ/U86Qt9XUfayKEpOasr1FM16+b7dIjuNWUT/sN6t7oIL4y2ZKnu2e6uZcTFT6CgZG7Jw/N8bAy56JnNLJFqo+yKHy6VjPBK+CCka+3ch7H5r5uc7Kjmf2MBpJpWk30T4Giqw0EoO18kVMgTarkeMfjnP+zPt0botDuQSc/a/QpqqgOEkJF428kNUC2/s5NdJLzt/3kP6sKeSqCXeiBQr6YtBtwC+omp3rU0/LQOI3AscXREcFeV+fdDGyL5uHvhXH2o0ZZOWWUnvIinRfNls3yRN7RIfsY55ukv4syKQOH2W0f9DorZyw0fZsNlm5sm1HCyMAf74kZiML82pqYdKN1diwUv6odxxbXjdgoeQ7Gs/EpVvStQlarSxQWRKDZg0w+dn0vmtj1KYlUf4bJ4aXj/DRH96ntzQB5WUzVcFm76IksbSD4//b7p30McbRVzPR4qDh19NrfXkCXUhOjmzJh5s26WakcQspNRYUm+o4/it5a//sFNpYzwSET/8q/2iGSNKGx83Ib01IwbrQl6jZmpsDV00YLS64bOalF0yod9VTOD89cbNbGu0ZL/Z3v3vHz2d/B1ATvZTIjuN2eSCTwlRgzHLrF4sOx9IYdIAU9Hx/BpLfZJiIrk0IvvXtfpyN4W6QrIO0TaRSVqpHvVSNYXs+hvEWBq3y8iA027uHcKIg978vYM/GNQvt9XZyd2WiXQIOcw/DMUWUPR2Lalksudtz4EQ770Swms7ttkBBn4p4fRxgxvr7uS6imxGLBYhDHy9vS5jJ1ppNVqOV6KcbOT7imd33xxETB17OJGG2m24Od81ScHsGovp4B66SyoF/92sJkW9BWkYEYbGxHSylbRwMtSYOZMWiVKhI3NXD79pyUOCg+aDF+3Kk4B4lsGo3Nbv0aH2zPpYo0WXspCAh8EVKunZl+h+5VSadDFVuIWufDfXTHfzr3lkCvmshyj1J4oq8VyOStDdF4oqbkGOtFStjMQBM+oawgGNfRsAC3csTPYszDz+/juU388sccopoVDHAOWeQVhMXznNAjIpoBREdx+2jJHpBW5tvkioabcgXir8ybgWWRxNNpNcmOLe5hdpPcijzTrZw/9UZeP2W3Y8WcP413KYSJx+fdEJUDskLGPPZDtbR9UAFBXrPwbn/YgOtynNeAGI0JGJj4ha3Kt+MBQr6QL2pkLQoia5GI45ZHj7pdAvNx0CRWsjj/t1TQdkZ/rUDKKDmp6lol/nP7nPi/H1g6vCp0MarASsfB4nYHWcCZ+9Gq3WAmdFPAnZ7jHeTsjqJ9E75LGJBuDmqjA7Onxvn1Kt6oIAB7wvGwDZAX8epc+OcP9fB1ttV2fhmsn7dt36gi48/cAKpZG4KbBVUbkgjF//11JSov6mGM1ZsMwpQCek/A/co71WjAD603aKxs5NOBp9NZcchJ7pdPQz8VI8qaMDnZqhEw/IHdwZtcXXbrdiArXGxEaadD0qiv46nrJxxjoHz455f21gCynXFnpUR5NveAnSALs/zqyTF64JEXTdEQ/wGBVjsfCyPgSUbdgsoNsR7Z+SGfxwLymWmKmUdK1+U/9oEfj1Cc7SA3S7KWOLjAOvHM9czHP+YESB+Taz3OY7k2gQxaaer0URiVdE8dcMCbjtWK7AhHu1CXefLZtr2SxRWZAaZtfz5tWBBH0uTKKvSoxirZkelCWewwO+CkR3PtOOI0lPz48BxMcH9A0pv87580ofrSAu1Z/C8BcpvzDDoNuUTj432XweurM+EkYbWwFEZ2qRsDEi07e8OPK5JF4P76rBdljCsma+CWhACXXKNQ5Sv9PSs2Xc7SFfcnqUyAMllp+v5coZQkJvk63L1Vc5jDB2z4/I9WJMSzhODnoo5dbqy0K3fghozzfWm6d/qlJyMNJZTewbiNyRMt57HJrA1CkZriijv9/tuyclobztDQYKom+HoKaXkmNuznExpwiyzAZUkbkgCLLS/Kft5qmtWml8zQ0wBaQmKCNPOBwWJSTkoMNP8uuzfm3TS19kNUalk6lUoYuI8KyPItzUaooHolZ7/jo+Zv7yt/h85qOmm++3A8tbxm2a6UFP8z777KvzjWFCqBOK/4ULq7eawbBKCZG2nxQLqbfM13my+qfne9/VwpgNjQJeqxPCbddhIInfqRS2SazOT+1gzDVIBxX6TLZRfUwcO/7p4FseMdQ1n4Z31rovThBE33BhbTx2Da3ZS6LfwtvJeHThcXPLtmBhnBB0xd2JgH8LCBX2AOqOD43sz4VApj67NoKTRyPBJKyMnjDSUZfCQoYLhf0ii/mgHW4MtFzSDlu/l6AEjO35QR98J73eVpPJI5bh39XEnl4K9/c3lvkx+skuLszObtbme7x7uryMrrYIR+e28LJOaV/UoLNVsTCul7YgnH7XPfJcSk4R2WyOF8tnFgjBPpCtOWBMz9fb52eRsv8axcLoK4zxLZazQsPI7m6k6IaHd1kvlet/zosDw/d1ocTJYuZm13/J2Ed4fy6OF3TjQUvy0frrQXpVJ2QYFjkOlbHzQm/ZberL2jUHs7sCfPlIkUPlGAVoc9D3v993f0pP+opV57fx1m2n/xRigRi0N09y4h4YZm3lqwL5yUwX1GxQ4WrNIL2ln8KS3LHkkm7bLOor37J5aXiKStPNBsb6Ct7ZpcbRm8Uihtww90k5JWhLlJxQk/2w3ybepAlM8vJumbVqGK5NI/59Ghk9a6PufGaTUjM0oU++M41CSVl6HIcpC+fdSKWk1MXLSQl99Nmuz2rkUW0TTj8Jcfug2UD1RTf2GS7RlpbKj1cTISRNtO1LJ6wXDqxUB6+hFcm0CSGM0v2Ym+bmigPtYkZBGYYyJhkYLzstOhl/vYFhTFPYLjvsvTiRg9X0L1AZ30UhDI5SVBg7T0iZlY5hooeGgHddFO12vd8OGAr4XZALonWpBgz4A9eY6jo/0U78lGsehavJys8kqrGPIpSZ37xE+OrWfrXN2605TZezn+Ks56Ca6KS/MJuv5DhzLChj4NxNNWfGAFbvjBpr6UBBfauL43gIS/2KkvDCbHXs+RFtxhIGfJIAsmldndHDqaCO5ajvNz2aTVVhB318SKNxr5mj5nfugC593bi4FtGJ5fo1j/sZ9zU25LoearCR0saqplhdVbFLwez+2iOMjPVQ+EYcqyrtvqZbEJyroHTFTFuefWkXar96ltzQJrfdZUyyLI628h98NBlYaAIqHKxg42khhkm7qu5WaJAr3VszPzzv5fDJK31UAJ8MHW2jeF2wbnR7vtETN1l+9z9G9OahtLZTkZpNXM8hn+gp6j5so8//JrkjSzgsF8c8d4ujeHFb/ZZCqwmyynm3Bps6h6ei7HJD9zNat5cnbwMtJcKyavNx8qo7B1lePMPCcvEy9Q44jJpPO/9VPzeNKbK+XkpWbT5XpMwzlPfxucHfgUmF3miVqtv7KTOc2DY7XS8nKLaXZoaGs692Zs8kjujbTXEeaaQu2vp0ijsruRhJ/X8qjq5N4YSKV3rfCf8GRrnlHAv+XMP8gIhKjb+5nJLWCXHkwuyyTpoHd8HoGaxOzGFxWzdG9qbf8hftmfOn69evX5Ttn0200kZOZKt/9heY4mMrGGhVN/7uDtM/T1Z1n3UYTOfccl+8W5kH3lY2L7rm6EyzG8kyYJq6/cLvd6ntwwVv6Pi9cb+fz0MZs2uTzLybtDPXYIE5PGJOLBUEQBEEQ7kgi6PNSJaSx+qKV2pxsqnpNjJy0Mty/h5K0DBrGtV+4GTyCIAiCICwuIujzWZZK5/EeKvUwsqeUrNxs8mqMOL/p+YHsynkfWyMIgiAIgnDriKDP37IECht6PD/Dcs7zUywDDQUL/APZgiAIgiAIC08EfYIgCIIgCIuACPoEQRAEQRAWARH0CYIgCIIgLAIi6BMEQRAEQVgERNAnCIIgCIKwCIigTxAEQRAEYREQQZ8gCIIgCMIiIII+QRAEQRCERUAEfYIgCIIgCIvAl65fv35dvnM23UaTfJcgCIIgCIJwA3IyU+W7FswNBX23MoPCnaPbaCLn31Xy3cI86P5Hl3iubgNRni1u4voLt9utvgdF964gCIIgCMIiIII+QRAEQRCERUAEfYIgCIIgCIuACPoEQRAEQRAWARH0CYIgCIIgLAIi6BMEQRAEQVgERNAnCIIgCIKwCIigTxAEQRAEYREQQZ8gCIIgCMIiIII+QRAEQRCERUAEfYIgCIIgCIvAggV9rv58lq/QBN9WrSMlt5S2k67APzpdx/IVGvL6ZfvDNFqvYfmKfPouyj8RBEG4Sa4xul7MZuNqbzm2OomsF43Y3PKEwHg3KfJyb2qrY/RG04Zj0k7zxlnK0UkXo73VZG2M8/4bcWzMrabPHuxAAtkOJLE8z0iIb55bGHkb2bdz6hw/tHEntUccSPJ0Xq6TLexIWcdKX72yo4WRhSr/J93YjtSxw3feViexo94U/Poj4Tzhl7cVsaxN2UmzvM7zcdsZrA/juK856Hsxg4dWaFi+OoOqY055irDMdR3ddiNVmdPnNT3UfQ5w0UrzjiRPnlbEsTHUNbhmp63Q850rE/Nptgb71yVGamJZ+aJl5rGHNEbtjOdGvs0eFzh/kx86zYSZqnTPNX8ovZq+T4LlzElXuob0gw75B3ecBQv6fNQbcijeVRS4PR6PZDNRm/sYKfvGIri4giDcqIAK0rvVnpan8ogk7aIwYSTvnzKoOuxGt72R3q4emrbHcuVwBSmGnQzKKgvJOY4NBfFPysq+XUUU74pHdYNp5yYx+lopDePy/V6TTvp++BjpLxq5oiuiqauH3r1F6P5mpDzlMXYcCVYRe0in6yh57WYqtTnydm2M2uR1ZDVaUD5RR2dXB5Ub3PQ9m0RK/cx6wtmfzyO5exj5aho1bT10VqVxz6k9ZG3Mp29ClvimSYy+toWUZ7txes9bZ4WeS72lpKTXMXpNlrY+lUcLp/PW21bN41+10hCszrs2Rm36Zkp6L2Go6KC3q5HCe620PZtKXq//+ZYYeS2V9qgyfnd2nD8OFkNjAc12vyRhmOs6SqfrSE+p4PBd0+eVwxVBjtP7XGzMptkZS/Fez72kdQS7Bm6GKjOo/VsancPvM7AdmrN20CW/F8aNNByMpbJAj0L2UWhfI37Gc+PdshI8z09UNPfcLf87rwkjVZUW+V6PSTvNz+xkWF3B0RELTd+2Up5ex7DsPEiWDmo/yaHsSW3gB3egL12/fv26fOdsuo0mcjJT5btncPXns/Z5C4ZX36czI0ixdc1KbXI2bRNJNH24n7Sl8gSRG63XkN6qp36kg63L5J8KN6vbaCLn34NcS+Gmdf+jK6znysf5m2wefT+Hj5qSUCIx/GIseX+u41RnZtAgwX2slLXFphkVZ6FxnMqHA/fNntZFX946ykOUkQDoZfm45mDwl3toPmTGcRmUmgQe315J2ROxKJcE/umNcJ3sprn3EO+ctOG6ClDAwLkK4uUJgwivPHMz9MI6dhxKoP69DrbG+H003k36xmpsT/fwUVXCVEXlOJjKxhoNB/69kWSlX/ogIkk7q0k3o615PPWaJ6gIVva6zRWs3WEksdZC55Pq6Q8mHXRlJlH1SQ69p6tJlNW47rEWnsndw+jVINc3HGHkzXYgiZTXnBheNdOZMZ03Z38+G5+3ktz8Pk2bvCfIbabkH3cyqK/jvbZM1L77aMJI3qMVDKfu9z4bswvv+gNnWng0bQ+Kbf0cLY+bDkjsLWxM2YNUeoT3dsV69n3SzsbkOqS8Ho7/dPqeAInhF+PI642lZrif3Pv89h1OoP4dv3tr0klfoZ5yi3/96KQrvRpFy3T95uzNoEpxYMa5DGXO6yiNUbsxgzZt8PPq8D9OvGWBo4DeoQoSfUGVr27/diMfNad6rsFFI3mJFWh7x6lMAHDQlZZEe/IR3tvh+z7PuaiK6uW4/zm+Yb7zrabQaKLy4SDfOHWeAYLEDqfrWJlpo+a9Hs+1kSxUfSufK81j0/ei99mxfH/mPR2OsO/BebLgLX0h3Z1AZr4OMDNsDdVuLAhCMK5PrbAs2lupubn0Z+CB+0NUxA4Ov25CitJTMzjG+XPjU5s84IssbRiujVGblkRJqyfgA3CPW+l6fjPp3gDghl1z0FUcx9rcarrMvoBvIYzjHFWAPol/8g/4ADTJZOpBOmjBNrXTjWPMBjFa1HNFHRGlncVFK83PPEb6a3YSN+jln05xXBhFgZ4kvV/AB7BEy/e+r4er3VjO+O2fdDGyL5tH0vdgW6fH4PdR2MLK2xhD+x2wajeVTwTmTZ1RRnGMxGD/0HR35LiNIcCwyTAdmADEGEjSA6ZRQrdlRc7psKFcFkfOFlkwEpuIAXCOfTyVN5fDxpUoSE72D/gAFBjScoAxLB94U18cpLtXIr68OvBlYomax3NzACu2cd9TEo3221ba37TingRpwkL7m/9BfGzwpz5AmNdR+mCQrgnIzU2Tndc0crLA2WpkxJedC0MYLaDL3zId8OFXtx/r4vAF776JcYZJQDN1ae9B8V/BOeqYvqb2dmp7Eyj6wXwEfCBZ6tjRK6HdVU9ZsIAPcL5dTZVFT2FegvwjAFyfOpDQob7Xu0NxDwpg6E/TTZRucwu1rgKKN4dxHe4Aty/oA+6J8pwk9zXvXTRjTJ+LvjwNy+vHwh83IHfBSN4qDcs31jEiYkvhC8GFcxx0937F+98TjFtAfU/wgg3+g4kzQFYxuavmiizmSqtia+d0IBiwHd2N1lsR+4o/W0cpbeMKDFVH+OisN92HR6jZoMDR+gp9vkohYhIjewqoOiahe7KageEx/uj7/jBb+cIXR+HxMc7LW0VCmsAxCsRrkYVWQUSSNhQXfZXZNJyMZuteM53bQ3cxxW8z89G58HtCXG+Xk9VoJXpLI8d/VUzobw4lzLxdPIvtKpCwGu2M1t9Y4r8LWOx87As47o0hERhxyPpxJ124HMCqmDlb+SKhfmI/R0f6ydXIPrjsxAnwdd8LGKg2NXLqTHgvSe5RK8PoSFs38+or9NWcPzfm10KlIPE5EwVXG3jkfg0PZTZDaTvFvoayWYR7HR1nLEgkEKuVlyUKHnxID1ctjHrjHbdtlFEg8YGZ36bVJQBjjAYMBFTAl/3+EyBK4Q3w3Ay1tiCVloV9b85q0k7bK91IUTlUbg8RRE4YqaqxkFhbTc7KoCmm3CW7J6Pv8qaftNPVaMLwXBHxs3/FHeM2Bn0SH39kBdRzv6l80kzexp1Y78unqauHpnI9ipN7yNpYypC39SCoCSN5KRUML8uh860KEuezFBCEW843YHkdJSfAVpPkHW+XQRvgfG2z57/rx+R/eAt4Cm1HVA4FU2+8doYPOWFTPU1P+3XlLo0l9+VqDIxhtgYZiC4b1L4yMYOqftmg9gtGGjqdaLf1MlCbQ/x9ShQzgoVb4LIViwXQa6aDNrcTxwSoll5ieOo4YlmbWUqbfPB6JGlncdcDu+kdMVO/eWbwEB43I54DQePf4qTQUtb1Psd/nhrY8hOBm8+bj5NLvvJ+WTKZW5RIreVUnXAiTXoCvuG6cponFBh+kBwysJkv0gUrDdvLGYrSUfn98Mag2axmQIH2G55nxHlhDEhA+w0XI62lpCfGeiYMbAwx6eNuLVtf7uejc+P8caSfmk1hntOwrqPEpf/jBP+WLT+qr2sBJ45PPYHcJdc4BLTe+VmmIREYveANymM0GLAwft6X4ArS/xfU31R7guUz3dSa9JRlhxHBhsH1dgMN42CoKsIQdCyfi8GaaoYfqKZyi5q75B97qb6hRYGNs753C+kKEhB/n+chcR9rpkHaTbGvq/dz4PYEfdecjLaWUtIrQVw+yd+UJ5CxWKHKRG95Job1CaRta+St2iS4amIoVNewy0LVMxUML8vkwBvVGOaIKwXhC+WikbypSRieoJDWjMAZbb7Ze5GkDcXeTYNJIr483288mIR7AliqnFkhLrsfLTDy6V8D90+Y2GHYHNAdLF0co+v5Og77tey7PrAwSiplO0O8xd8SEiMtexhCQVpG8nQroLfr0XWwjraL8RTv7aHz1QISr5mpzXqMvH6/QDeStCGpSCsvIvEmWkgkawsNx0CRmsn3/L5HtbmC4vU3U3iGmTeV2hOkfXI2yH3mwPGBfJ+S5Np3Gdj1FboK9ay8X8Py+9eR1/kP5Ha9S+cTN5PnOXhnW680ZNN8Wktx1yEKw4lVJow0NDpBU0RanGeXdMUJOGj/4WNkHZJIruigt62Orfd6Jn2kt9pvbgiEV3jX0TtMJEjLFgD/D8//+Hrm3H+xBW+9A/gyKADnFW/ulyWTmaqgq7GF0YsubAfrqD0TR8GmWE9rcOMeFM8Vz8vYfibt9P3SAjGhu1xdb5fzwolYal7NCdKy7CcujWKNlfZ9JhyXnQzX19EVlUPmBiVIYzS/ZiGtPAfdbN9xh1nwoG/4+XWBlccKDcsf1JNeb0aKzeTA3jlOOgCZ5MjeEpVxehL9u4b9uceofSqfrr8l0fRGHcnycTiC8LkUR+W5cc7/oYNc78SK8+fGOX+8Gp3/f5d7a5RbZrqVr8xvAD7EoNEDvXXU+lpjAOmincH6BvoAxp1+lbyLvpdKGbqsIH5XD+997D2ejy0MvJzAPVPpwOmwQIwaft9OSa5v2EcsazPDW3pkPjh/s5O8TieK1EZ+5vem77rkRr1UgeFVM0ebCkhbn4AhYzdNxl4KNRLDz5fS5e3WjiTtgrlgZMe2dpxRqTRVzT35YUEsiUf/tAIsHbSdDizTJesh2v3HGXr2MvrLbJ7aZ0eXWuGdhVxBWqydth35NMi+Y159+UEKp/49B83p69jx9hzBudtK7TMVDKOlbG+RLEiwMPxpDgOD+yncnEDihkwq3zBRvwFG61+6iSEQdxIlybUmKtUmnklcR/rrUDbQSe59IJ1up+WDVMqejPWOPcxn7Srvkjg3EPRKViPNExC/PTt4l+tlM6+8ZEH93M9mdtfLLYml+K0ODOdrSVmtp+T3CTQd9Ux0ch1ppk1RRGGSMmApnZWJN76Uzq2w4EFf0CVbXm6kd9DCR4NhBmQxKqLlF8/7JuFwyd8Lx2kvyqJtHBTxySSG8/2C8Hky4eRDEtB4W088S37o0d3nl2ZZJp1T4+36KQTY1h84Bs83Ri2StMH4Wvl+nC2b9ani8Z0FaHFMt8as0LAycTMlrVbc+I/pAcaH6LaAOq+Dt0oTUPu6Ze5WE59VQPJUa5GLs58AEy3syK1j8KTD811IuE53U56yJeJlLCIj4TiYz8ZKC2yo43hDYKCkSqrm+If2gBmoANwdR9lPPAP5fd3akaRdCNIn3Z4hMOipf6eR5PloabkhChKf66VQ46Atcx1Z9UaGT1roq89mbZYF7QZdQGr3sXKe2mdDva2XAW+wnLi5gKZBMzVrbDQ/Uz770J+bcV+c379nojLOzVDZLMG5y0JVejZt41oKjaagY/CSf1REvH835BI1W39UhJoxjJb5nJJyG92tJbfB7O2a7qAwTgk46atrR/XjIpKXescetkLxW+9z6s1spH0Z7HhbXsfPxs1wfzcSejI3BOt3djNUU8rgst00bQtyIYJR6ak0vs8fz43z0UA1afcBkpXmGiu5PylAt0Ri9JcFlL//IE3DYxx/+UFGigtoGIs0XL01Fjzo0yYVUVa6O3DLSiVxlTr8MThaFdHyfV5TzcfTe3BcTGDrFi3SiXJeiOiGEYQ719SC5xursWGl/FFvEJXXDVgo+Y4m9AKjC2a6la94y8xRVIqHK3irt4K0h1Xe4E6JNqmAemMjueA3A9kXvAab9RiKksTSDo7/b7snMD07xtFXM9HioOHXkSzuGoFJNyONW0ipsaDYVMfxX/ktaxEGhTbWMwFB3q0dRCRpb4Tbuof09GqG/yGJ+qOypWhuh7vjqBw4Qn2WhrO9FeTlltJ+IYEDI2ZqNnjuEk+3o5uR35qQgnXvL1GzNTcHrpowWm5B2b9Ey9b81MAZuf4uGNmRnE/XRR3FvYeCLxsCqO8N0r6qUqEFbH/5D/knC0RJ9Nc9/+8zb6t8gP+f53/UX/PkVXmvDpDg74HJAPg7SPhPNgvOt76dp+xw8E63BfXOMnJXqVCtyqE4C4bfHAp/JrbbypAJz0z7IEMK3MeqKDGpKX614Ka6ZB2/aaDrgQpyHlGAZGWw1Ula6W4M9ylRbyiiQO+g+V+sC1MG3aQFD/puPR3FXfup/1k9xRqJ4ZdqF+6NTxAWO28rn3ZnZogB06BKKKDJ+6Z8/twYxw9UsDXmM5yA4ZvTkYZ07UrA34Wm4B4lsGo3Nbv0aFXeinSJEl3GTgoSgD9f8rb+zaNJJ0OVW8jaZ0P9dAf/uneWgC/YsBMASeIKoPCv+yNJO0+cxypIz2rBtiyHzqH9bPVvJb6dlLFsfbmfU2d890oRicskHDYrxMSjVQFIXHEDRBMdJFZSrIz1LEkSLHBZAMro4E0S0pkW0lMqGPq/emoGDlGWMDOzqm8EXyrk9lAQ/d/UgANnkPjV9WcHoEbl7XaLVmkAK+PBXjIvjjMCaFXBzw1Mz7DVled7yw7PygFa1XSfglqbAGcmwn+WbaMMylYQmObinX4TEg6a0z0TZnzb2uctgIXyxDBenC+baf6FndzSTM/QtMuXcALRUzejivsfWKAyaB58AYM+FTH3KkARR/FPclBcNVGyZ4He+gXhFlJldHD+3DinXtV7FyD2dL0ObPMutHpunPMRLMdx83ytfN7xOGGTGH2zg2H0JCVMF83Ke9UogA9tc73XK1F/Uw1nrNhmvNBJSP8p3zcPJp0MPpvKjkNOdLt6GPipHlXQgM/NUImG5Q/uDFpxuO1WbMDWuNgI084f59s7SSk24owtonfgTpnk5mKobB0r07pntupIo1gOg2JTIp5OXl+LlBPnjOsPnB9nGCDo9bkRLoZeTGXtqmqGg1Qkrk89Ofa1gAFIp/eQ/tQeRr2tqLkPBI/c1d9OQA2MBLvnJzyBk0F765pgtav0KLBg/6P8QCU+/sgCUXrivePglLp44kPk3WGzAnHE62YGuj5ucxvNUgE/kQ9tuAm2fzfPsiKIksRdPfR2zdya8nSAjsK9PfR2FZM4yzAH22/2MLimmuL1wa/pne4LGPRNU+h305SqQOqtpsEqv4kF4fPpkmsconwFjmfNvtvC28qn3lYY3lgwyY1r3ELbjlTSWx1odxXzuH+AGpvA1igYrSmivN+Oy/fISk5Ge9sZ8guMdOu3oMZMc70Jh+8nkSQnI43l1J6B+A3en1+aJ46eUkqOuT1LxJQmzPJLIkoSNyQBFtrflP/clpXm18wQU0BagiLCtPNkvJuSMjNuTQFvGXffQctYqVBr70I608NQwHhMCVtrA11X46jc4pugpCAxKQcFZppfl523SSd9nd0QlUqmfr7uABWJa2NwXe2mWz5h45qVNu9M0anrdM1C7TMt2NBTPzhHK+o3kyiIA9sv6gJ/tmzSSd/r3UhRqWRumK/jmJtiTRq5MdDVNYjTv6V03EhzL6i3ZU6P273PszC5reMQI/4/S3bNQvcvbLApl8dDHfukna56E4k/KvCbbPEVYlYFjtN3OqwRrLnowjHqBPTogk7QUKCOSyBxfZBtpQpQoVmTQOL6ONShHrnLJppfkyjcmTZdviyNRg1cuuRr1/OOOfZbu/FO8oUO+kBJcnk1Bpy0vdTCqIj7hC8A6YoT1sRMrQv32eRsv8axULytfCTNvraW/3Iw34pj7cZ8as0OtFv20/kj2XgsRQKVb3gmfvQ9v5m13/L9nZ70F60EdP6uyqRsgwLHoVI2PjidLmvfGMTuntfWA9xm2n8xBqhRS8M0N+6hYcZm9izSCyg3VVC/QYGjNYv0knYGT1oZ7q8j65Fs2i7rKN6ze6qiiyTtzXMz1FrHKKD+hsTw6/Jj8GxDoSYkLDDd040Uahw05GRT229h5KSJtpItpDfaMbzaGDDTUrG+gre2aXG0ZvFIYR19J6yMHGmnJC2J8hMKkn+2O7wXkTD5rtNwZRIpc1wnR08dXVeBB5RMHJp5fhsa99B12hsgLNGSu7cOAxbK07zHfcJI7TOplJ8AQ9X8HsecFHGU7SlAa6lg4/c953W4v470x6sZ1RTQlO//rKvY+rM6DJfbyUrbSdsRzzXYkZZPF3rqy70/wRaE6+0GGthNWcDSOlq+l6PHub+BrjMuXGe6ae4lgjUXXTj/BKzShA7aborE6Ot7GNq0m2L/sZmKBNK2qRls3MPwBTfOEy20W7QU/3O4Y5NvrS940OeZmVhZFQfjLbzQuaBT+gThFnBzKaAr0PNrHAsx7mtWvla+0vDX1lIs05H4RAWdx8c4/vOkoOPhFA9XMHC0kcIkHaoozz6lJonCvRWBrYKoSPvVu/SWJqH1/vuKZXGklffwu8F5Xh3/k1H6rgI4GT7YQvO+YNvo9NIzS9Rs/dX7HN2bg9rWQkluNnk1g3ymr6D3uCnwJ6EiSXvTxhk95HnzdZ7oDnIMnm00yHiuW+LuOCoH+qnRf8bhmnyycstp+z8aynrfnTm7GQXxzx3i6N4cVv9lkKrCbLKebcGmzqHp6LsckP2U201bombrr95l4OVM7pn1Orn48H1vd+eYaca59W2WT/1aIGIy6fxfPVT6jruwmsOf6akMetwLT/FwBQMD1STjOa95NYPweB1HByoCZxjjzfvRDgq14zQ/67kGDu1ueo/PMjFIGqPtl9ag69upnmhkYBc0P7WOtT8YRF1l4kDYay561wX9r4qA5Z3mzcVBmlsVlO2UB7MK4p/rpmndx5QY4tj4opO03h7K4ubz2Z0/X7p+/fp1+c7Z3OofBxbuHN1GEzn/Hu4DKESi+x9d4rm6DUR5triJ6y/cbrf6Hvzit/QJgiAIgiAIIugTBEEQBEFYDETQJwiCIAiCsAiIoE8QBEEQBGEREEGfIAiCIAjCIiCCPkEQBEEQhEVABH2CIAiCIAiLgAj6BEEQBEEQFgER9AmCIAiCICwCIugTBEEQBEFYBETQJwiCIAiCsAiIoE8QBEEQBGEREEGfIAiCIAjCIvCl69evX5fvnE230STfJQiCIAiCINyAnMxU+a4Fc0NB363MoHDn6Daa+PqlZPluYR78OXpIPFe3gSjPFjdx/YXb7Vbfg6J7VxAEQRAEYREQQZ8gCIIgCMIiIII+QRAEQRCERUAEfYIgCIIgCIuACPoEQRAEQRAWARH0CYIgCIIgLAIi6BMEQRAEQVgERNAnCIIgCIKwCIigTxAEQRAEYREQQZ8gCIIgCMIiIII+QRAEQRCERWDBgj5Xfz7LV2iCb6vWkZJbSttJl/zPbr3TdSxfoaH2tPwDQRCEECbtNG/UkNcfugxznWxhR8o6VvrKvB0tjFyUp/JwnWxhx8Y4T/m4Ookd9SYc1+SpwhRG3gJMGMlbMTP9aH2Qslu2yf8mKNcYXS9ms3G19+9WJ5H1ohGbW55wJudv8lm+Ip++W3HeblSEx+c62U5J5vR9kV7WzkiQ0+g4mDrjfE9t9WMBaV3WFvISY1m+Ipa1he3Ywj0Hbjt9fnl/aGM2Vf123JPyhMCki5F9O/3S7qT2iANJng5wHqsmfbWG5SviSH/RGPyaXOgmfUUGXePyD0KbNa4IcW7cdiNVuUk8tMKTn4251fTZg10cCVtrPmtXea5L3j4rriDnQTpZzcpV1QwHO6bPgQUL+nzUG3Io3lUUuD0ej2QzUZv7GCn7xoLeNIIg3BxfAXlTLzS38aUoIGjybrcjHzNJjL5WSsMslZWzP59Hcvcw8tU0atp66KxK455Te8jamE/fhH9KidH6JNbm7mF4aSb1bT10VuhxHyplY1odoxFXLHPnLcCkk76XKhiW7wdUcbJye2rLIVEFoCD6Kwr5nwWaMJL3TxlUHXaj295Ib1cPTdtjuXK4ghTDTgZDBHPg+duqSot8r9d8n7cbFOHxee6LOmz/tYCfd/XQWW5A+m0dWcnVjATkWcLpsEFUHFtnnP8iiuO+Np30Qjc/3DZKUvcY58++zxvrrTxVaSZYWBPg2hi16Zspn8p7I8U6N33Pbyb9NVm9fG2M2uR1ZDVaUD5RR2dXB5Ub3PQ9m0RKvSytvYW8Ygvq545wariRB9+vIKXOIqvnJYbb67A9XcZWTcAHs1J8Qz/zXHi3tFhPGu1XvzKVXjpdR3pKBX1/i6V4bw+9e4vQ/c1IecoWak8H5sh9rJz0+is8fsDCqbeKoDWbH/Y4AtIw6aCvsRtdeT6GuwM/+rxY8KBPm1REWenuwO3l/Rz/XQ+FMRK2xjaGLsv/ShCE2Th/k83yEl/BLjH8oobleUaCNBgsjGsOBuv93/pDtxC47SZqd/jetGNZm7KT2iPB0/q4j5XySO4ehuyu0C+FEeRh3ky6GT2QxVOtssrAn9tMw/MWJH0dR9+oYOuGBAwZFfQO1mG4aqH8F34Vsr2dF1odKDbUcfzXsrQX28OrvH3CyZuM81A15SHiKnWSrNz2bsVx8KELtNt6qUlSyv/Mj5uhfdUMX9VT/46Jpm2pJK5PIG1bI0cPVxN/2cwLr1uDX99ZglGY5/N2wyI8vvFuSp63oN7Wz9EDBaStT8CQVcdAawHqy92Ud9j9vtuJ8/fAhkIqg1yDsiT1VErp/DijWcVs1ShgiRJddgGPm0aZ6y6wHSylbVxNYeshb95TKWw6RGeeGkdrKW1+2bEdLKdtXIHhVTMDP83EsF7P1vIejr6qx9maxQvHps/2qKkFR8JOyp6MRXWfnsqf5CD1DjLsf0HGjTT3JlCzPYE5XhsCKB/OmXkuSndTlqrCaQfFhjo687Xe1HbadrfjiCmg09hI4eYEEjcX0GTsoDDGQdvudmxT3+zinX4TUl4ZlevVqFblUPljHaMdZr80IP2uh1pXAT/JmD7/nzcLHvSFdHcCmfk6wMywdeEfT0H4InF9aoVl0XiqXDeX/gw8cD8qecKFcG2M2rQkSlrNOLwvbO5xK13BWggYozmllDazYypAddnNtD27mfRW/0rOn4PDr5uQovTUDI5x/tz41Fb5sDdJRHmYJxetND/zGOmv2UncoJd/Om3cxhBg2GRAvcRvf4yBJD3gVyGPmltwoKPsuUxZ2kzKdqqRTEbema01zCfcvPmbMFL1igVDXgGJ8s9CuWahdlc3kqaIn5fGzVFhj+McVYA+iX+KkX2kSSZTD9JBS0Cl6uN8u5oqi57CvAT5RzCf5+2mRHZ8o4fqGI3KoUZ23hQJWyhYBZc++Binb6d7nNEzoP6m2vuMh6ZYriG+t5m+cQkm3dh62jmcGo8v9AnOhWPUCSSRnBCQGxKTkwAno3bfK+QYQ/sdsGo3lU8EBjvqjDKKYyQG+4e8L5wuzn4iwbfU+FIq/osCMGOban12M7SvDte2Yh5f5tt3EyYddD1fzWiUnp+/7Hc/uByMTgCbkkn0b5W7O4HkTcDEKB9P3SMTjFsgUTt9Ie+JUsHEKA7faZi00/ZKN4k/KiB+9hv/jnb7gj7fSQXc17xF9CxdSZ7xJXWM+nZc9IxDqbU6GXoxg4dWaFiZuJOuT6SptCMuK82+FoZZxk4E5bYHtCKsTMygpDV4H78g3FounOOgu9fXjeEpsNT33JqSyNZR6nnrrzrCR2e9AdmHR6jZoMDR+gp9FwLTq56sZmDYPhW4/XGokbQYcOwfmn6eA/wHE2eArGJyVwWv8iLNw81z0VeZTcPJaLbuNdO5fZYq9d4YEoERR0A/Lky6cDmAVTHeitzF2TMSkMDqBwKTAuj+MQmwYP/jXCFsBHnzmXTSV1PN8Jo6an6gmSN4m2Y7WEfXVQW5PykKo+KLo/D4GOc7MyN7GZkwUlVjIbG2mpyVwf6R+TpvNyuS47MzckyCx/WsnnFIWnIHx/ljV+ZUoMSEg1Eg/j55NBnEfTn8qjUec04cy+9/jJL3E3irNmmOYFGFWqMAHJyVBcfuv3hCT/XXvN9w8Sy2q0DCarT+ATYAscR/F7DY+dj/dH/5Lr//AIhG4TtuezcNJj1l2+d6aQiP29xC7RjE/7iCNP8g8qtqtFHAJ2dlPSBunBMAaqKXBnyAYka+lVP5dpvbaJZ2U/bE3Ff7TnYbgz6Jjz+yAmriY2/8JA6/VMALFwz8rKuDmi3JrNb4biMLVU9l03ZVT2Wb39iJf8qfMc5ihgkTOwybKemd8I516KAm9S6G67N55IdGnCLwE26LMWpXaFi+Yh0lJ8BWk+Qd65ZBG+B8bXOQgcwJaJZJOI7UTQ14fyi9mr5PglSIk25sR+r8xtHFsvZHRlkiO8OHnLCpnqanY1H6KoGlseS+XI2BMczWqfYKT8VYm0P8fdPFu+KBVDK/CyxV3GChH2ke5sddD+ymd8RM/eY5unaWJZO5RYnUWk7VCSfSpCfgG64rp3lCgeEHyXO0wgRy/nXunpCw8+blMlVTdSKWmp9kov6y/NMQLhppeM0B+mqK9Td25aZctmKxAHrNdKADgIvBmmqGH6imcosaeRUciXDO24KRH5/biWMCEnUa+MRvuMOqdaQHmfTh/tSBExX3XLYEpg3RcKFKKKJzxM75c2McP1CALozxZvGpu9FFWah6sRubr7Xc3s0L1WbQFJEW0AI4FyeXLgOouP8BBZw5O9VqKf2nBMThaURzM7h/D1JpMWmygOuGSGM015uQYgr4yZOyp2pJHGm7dCgs1bxw0DvsY9KNrbecl46BdlcaiVOHGINGD8N/nO4Uv3LVBTFa1EpPK19XvQnDcznoZgS+ny+3J+i75mS0tZSSXgni8kn+pjxB+BxSKm+9UUTaej1bS1P9LogD5zf8xtRk1XnGWVy1hB5HAp6m51+UM3TZf5yGZ/zCqd4Cok9UUPKb+a9QBGFhuLHuyyLl2XaGxj01i3usm/J0+SBzN8PVWzzppsbRSbguyitOCfcEsFQ5M2Bbdj9aYOTTv8o/mTYp4Ty5h4Y+BYYfpaLz7fe23PsHsbRmBM7KmxqzeJN5uCEq0sqLSAyrO0pJcu27DOz6Cl2Felber2H5/evI6/wHcrvepXOqpUCFegVBW1sAHJ9Y5btCiCRvwEUTL7xkQVdVT24Eg+hth/YzjJrCnWlhtGzNRmKkZQ9DKEjLSA74Ltfb5bxwIpaaV3OCtCr5zNd5WyhBju/aFdzAlRPVpCSX8+HX82nq6qFpVwLS4QpS0isY8jsWx5/MgIuu+nYuxRVxoKuD+ryEqYaLwMlANyi2gKNHG0n+fTUpvnGxKdV8+Eg1xwd3T7fkqtSel5QZLWYADhwfBO6JTy1Ca+2g5YgD9wULta90o3g6E4MSpNMtNLybSmW2d9bFTXL/to22CTCE6HLVbTNxvCGJj2s289D9GpbfH0fKi6MYXjZzNKCbXcX3MlJR9DXQfNqF60w3tb+wEb/dU0a53m6gQbGb4k2zt59+Hix40Df8/LrAgnuFhuUP6kmvNyPFZnJg72wPdxi+Gx8i8tZRWS4b76HJpDgLpIPGwEGl/i4OYTRJKLYVs1XWsu4bezFqtMw5SFYQ5l8clefGOf+HDnKBQqO3W/N4NTr//y6P8/sbG4OH7Oh29fDeH8Y5f3aMo1V6FFcttJmn72Lp5B529DpQbqrm6P/2dsWetfNRW47fdzH1RkxvHbW+VixAumhnsL6BPoBxp6xycNGX533274/l0VwzD/7CTOcND4a+kTzcShKjv8zmqX12dKkVNHX10Lu3grRYO2078mnwmzW4Wp+DAgvtb8pnS1oxdgQb7Xaz3AzVlzO8bDc/y46gvVGyYmx1Qlw+OQ8HqV0j4PzNTvI6nShSG/mZfyV62cwrL1lQP/ezOYPRW3/ewhfy+ADbCSvqqckQnkkfA28UoB03UjLVGOHi0t/UKKNkDQ+l3rRXLZQ/2z09/u9GTZjY8c+lDP49gcJXO+jt6qB+WwKSqZr0503TPVpL4tE/rQBLB22yGa+S9RDtZwJ2QWwRb3XqOVuXykOGUj5e18jxnyagwMXh/e0odhaSvBSkT4xUpcd5ehQyqxmKOJB1cvhNM0TlULA5+GuI8+2dpJSZkNYXUN/WQ29bHYXrJQZf3ELJ24FnULmpnqPlaga3r2PtUy2wq583nlSDNEbbL62klXpa+aaXx4lj444Ilse5Qyx40Bd0yZaXG+kdtPDRYB3JYQxZmI1OHfxiQwIPzig4FDz4kF42qFRmYpxhQPt3JyMnrbJtHNc9wJlxnKGbCgVhYU04+ZAENN6WHck5jg09uvvkCT0MtWYGShNQK/DO7ismNwpsJ+3ewMjNcH83UlQOBxpy0Km8lfoSBcoZ4wRVPL6zAC2O6VasFRpWJm6mpNXqmawRNVe3rYOuHans8C90l2XSOTVho59CgG39AZM4psdOzUceFo77WDlP7bOh3tbLQJNnlmbi5gKaBs3UrLHR/Ez51IoFivUVvLVNi6M1g7W5dfSdsDLcX0fWI9kMf1M/3RI6T9zHqigxqSnbWxTiZTk49wkjXVfB8P1kWXdsJCQcB/PZWGmBDXUcb/Afd+ZmqKaUwWW7ado2dyvQrT5v4Znt+LxiiiiTTYZQPFxE8SaQDpoZkQBUJL9s5qMzHTMbHh7eTWUWMGZmJOIgyc+kneZnShn6v3rqB3uozNBP9Wj9rquAe46Vkjc10UpB4nO9FGoctGWuI6veyPBJC3312azNsqDdMPNsq/QVDHi7mwdeTkW9BKSTLVR9kEPl07EgjdFQUMHItxt570MzP9dZ2fHMHkYjqVftJtrHQJHl303r/3kLeT3y7EEAAD6BSURBVGVmpA3TPX6JGzKpfONdevPuYaisgOaAuWQKtFmNHP9wnPNn3qdzWxzKJeDsf4U2VQXFSUq4aOSFrBbY3s+pkV5y/r6H9GdNt/EFM3ILHvQFXbIlK5XEVWoUERQ6oURH3SPf5ZGgmaULQppqHZBzfepp/bB1lpKVmy3bdtJ8Er/xC4Jw60wtTLqxGhtWyh/1Bjt53YCFku9ogi5kq9XKquklMWjWAJOfeXdc4tJ5YE0s9wcrPGUUD1fwVm8FaQ+rvIGVEm1SAfXGRnLBb1axj4qtnd7A7aydU4N1bNW4gxS64Ys8D7eKm5HfmpBIpWynbKD6EjVbc3PgqgmjxVdNKIh/7hBHX81B6+imvDCbktedJOx9n+NVSdwDMA/lJHha0l56wYR6Vz2Fc8dVfjzHBHqS1ocuVWc16WakcQspNRYUm+o4/qvAXhhfMFr8akGYwegtPG/hmOP4pmhVRM/Yr0QdQ5j1igKtLgGwMh6kaztsfxrGOA7qnWUzAkvlek+PVsBEq7vjqBw4Qn2WhrO9FeTlltJ+IYEDI2ZqNnietLtmHJcf3/p2P87GcDdI1kHaJlIpK9WjXqrGsD0fw3gLg9bwoz7bu4dwoiD3v/v3bEyzvXsIB2qKS2XXYomSxO/no8NBszlwIecZrllor7eTuysT7RJwmHsYjimi7OlYVMtiyd2eAyfaeSdUI9IdaMGDvvkhceWqfN8crONBo+/P/i4BapQhBrqqvu7p8khrDlwqInDrYGu442cE4Y73H7jOyffNTpVQQJPxff54btw7eLyCrTGf4QQM35yl+X6JAtWqTOpbKtDh8FsWInI3nIcFJXHFDRBNdJCoU7EyFgOA/0vnEiW6jGpvy8g4Hx3fT/F6FZLDzghq4r95g4GWjOuEkcGr4NiXEbDg9fJEz3p4vqE4M35lY9LGqAnP0iQ3Uu5NOhmq3ELWPhvqpzv4173ygMi7RhoOmtNjA4YCrX3eAlgoTwzyQnOLztuc5jw+v3FxEZBCdBtKkhtQ3FyjyTU3TkCrCnaOtDyYAFyVBWDKWLa+3M+pM77nrYjEZRIOmxVi4tEG+yovt7mF2k9yKPNOtnD/1Rn4jHjH4oY/+cbJxyedEJVDcvCYD+mKE9Cg+qr8E0DzIImANEeMaTtYR9cDFRR4Jy65/2LzBO6+BDEaErExMWewfue4I4M+z2wff96FKiMSbJCv9wZFj25G169XdAw6YOj3wUJ3B11pcWzM9F/UURBuDVVGB+fPjXPqVT1QwID3JWRgG6Cv41S4LyS+mYVf97WGxRCzBnC4uBSQUGL0X0Os3DuDxOibHQyjJylhltLf526lpzVmXkWYhwWhJPrreMqsYBXBec/wEV8rlOtYKWtXpQb5KSqJD981QlQSiTcx0c2fcl0xvV09M7e9BegAXZ7nFyWK18mi1T+NMgSo1zw4S+9JCJNOBp9NZcchJ7pdPQz8VI9qRrCiJHFXkHx19dCUpwN0FO7tobermETvjM9bed5mFdbxAUt0xKcGWdoEPEvQfAJEablfBbjNlKzQsLI42GLrbmwf2IBM4iNqrZVZ6qnnHH+Z+S+Ak7NnPEMkPFwMla1jZVr3zLHs0iiWw6DYlBi6S33STlejicSqouDdsDfCbcdqBTbEh5wToLxXB4zjCnaIE2exwfQyMsFcNtO2X6Kwwm8pnS+AOyvo896Iw2cCn2Tp9CG65YNF5xRkkO8n3TT3gnpbiDEAeBbVzNGD1NpMl2ytL9eRFmrPuJEemeUGF4QFdsk1HlAgO2dUfIGkK+7pyQ4uO13PlzOEgtwk32r4Kh5co4aJFhp+4/CkvWyn74VU0uf6dQfJjWvcQtsOT1rtrjkWXJ2UcF+w0rC7mhHi0K+JOIyYKdI8LCgFiUk5KDDT/Lqs/Jl00tfZDVGpZOq9oxO/oeWuqza6fxvYzy2daafhoET8j7cQH6JSi5QiJo7E9QkztzUaooHolZ7/jo8JLBxdfxr1tJ5+K9SbcmiOnlJKjrnRbutloDRhenmdAArUcUHytT6BxJUqQIVmTQKJ6+M841Jv8XmbTXjHB6DE8HgOCrqpbQy8L6TT7bRbQLszzZNnZQKGTYSYONFCw7E56rBwaPRkxoGztWHGTGDpdA/tVtDuTCYeABVq7V1IZ3oYCjjdErbWBrquxlG5JURzG+A+1kyDVECx32QL5dfUnmElvoa9i2dx+K8NOBfvAui6OE3IYRxa/RbicdL8S/kyaxKjPR2MoKU4KXS+bT11DK7ZSaHfxCXlvbrAl+OJcUbQETMfy8/cIndW0OcNuJyNGaT/T+9g0cZS0p+xoA4yWHR2Cpy9WaSXtDN40spgaykp6XWMagpo+tFsi0Kq2PqzOgxRFqpSUilpNTHiHbT63581IWkKaMq/mVcsQbg50hUnrImZevv8bHL2X+PoKoybnuzwnc1UnZDQbuulcv30U6B7YjeGKInhyiRP2tWbKT8EW8sLPN2R/vyXV/lWHGs35lNrdqDdsp9O+bPlXXB9ars/locM2TSfVpDc0EhuiMknc4okD7fY9CSDLB4p9EwyGDnSTklaEuUnFCT/bDfJvkoitoCmbVocr2V5B8h7yqr0p/Zg21BHUyQzbBfIpYvjgA6NL+IKl9tM+y/GADVqaZjmxj00zNjMNzYL9U44bxEen0I/fV/410vpz7Tj0BTw86d99YqStPI6DFEO2p7ZElAHrc1q51Js0Rx1WDjU5O6tw4CF8rSMwH8jsx1nbJFffkD3dCOFGgcNOdnU9lsYOWmirWQL6Y12DK82hp5tLY3R/JqZ5OcCF/NWJKRRGGOiodGC87KT4dc7GI5gbUD3X5xIwOr7ZmmDuy+Hplf1cKKClMxS2o5YGTlhpDZ3HemtTnSzjW29aKShEcpKAxfe1iZlY5hooeGgHddFO12vd8OGAr4X6vjvQHdW0IeKrc1mmrYl4OyrIC93Jw3We8gZMPHzpFBVWig5dP6vDpKlQ7yUm03J63bUWY0cH6wgPsR4vikxmXT+2xGasmKwvV5KVm4+5YdcJG4L8+8FYcG4uRQwbMHzaxzBuimU63KoyUpCF+ub7KBAFZtE4V4zR8tllcayVA68VU1anOe9WRmXSmVvD/Wps5dmimU6Ep+ooPP4GMd/njRzLJOMYpmO5KxqekfGOCCbxXijIs3DwvNOMtibw+q/DFJVmE3Wsy3Y1Dk0HX1XdtyetAMv6/nMVE1ebjYvvOlEu6uH34WaDHCLecZGqVBEyT+Zwyej9F0FcDJ8sIXmfcG20SBdmOG4A85bxMenIL7cxPG9OahtLZTMVi8FqYOqTJ9hKO/hd4O756cOismk83gPlfq75v437o6jcqCfGv1nHK7JJyu3nLb/o6Gs991Zl15yHWmmLdj6doo4KrsbSfx9KY+uTuKFiVR63/JbG3AO0jVPE6HnJ95CU2d08LuuCgxRdpqfzSarsJrDn+mp7HpXtk6fP4nRN/czklpB7irZR8syaRrYDa9nsDYxi8Fl1RzdmxryhftO9KXr169fl++cTbfRRE5mqnz3HWW0XkN6awED5yq8zdPCfOg2mvj6pWT5bmEe/Dl66I5/rr6IPg/lmbBwxPUXbrdbfQ/eYS19giAIgiAIwkIQQZ8gCIIgCMIiIII+QRAEQRCEReALGfTFl49zXoznEwRBEARBmPKFDPoEQRAEQRCEQCLoEwRBEARBWARE0CcIgiAIgrAIiKBPEARBEARhERBBnyAIgiAIwiIggj5BEARBEIRFQAR9giAIgiAIi4AI+gRBEARBEBYBEfQJgiAIgiAsAl+6fv36dfnO2XQbTfJdgiAIgiAIwg3IyUyV71owNxT03coMCneObqOJnP4e+W5hHnRnZIvn6jYQ5dniJq6/cLvd6ntQdO8KgiAIgiAsAiLoEwRBEARBWARE0CcIgiAIgrAIiKBPEARBEARhERBBnyAIgiAIwiIggj5BEARBEIRFQAR9giAIgiAIi4AI+gRBEARBEBYBEfQJgiAIgiAsAiLoEwRBEARBWARE0CcIgiAIgrAILFjQ5+rPZ/kKTehtdRJZZe2MXJT/5fzw/Pv59C3Q9wuCIIQ06WK0t5qsjXHeMi+OjbnV9Nnd8pQw3k2KvHyc2uoY9U8rWaiakca3hV/euU62sCNlHStXaFi+ah0pO1qCl8WR5C2USRcj+3aSkhjL8hUaViamsmOfFdekPCE4DqYG+Xe8W/2YPPmd7aKV5h1JPLRC47n+Ic6x9ImRqnTPffJQejVDE/IUYZi007xRQ16/S/7JFLfdSFXm9DVPf9GILcjtSCRpr9lpK/SkW5mYT7M12L8vMVITy8oXLUjyj+Yy6cZ2pI4dvudodRI76k04rvknGqNWfq/M2AKfDeexatJXe65L+otG2fd5XegmfUUGXePyDz7fFizo89HlNdLb1SPbGqnZpOLjt+vI2phP343c5IIgRCSgovdutaflqTwiSSvITDrp++FjpL9o5IquiKauHnr3FqH7m5HylMfYcSSwYpSc49hQEP9kEcW75Fs8Kv/EE04+BLRJBUHS6rn/bv/EwTn783kkdw8jX02jpq2Hzqo07jm1J2hZHFHegvGei6xGK/ekVtPZ1UFNqpKRxmwe+aERZ0DgJ+F02CAqjq0z/q0iiuO+5p/4zjZhJG9jNs3OWIr3eq6/1hHkHEtWatM7UJS+y/mzdo7uhIZnWrAFCYhDkxh9rZSGWYIT6XQd6SkVHL5r+ppzuOL/3979BzV154/+f+6493M69S4dv58NY++S6Sqx2yV1e8HWazK2TT5eL6xfhfYLxW350coP+1HoVmTbEvppgfZbwtpFcAVd5UdbkH6XVEaJjCXrx5u06yWObcN2beiuJtpO2LsO2btO87k6PXM/jN8/kkByCAgtKMr7MXNGOeedk3dO3jnndd6/DhszzbgUAc/00wbor8yi9u8ZtNtP0/MsNOVsmxgkeS3Uv5NEZZEBSbFpajKuN59g4/OdjDxqor3jEI3PqBg4WMbG4k48Y8fo+6Qoy0p4ydEFy+jieO4K/zaGmikodaB+4Rhn7A3cf9rERrMyIJWxt5pxP13O5sSoDbe871y7du2acuVUOi1W8rLTlasn8B8uZPWLDoy7TtOeFfvUEDhZzeriTnj6EJ9W6WZYIKYWfH+oG2hj81LlVuGb6LRYyTt8SLlamAWdWbnT+l2F+X6byyOn8/i0MZU4ZOyvJFHwFzNn2rNjXogDx8tYXWqdcKddbPFS+WD0uuunHaR2eRYtiu0AGJR5mA9pJzfd89lMBGwmVm+zoK910P4z9fiGUQ8d2alUncuj6+Nq9KETnueddNbXJLL/Dw2kxY0nj0V2VHNfgYPyPgelScqt0xCwseM/b6fXYObDlmzUi0Lrhy0UPGLCnr4vVKaCZpK3WALHy3ig1IpRcSx8vy3kkUoHGU2DNG4Yezc6MlKpWhadh7k0F98/+OkuWEOFp4iufhP6cLBx1UltWi4tP2ng06b04Of7spPMGonfjJVXHx3Z1Ui/nuZ1azSA62ABT705iAyxr7fyILXrs2jRxP7OPWXH+PC5UGGaSdpLFgr0JjRdXip1jH1/rWnH+HBbuHDK2F9JpmpxFycqkmd0jZcd1TxQYEG/y0Z71sSyk7ZnkP2bpiolwfcu6FJTbLFS+WDw3V11SWSerebDrmzUY7+pr6LLuLeTzPUOsm9A/DA3ZXByc17TN5U4Qyr5gHzYiVu5URCESfm/cMLS+NCFMcDIX4B7V0wS6Hg4esCKvNhATe8gFy94xxZlwDeztEIsni9dSBhINUQEfACLNPz0SQNc6cRxNrwygGfQDQka1FNdv0I8nzuAZDQJyi3T5HXTDxg3GMcv6AAJRlINgNWFZ2zlzPIWi+fPNohxLNSGVIxA7x8jqoUCXlxnQf0j9Q0J+ObMl/1YHKAtfGI84AO4U0d2oRaOd3D0y9C6pRru/6iNllMBGJXxnWyj83IK98f+IUe75KRpy6NkvjmEfp1BuXWM/FEvHcOQn5+h+M4zyMsB30ELA6E7vJmkZdiLHR2JY1/tXUj/CD6Xh7G67KFWart0lDwzs4AP/Bzt6ERONlETEfABqB/PIx8YcHsn3JhGkh1mtnXJaJ6rozwU8IGf8+dk+LGa8F6l/ygBNtxjRTFA/14z/q2lPDbHAd/NcFODPhbdEfz3ysSvLjBkpXasP0QSq7PLaJmkv4Anos3/gcxqus9N3J8g3D78+Lygvft7ob+H8TpAfddkp9V/Y/gskFNK/srrXU6nn9a463RUUHjxgpeLk9SwzYe0N0rKVhufXphuDcEwHheQohm7CE0ugO/Pvm8VhHF3AnpgwKNoxx314/cAKxMiAq6Z5C02tVoHOPEqu/D4/XiILMPAsAcXkHLPN41o54eA24UL0N+rUW5Co9UBg7jCHeQkHZU9hcgNj7JsRTKZB6D8rRK0kQFXTH66K3OpPxXP5j022p+d+F5hnrMOZHQkaZTnB4n7HzDAFQeuUMAzk7Th9Xw38m9gsRQK8AL0H2xGLiuf5m8hQsCF0wHadN3EsicZqLng5dOpag5Hh2h5oxN5cR6Vz8ZI991Q7DEmHimcaKiTequB8livuw3c3KDP+xmfAGzQEllkfUe28/DGMjrC/SFaqnnsDge1OY9ScNgXkVLG1ZDO+udb8WiCfWca/x+Zzswcmj4VgZ9wuwl3WF7DjpPgrkkN9bcLNnP63tx0a3Z4XzACDDgcgIHEcFwT8OEZBtWSEex121m/aqqb3FAQppXwHCwjMzQw4oH126k95pmy1mPM0jSyn4hDPlhB1Ukf8mgw4LObK2galjA+kzZ+Lp5R3mJTrctm8xKZFlM19uFQDi85qDU141tsoDh1/Mwf+MKDDxV3XXaM3/CvXENmeSsD03u7eWHE74WoGrAISxPRA64vx6Ng6d5sanoGuXhhiDOWatKmGfPece9OugZs1G2K9UZhMiP/0wdoUd+t3AaqH2gAH54vAjNMCyQkYsSB92I4xVfI/yuipvZsJ7VWA+W536AfQugGQH+vBr+zlR3hQSWrUicdBBTJf6Seei8Yq0owRvVzVbHiXgnOniccScj/W46oPQ/Qu283clkpGUsiX3f7uDlB36iM/6yFin+uxoWG0sKI/huXbdS/aiNgMHOit4HiTTr067Kp7DhNV0E89hfL6AhXjX9p4Y29HtQFh+jbX0TGWh3GHDN972fj63KOv58gLDSXLBSMDcII9X07mBU9oq3AEmyGmUla4RuTnc3UHwcpPZufhms+Qs2t/nfMtFxKoXTPIdp3FaG/apt4k+v34BoGbGZePRVP9uttdO2p5rG7nbQ8n8rGumC/rqnFkVb7AT3PfY+OYgP3rUhk2Yo1FLT/A/kdH9D+eEQd6UzyNpklqdT962FKl3RS8EgwSF2mL6Tlzjy6TrSREVEDFGwK9tNR18pIcgn7O9qoK9Ah/85Mzj9NHGQyXwX+6o5dAwbwXZAA31fX/6ampiKjogT9dWvQQl0/gDti1R7+h+A/gavyDNOGbiDSJToamnFd8uN+x0zt2WSKNiQFayIbdiO98A2Dp6sBfICnvZCHc95D/q+VtHe0UfeEKjgI6MlW3JMdwtEhun/tgIQiSjdNrPNPSS9B42yj+ZiHwJcOat/oRHo6G2McyB83U/9BOpXfJFC9Rcx50Gd/cU30xWN5IstWJLE6w8RRKZ2anvcoTx6vRPWftNB7RaJ4e0QnUgAk9E8WomUQiyPY68TjeA8XWoqeVAwCCfU/EITbSzKVF7xc/LyN/NDAiosXvFw8UY028u+KZOUL58T4bzuZ9RnbqT08OOkd+HxIe1N9aWHb1lZ8i9NprBq/yfWPBFAvkTDustHXGLpxzdpJo6WL4kQ5+ib30ggjSyU0Ww9zpsPE5nU69JvyqHnLSt06Cc/BHGpPTXYlDJNx/TqXp/YOoU03hUYWm8hIGqJlWyH1H4+/fkZ5m8zVQerzcmj6XEtGRXAmh8aKdLSft1JQtDtiNKifkb+riVtsoO59K41b09GvNbC5rIGet4rQXHFQ8XznWO2MMB/EkVZrpVJtZYt+TbBpuqed/HtA/riV5o/SKf9ZUmjKnkJWrwzV1B0cmsbNSZD95DD5Fiv7w+Wh4hB9uwzwsZlXJ7npkJ0WmoYh5dlcUmK1zyaV8G67gfPmdB4wlvHZmgZO/IsOCT9H97UibS8mbUnkVDpJrM7+hlPpzENzHvRFTdnSYqZ4bRygIW3XMT7tayA/Obpzis/jADTwVycDpxSLx89dgNszjBzuZIwOzQ+jdjHe/0AQbkfDPj5BR2LoLj84rYYB7T0RaZZm0z7Wz+0wxQBbD8fu+zaTtDEF8Jy10fJiVoxpOJTmQ9obSz7XScFGE3YM1L3fQFpEzYcqtZoTnwxFjU4E4M5kyl/OAwaxOUMXt5VF9A0MTRwFuUjN5goTWmQ6HFPPnBc4XsFTe92ot3bREwrk9JuKaOy1UfOQm6YtFfRfDqadUd5iCtBfmUPTkJrit94LBXI6MrY20NdXjX6omacqbQQbC1WkvW7j07NtbFY0b0oP7qQyBxi0MXCbXHhvG3dqyK+38ekFL38aaKM4OQ7w0W1uRfWLEtKWgP9IBTkHofTd05x5Oxd5bxbbjkyz3WBDCaVjgzCC1I+XU5oALosjYtBRWAD74U5kDGSvm7zZW2Uw0TMwxMULg/S8no56Ecinmqn6KI/Kp5NAHqS+yMTATxr48BMbv9Q62bZlN67pRqvz2JwHffH36dCvDS3rsql863e058j0v5hFZoOyOcLP+XMAblqezyUnX7Fsa2YA4C8jBJD5KtS1IGZVtCDcZsYmPF9fjRsnFY8Ea87vK+gEHOz4L4kTJiGdG6Eax/ByfogzJxrITwT5pIl6W+QsrvMh7c0TcO4mM7Ma+z+kUtc3MaCZiqRJCg66+OJvyk0T/VCDHuCCb4pm+AADv7Mik0759hiBY34eXLFicUy+h7Bp5S3gpN8qQ/rOCRdu7skmLwdkqwX7dd9OCg2AcOKd87L97cXdrQVk+HflFuDfQVYOYJlTccT/IPi/r2PdCP2f4D/q78fNMO3kZEcbtefyKH1CA3h4v9OBens5+StVqFbmUZoD9rf7YwRsMSTEGMm9SIVKA5wdDt0wRAg46bcChlT+6bpN3xFGPXQ3dKL9RS7GO0F29tIynE55mQH1EjXGZwsxepvpdd76Ud+cB30TLFJhNDVQnCjj3ltGfdRBVKFeDpDO/j9EnNCVS3s2KiTuCpWGmAVUEIQbY5GEKjGdmteKILLPTyzzIe0N4jtuIjOnGffSPNr797E5siY20mR5lWW+gvFRhaF1cqzz3b/LwRvo8IwIMYVvlOOJn3AlBem+JIwAkfufSd6Urn4VvCiPTS0Uabw1JvL8Lcd6MgIgywFAQroFbvDjVYmTB6iXvAwAGlW8cssckYj/T2rAgy9GcO3/iwdQo4qXZph2EqFRs9qKwtAAiuBsABrVeDuBWqOLHbBFCg14mTG3i97QlESTt0xMFLA1U3suj/KfBQcWBf7mi/6dLF2BBvD9bcpc3xJufNBHqHngtSLU+Gh5aTcDET/0eLUWsOE6F/mCEG8nG1elktk+BMShSQ6l/bMyIfg8YiCHcHtRZbVx8YKXM7sMQBE9oZugnq2hCYkveLk47alCZl/wRAlM48I8H9LOJd+R7WwsteBLKqGrpxpjzCtQgP4diSy7f3vM2tnAUHD+0s3JwU7l7v0Glv04mfpYg7PPubED2rVJU1zswjU5PnyhJtwoF73YCR+7meUtpiXxwek2hn0xL/Dn/+SAcEtNwMaO5YncVxprwFAA90duIJuUKd5uvojTppACDLgn1mV53E4gmRTtxDB4rmhWGpBwMPQnZQAv89mnDlhsICX01ImZpI0lYGuhSS7iZWWXgJlKuB9dAuD8bGKN4Ogw3o8AQ+KE6Vzcf7ABalKSJv8VTDA6REeDFX1VydiE6bezmxP0AZJuJzU5Egy3UnVgvJlXk5qLEZmWfZ3R/XJG/fTuNeO+LGN8KPjLD6b10dSg6MMzbKGpS1loBeH2MOL3wuLw2Sk4Z99NJfvxnNzNlkobLE4n2zDFCXc+pJ1r3k52lNsIJBbxrmUn+kmv73Ho16UCDlrfVnR1ueqk6U0bJBSRoQt+19q1T6BGpuOA4nw36qO7YTc+DORFTIEykYQ+NQ8JG00R51wI7aO9M+LYzSxvMUk6Up+W4HgzTREDRCB4jm7tDo5kNqqAOB3GDYCjjRZF2vCoZ/XWjFvjonxPGtkGcLe9F1WhwVUHnb9yw4Z8Hpus1ncOSA9lkJ8AHR290eXGa6GpC9Rbs8eO60zSTjA6REedFf3PiyIGUHyPhJXg8Y+H8j6PUzEfZCxJpBUmw1kztYoBG74jTXRckcjISlPc4PjxuHyAAe0UgalS4HgT9XL0SN+476uBEUbCdyuXzuOZRtP2reCmBX0gYdzZQMZi8OytoGUotHppNjW7DEiOatZnlNFyzMnASQu1W/4bO6wymq0NFK+MTstJExu3mOk+6cR+2ExOhomB23JaRUEA+SsfPJQwdpf79ehUT+OYAx+bo0fj/3gN64ubcaGl9K26qIEK8yLtDRWg/6AZF6D+oYz9wG7qGyYu/aFRr3EbTGMjbzN3tNJ7KnQOeziXlstaSnfvHL+AriyicasGOeJ8N3CslR0ZqVQ44kirr75uLa+01sS7WzV4DubwcLFiHycl0l7bOXbsZpS3mCT0L3RRnOihZcujFNRZsJ9y0nuwjI0/NWH/h1R++YvwSOY4MirMGBd7aNnyBDsOWhk45aC7LpfVOa2MJJXQ+PNbZbJcFZtfM2O83EpOxvbgNexYK9syCunAQF1F6BFsN4qUTPnuIjQOE+ufHL9OZj5WjSuxiMbCiOrTmaRV8B+pp56dlEdO+4OGn+YZ8O2rp+OsH//ZTpq6iJ4PchKa3Abq1oH9xXRy6izYQ+Vh44sOWFdNearyKPrx/RlYmYh6ugVFHqTpTRtpL5RElWVJl0FxgpX6Bge+yz7sB9qwJ5ZMfZNzi7iJQV9wDqeXXzMg4aH+lfEHKKuz2jjT10C+eoim53PJKTbR/VcdxXts9ClGrqmz2vh9lwnjFQsVxbkUmB3EPXOId1/WRaQShNtFgJGo5rbg0zim7Fs1x6SlWtK2NtD3oTXicUexzYe0c8uL671gTZXvZCdNe5tjLq5wxcciNZt/c5q+PXmo3c3syM+loKaXrw0muk4oP4tESoWNMx0mjF/3UlWcS87zzbjVeTT2fcD+x5WNXbFIpLzwHn178lj11+vsY0Z5m8SdyVT2HKMxJ4URazUF+bnsODCEOqeBPvs+MiIHtiRk0/4/jtGYk4D7QBk5+YVUWb/GWHGI3/fuJCVqkt15LiGb9r42ijXe4DXs+WY8mp10nZjZYJ7ZIj1ooqenmjSC33lBTS88ZqavxzThuM4k7Rh5kJZfO8moyJvwNBHV4w30PAdNT61h9TO9qKus7I8KDCexSM3m33xAV4WBr63VFESWh98op3QDkAkMA/8ocZdy0yT8x5pokXZSOvb85xApmcrOBvR/LOORVam8NJxO17vXu8m5NXzn2rVr15Qrp3KjHw4szB+dFit5hw8pVwuzoDMrV/yubgJxPlvYxPcv3Gw3ugze3Jo+QRAEQRAE4YYQQZ8gCIIgCMICIII+QRAEQRCEBUAEfYIgCIIgCAuACPoEQRAEQRAWABH0CYIgCIIgLAAi6BMEQRAEQVgARNAnCIIgCIKwAIigTxAEQRAEYQEQQZ8gCIIgCMICIII+QRAEQRCEBUAEfYIgCIIgCAuACPoEQRAEQRAWgO9cu3btmnLlVDotVuUqQRAEQRAE4RvIy05Xrpoz3yjou5EZFOaPTouVjMfPK1cLs6D3yArxu7oJxPlsYRPfv3Cz3egyKJp3BUEQBEEQFgAR9AmCIAiCICwAIugTBEEQBEFYAETQJwiCIAiCsACIoE8QBEEQBGEBEEGfIAiCIAjCAiCCPkEQBEEQhAVABH2CIAiCIAgLgAj6BEEQBEEQFgAR9AmCIAiCICwAIugTBEEQBEFYAOYg6JNxNaSybHkij9QNIis3R5AHd7N+eSLLCiz4RpVbJ+OnuyD4Gn9ojasukWXLzbgUKQVBEGaNf5COV3JZvyqRZcsTWbYqlZxXLLgDyoQxDFsoWJ5IweHwWWty7v2pUee3aZlJ3rydbFweSjdhmXgeDQxZqMpew33LE1m2cg2Zk+13OkaHaFo/veMA4PttIcuWF9J9SbklaFbzNtsCQ/TWbR/7Th5Yv53aY56J10TZQdWE7yG8KD77VQ/dr2TxwPJElq3Kouq4L2Lj1Pynmtm2PnmsfGyrs+K5qkwFjPpxdVWTE067PJn1+dV0D8U4sFeHaCkOHv/79IU0OWN9rzIDNUnc94pj4mefzKXg72Xi8Zi6rPpPtbIjsjyUtzIQI0u+49Vkrgp+tsxXLLGPw5edZC7PosOr3HBrm4OgTyLl2WqKE8B38A26Jztgox66/99mPCRT83I26kXKBIIgzCb/qWa2bQydEENL7cfKVDM3V/udV4YtFPxTFlVHA2ifbaCr4xCNzybx1VETG43b6Z0kKAFg1Ef3qybsyvUxyB+b2fGmR7l6ajPMm+zz4kYi5WcllD6nXFJQRab92EzmRhNH78igpuUQ7VUZcNTExkwzrlgXyinJuN4so36ya4LSsIWqSody7ZjZzdssuzpIbeYmdnSNYDS10dXRQPHdTlqeT6egS/H9Dvv4BNCkFsX4PgysuDOcUGbgzXRaF5fz+/Ne/tRbCg1FNA1F724iGVddKqvzd2Nfkk1dyyHaTQYC75WxPkNxrEZ9dP/zo2S+YuErbQmNHYfo2lOC9u8WKjY+yrZjkRFUgP7KLGr/nkG7/TQ9z0JTzraJQZLXQv07SVQWGZAUmyZ15woME45FaEnXBtMkqoiLeInvcCEP55tx/2MRv+w4RHuFEfl3ZnLSqhmI/IxDzRSUOlC/cIwz9gbuP21io1kZkMrYW824ny5nc2LUhlveHAR9wJ06yl/LQ2KQ2jprzDtWv9VM7SBoXniN/NvsoArCXPP9NpdlO2wE771l7K9E134rBY6X8XD+bvqH/FPfbcs+Bg6WsXHl1PsLm/Z+pytUO7JRn3T9WoYbJkD/3mrsVwzUvW+lcWs6+rU6MrY20He0mpTLNl464Jz08/veq6Zi8thlTGCwmae2tDKzkG/mefN96QJSKa7YSXmZcklFHU4oD1K/sxWPwUzfWyY2r9NhzDLR874Zo7eVHW3XjTbGjQZw7c/hqYPT/HTXC5RnM2+zTsZuzqHlkoG69w9TmWVAvzad0res1BlkBl7ZTe/liNQ+L27UZDxnivF95JEyFtmM4PmjjqJndMQtAinBQNEz38M1dJ1f6VArLx30IK0zc+L/Gz9WXb1mjJdaeaoyfB6BwL/uo+qkjLHWRl9jERlrdeg3FdHYa6UmOUB/ZTMD4cJ0qR+LVab4Fyb096jQPm2icuUgrb+LPPYy9rfN+Le+zOZ7IlZfT1wy+ROOxU7Kf56OyueGxQbq3ipCE07v7WTHiw7UWw/Ttz+Yb2OOmZ6DRagvd1IRUR5c1mY8uu2U/ywJ1T0GKl/OQ+7qxR55ivFaaOrSUfOsbvqB6i1iboI+QDLspDFdQj5ZQZNDcTq86qDpVQdyYgm/LEiK3iYIwnX5v3DC0vjQnW6Akb8A966IqqUZ5+HoASvyYgM1vYNcvOAdWyofDCUJeLDvLWT1gwZy6qy4ryh2EdM09jsT8iD1mZvYcdCG+1L4nBHAc6qTio1PUD84WVg117z4XBIYUvmnBMWmxDSyDSC/48Ct2ASh2qo3HBgLitArt4WN+hnYm8vDmbtxrzFgVG6f0kzzFsAz6IYEDerIapIY5I966RiG/PyM6JaYhAzycsB30DIeAEzlkpOmLY+S+eYQ+nUG5daYfEeqqXIYKC7QKTfBbOZtLlzqpbNLJqWims2R38kiNY/l5wFO3N7xzHk+dwDJaJTf3wTxaH7ipPVtJ4FRkIcdtL79b6Qkxf7Vh7lszXjQUv6CokUtIZvy7Wpkq4X3Q7XBni9dSBhINYyF/kGLNPz0SQNc6cRxNrRu2IsdHYljSe9C+kfwuTzjN4tDrdR26Sh5JnlWgifPoQqqBiWMr9VFHVvXe2Zci/OoKYt+H0n3BEUrYeSjzwg2hPs5f06GH6vHbm6k/ygBNtxjNZQB+vea8W8t5bGl4XW3jzkL+iCOtF9UY0Sm441mXGNlXMZ1wEzHFQ2lu0pIifiGAkNWarelBvsrLE9idXYZLTH7CEyPf7CTqnzF/k5F7m+Ipkdi1GiMDlK7MpFly6uxR504AvTvSGTZI82xT/CCcEP48XlBe/f3Qn8P43WA+q7JTqv/xvBZIKeU/JWxr/TuriIKGhz4l2ZT17ePYmWCmK6/35kInOygySthrDrGmc9DAeT5IT5syUODhybbzaq9Sab4xCAX27MnCaonMeqju6Ya+0Nmap5JnPSi5z9SQU6Dk/gnGjjxm9Lx2otpmWnehvG4gBTNeI3eJDxnHcjoSNIocy5x/wMGuOLApWzKm8BPd2Uu9afi2bzHRvuz0/h0wxaqahzoa6vJu0/53kGzk7e5EXA5saMlY83EIywZqrl4YZDKB8P5DuD7s29aQThI6F+wUnSlnodXJPJAdhOUtVI6Zb2Jn/NnZUDHqnuV20D7n1MBB0N/Cl7oUrba+PRCG5unHexI8F3FqsVSqKwH6D/YjFxWPoP9TeGyjaZfDUKyicr0yNI+xMBxGR4zsEpZHNCQ3+vlTx3Z0eX9u3dE/gXEI4VfO9RJvdVA+bOzE6jON3MY9AXvJCqrksHbzBu/DVXrey28sdeDuqCa0uTxQ+o7sp2HN5bR4UuidM8hulqqeewOB7U5j1JwePqdVcN8hwt5OLOao+goj9xf/qNk7h8KNXckod8ggcPJJ5FVu198xsAVAAuuqJpqF04rSBv0hHoVCMINNEjt8kSWLV/DjpPgrgkOmFq2PIsWwPfmpuDfdYPKF16X9tFcMsoOcabfzOakeOXmb+fSIN2RTbarUsmJ0cFalgNAPCkpSajCp4ZFEmqdgVVMEtQqOsvfp8+i6nCMzvJz5bIThwMwJE4IovzWaqpOJgX7LCsvjJEkDeUdpznxy/TZ7dscK28BH55hUC0ZwT523GLdYMuM/E8foEV9d8TqENUPNIAPzxfXb3a/496ddA3YqNukPEKx+OmtqcZ+bzWVT6hRXpqDZi9vc8H35SCgQ/NDPwMHy8gMlfsH1m+nKarSgfEgXCvhUaSNOejjTg2bXz/Mpxe8/GngMDUbpnNMr8/3t+sdqwADwcJEYriGLSERIw68F8NpvkL+X6D+kTrYAnG2k1qrgfLcKaPSaQpWFvVeUVNsykYT+TsJlWm9NhHORVQcxRzYo2LFvRKcPR+q+QP5f8sRNa0BevftRi4rJWNJ5OtuH3Mb9AGa3NcoTwTXr5rpvxysNnUtzqNmZ0Rb+WUb9a/aCBjMnOhtoHiTDv26bCo7TtNVEI/9xTI6voze75S+DLbvs85M31vV5If399YHtOeA680yWkLBnHZNNmDDdW785f5BB+7FEhIy9j9G9EE566Qbifz/mjy+ThDmo6jRb8GgkINZ0aPfImu4k4pofE6H6npBx0z3i5/uyiwqIptsL3sYOGIm56lm3BGj9lWGbDIW+6h/KovaY0P4ZZmA10H9M9vpXmyg/HHFxWPYyjZjsDnYE+ojJV8apONFM0enGlgxa2QGmnfTj0RGVlp0TdslKy+96kBbVXfdPsuqTSZK106vnm76Jsmb100/4H/HTMulFEr3HKJ9VxH6qzbFDXaoywBwR6wy8R+C/wSuTghLFFRkVJSgn2ZNj/9IBS+dTKJmV170hT3KbOVtbshf+QAPrf/8KDnvyaSZ2uhqMbP5bif1+Y+SeTBc6QD4PbiGAZuZV0/Fk/16G117qnnsbictz6ey8TozYFyfCvVyAA/nY/wmPOecylUxyc5m6o+DlJ7NT8Pf5dI0stMlOhqacV3y437HTO3ZZIo2JAV/9w27kV6YpeDpso2Wgz4wbKd4rJY05OpXBICvTlazMa2CT35QSGPHIRqf0yEfNbEx00R/xGdPSS9B42yj+ZiHwJcOat/oRHo6G2McyB83U/9BOpWzEqjOT3Me9LEoieLXilBfsVL/bAG1Vsj45U6MYyOSwH/SQu8VieLtylG8EvonC9EyiMUxzQ7AgPt4Gy60VFYo9rcoDuMzJrR4aLIFa0OkFB0ZyPR/FK7Sk/nsUwesM1GZDu5B71gnV/dHNmSy0a0M71AQbqRkKi94ufh5G/lAsSXUBHqiGm3k3xXz66bkjnuLqLM4+NP5UP4+d9D+tAa8zfT/MSLhklQa39/H5nuGaHl+E6t/nMQD6wvpuKOErhNtZEQFDn66Xy2j/7JEynOH+PCz0L4/c9Dzuo67IpPOEd9vt1PQ7kNKb+C1DZFtcwH66yqwL93Ja7nTaM6cA5PlzT8SQL1EwrhrvKO+MWsnjZYuihPlmd9gz6bLNt541YH6thjc58D+RR49vfvGKzHeslK3Dlx1r9IdPsaXRhhZKqHZepgzHcFBFvpNedS8ZaVunYTnYA61p75d2LfKkIeEg9a3FQHkVSeWtml0VPrSwratrfgWp9NYlRoxYjaOtForlWorW/RryDwA5T3t5N8D8setNH+UTvnPkkJ9VgtZvTI0VUxk0DtNvuMd9CORX5AxaTcG90kn6l02ev4lG2NoMFPPW0VovBZ2RA5mSirh3XYD583pPGAs47M1DZz4Fx0Sfo7ua0XaXkzaEpDPWajKTA7VhFfTPxz9frequQ/6AEm3k5ocCc/Hg4xMOEGCz+MANPBXJwOnFIvHz12A2zM8zYLix+PyharXlduAxPvRA/LZ88HaiLgUdAbwffRZqHZiCNdRMK5Nw7hGB1YXn40CePik3wfpuhj9BgThBhr28Qk6EkNBUHD0nwFt5Oi4pdm0jw2sOBzso7f1cNRgi+n3A4sw4/2qyKgwsflBNVL4BkxSY/y/DYCMrJyf8/9KJPknmqi+NAG3G8/fFc1P3n46HaAuaOPdMh3q8E3knWpScopIm2bN0jcj43mnkPWVwdaEE/WRF0IIHK9ih1VN+Z4StLFqoubU1HlTpVZz4pMh2rMUzYJ3JlP+ch4wiM058+40316A/poyepfupHHr7VHLkvbzElIiKjdYpGbzz0tQR1ZirCyib2CIExWK/mOL1GyuMKFFpsOhnI1uZqS1Jt7dqsFzMIvV+Wa6TzqxHzaT83Au9h8ZpuyqJJ/rpGCjCTsG6t5vIE1Za3enhvx6W6i5uY3i5DjAR7e5FdUvSkhbEuqzehBK3z3Nmbdzkfdmse2Ispl7KkP0HhiExXlk6Ka4+CaUUP54dLmWHiyhdAPI79iiBvaoDCZ6Boa4eGGQnteD3SrkU81UfZRH5dNJwUFlRSYGftLAh5/Y+KXWybYtuyPGJty6bkjQF+xcGxyFpV+bEnUSCo6mAXDT8nwuOfmKZVszAwB/GRmrcbuer0MXkphV/xOoWPWodrxfn/cz7FfUpCSpUP9Ehxobrj8Dl1w4zkLaOp0i/4JwY/gPFwabT9dX48ZJxSOhfmwFnYCDHf8lceJkrvPBJSct5RETBy9PZFl2qzJVcG6zjFQqfuvD+PoxPv38NF1lOuIu26hSjN4NBrqQlnaDp1QYDTDQ8AQbaxxIG8yc+I2iNeGyjVdfsqJ+ro7iGx27XC9v1yFpktADA1/8DYgj/gfB9eHzaZT/E/xH/f3ZORuGA+XSXUXTCJRvbN6+KfXdMd5fpUIDuP/6b8otE/1QExzxfcF33amTpiaR8sJ79O3KQ+PppKI4lx0HfOj2nOZEVWqwVjzGMQ84d5OZWY39H1Kp62uLHok8BdnRRu25PEqf0AAe3u90oN5eTv5KFaqVeZTmgP3t/ulPTTRkxzIMUk4aKTHyOUajIn7C9jjUCQA+RiKmyZlg1EN3QyfaX+RivBNkZy8tw+mUlxlQL1FjfLYQo7eZXuetH/XdoKBvKuE+B+ns/0NEbYFymUGtRDjYi3lCiEHzUCpqrLjc4P+jA/fiVPQ/AhK1GPHhGvKHRmQZMDwU44csCEJswxYK1udSe8Q51u9uMu53ymjxgrHWyv6cJOIkFfrnDvH7ljwkPDS94xi78ZOvfqV49Q0w6qO/8gly9rpRP93Gv+6ZGFQFu6qAZ29W1GTVy/TBOefsL65h2TSfzDEj08jbmMn6uskyX0FoFKNE/H9SAx58MbLq/4sHUKOKn42Q28/7h63IeGjKDM/PGFxWv+gAHFToI29obmTeZk71w9jTzExKjlHjDfDvcrB1a1Hs4SwzsigObVZ1qHbLy6cn9lG6VoXsGWIANSk/ir66+o6byMxpxr00j/b+fdOfY290iJY3OtFWFIa6cAVH+GtU4/tXa3RwdnjalTi+PzrxTdWXXqWe4Yj3iQK2ZmrP5VH+s+CeAn/zAfHEhy/3S1egmdaAl/lvHgR9EK/WThhMMcbbycZVqWS2T3e6BhWaFHVwf39WbgvW5A0A0sqIOc1+pCdtMfT/YZDPXA5YlxLsRCxpSVkH9k+d2J1WWGlg1Zw2GwnC5FRZbVy84OXMLgNQRE/ohqhnK2Awc+aCl4szmm5h7rmP7cN+JTgNy6fhPn0XvFy0FClS+vnsIx+QTrZiRGLcugzyAayusdqBuLvVSMAn7mnXF3w7oz56n09n23s+tM8doudfDDEHvcStKaWr49DEZU8RWkBbEHxiRumaWbx5nGbexqacun97zNrgwJATN7A5OVhFqVlpQIqYzmNcqN/zYgMps9L3Lg79czGOWcchGgu0gJbiPYfo6ihFH2pevHF5m7lgCxEMxCqbw14GAGNoUj73fgPLfpxMfawB9+fc2AHt2qRpV3jE4j9exuqV6ROflIHMJx9YIFzJEeI7sp2NpRZ8SSV09VRjnMGbB2wtNMlFvKzsPvCNBXCfdgKppMSYcgaARVpS0gHHEJ8pi0O4JXGxhhWTfY7RIToarOirStDfnPuEG2peBH2a1FyMyLTs64x+Bu+on969ZtyXZYwPTb+tRLuhkBR8NDUonuk7GsD+thk3akoj7xoWJaF7DHz9b9B0FIxjTdAqtGu1cLSKV4+COm3Vt76jEIRva8TvhcXhs1Nwzr75KjiSMR7NPQnELQJGZXwfW6j9tUWRMtxkN0j/8SH84ZP3qIzvZG/wyQzpKeO/vyQdmxeDq6aEisMR6WUfrq7WqNF6s8FzqIwdxwNotnbRUxZ8IkIsUkIy+rW6ictDicQD8fcF/05JmL2ry3TzBnHo1wXnZYvVqb/pTRskFI31m5IeyiA/ATo6eqPPo14LTV2g3po9SxdJCXVyjGO2Vof+PhWgIvEhHfq1yahD73fj8vYN/CiVomRw/8pMd2Tn/1Ef3Qc6kRenk70uGIFo1z6BGpmOA8prlY/uht34MJCX+u2uOqofarjjipvOqCdlgHy2lfp3ZFJ+8cR4s6m3kx3lNgKJRbxr2Yl+Jvcmo0N01FnR/7woYv7d75GwEjz+8SpZn8cJKxOm2U3Ki/sksDIFzaQviMP4WB4SndQ2RJdr+eNWWh2g2Z4xadNw4HgT9XIRpZvGo8K476uBEUbCFXuXzuOZB10GZsO8CPpYmk3NLgOSo5r1GWW0HHMycNJC7Zb/xg6rjGZrA8UzGTF7Tx6Nuwxw0sTGLdV0jO3vUQq6QPuccn8Sq3TpcHYQV6g/X5hGq0O6EiBwRU322ukHnoIwV+SvfPBQwtjca1+PTvU0jmn62BzRrBaaisVhYnXMaVimT5OcjYSPloLQw9tXJPFItomWQVnRF0/C+ORONPjordzE6h+H3ndFEo8Ud+JBQ+nThvELhaSj8q0iNHjofjEi/Y8NZL7iZFYbfwM2Wn81CKhRy3aaGnZTP2Gxjc37dUPNMG9xG0xjo0Izd7TSe2q8U3/LZS2lu3eOX7ClZMp3F6FxmFj/5PgAgMzHqnElFtFYeBPPh/M5b4s05O8xY8RBRUYutYcdoetPOhUnwVi1c3xAxMoiGrdqkE+a2Lgl+DkGjrWyIyOVCkccafXV377mPin4Hp43c8ips2A/5aT3YBmZT+3Gvc5M49gI8wD9B824APUPZewHlOUouPRPMrrbf6SeenZS/njkmUjDT/MM+PbV03HWj/9sJ01dYHwmbXoVKIERfFeAn4w/QSMWyRAerDJernsPlpG5pRVPYhG/fHqS8iAP0vSmjbQXoh8UIekyKE6wUt/gwHfZh/1AG/bEkqkHktwi5kfQB6iz2jjT10C+eoim53PJKTbR/VcdxXts9ClHNk2DOquN33eZMOKk/vlccorN2DFQ2fEBfYpHtQDErU0jA4LVyBFV3dybQhoEq8AnKTeCcOMEGImqxQo+jWNsNvl5Ji61mr5deaQsDdUeLdWSVtbGie7qiY8lSyrhxMAhKh9PRrU4tG6JBv3jJroGbJRHTOYOID1ooqevgeJU7Vj6uMRUiveYZvfxSedcdF8B8GF/p5mmvbEW1zcKir+1meZtkZrNvzlN35481O5mduTnUlDTy9cGE10nrJQr5kCTHjTR01NNGr1UFQfT8piZvh5T9MjUm2A+542EbNr/+yEqDV9ztKaQnOJqjn5toLLrA8XIaYmUChtnOkwYvw5+jpznm3Gr82js+4D9itGo30xwIEfP6wa+tlZTkJ/LS2/70Dx3iN9HDfbx4novWE/mO9kZoxwFF1esgi4P0vJrJxkVeRMG4qgeb6DnOWh6ag2rn+lFXWVlf1RgOIXQHHwsvmvCNTuaREqFlRMR5XrHgSHUOQ2c6J28PPiPNdEi7aRUMaMIUjKVnQ3o/1jGI6tSeWk4na53I26IbmHfuXbt2jXlyql0WqzkZacrVwsLQKfFSsbj55WrhVnQe2SF+F3dBOJ8trCJ71+42W50GZw3NX2CIAiCIAjC3BFBnyAIgiAIwgIggj5BEARBEIQFQAR9giAIgiAIC4AI+gRBEARBEBYAEfQJgiAIgiAsACLoEwRBEARBWABE0CcIgiAIgrAAiKBPEARBEARhARBBnyAIgiAIwgIggj5BEARBEIQFQAR9giAIgiAIC4AI+gRBEARBEBaA71y7du2acuVUOi1W5SpBEARBEAThG8jLTleumjMzDvoEQRAEQRCEW49o3hUEQRAEQVgARNAnCIIgCIKwAIigTxAEQRAEYQEQQZ8gCIIgCMICIII+QRAEQRCEBUAEfYIgCIIgCAuACPoEQRAEQRAWABH0CYIgCIIgLAAi6BMEQRAEQVgARNAnCIIgCIKwAIigTxAEQRAEYQH4/wGIGzEshVJ2+wAAAABJRU5ErkJggg==;" vertex="1" parent="1">
          <mxGeometry x="540" y="70.29999999999998" width="297" height="259.7" as="geometry" />
        </mxCell>
      </root>
    </mxGraphModel>
  </diagram>
</mxfile>
